<svg width="10" height="11" viewBox="0 0 10 11" fill="none" xmlns="http://www.w3.org/2000/svg">
<path fill-rule="evenodd" clip-rule="evenodd" d="M9.13911 5.36405C9.12518 5.37858 9.11221 5.40798 9.10022 5.45227C8.6508 5.63486 8.25938 5.56628 7.92598 5.24653C7.89423 5.21608 7.88532 5.19359 7.89925 5.17906C7.84579 5.04412 7.81112 4.96903 7.79525 4.9538L7.9926 4.55735C7.96279 4.55665 7.92504 4.54834 7.87935 4.53241L7.83172 4.48674C7.79997 4.45628 7.79803 4.42653 7.82589 4.39747C7.85376 4.36841 7.88957 4.34697 7.93331 4.33314C7.99293 4.33454 8.03667 4.3207 8.06454 4.29165C8.12027 4.23353 8.14134 4.10033 8.12774 3.89205C8.12808 3.66924 8.13424 3.53569 8.14623 3.49141C8.22983 3.40424 8.32073 3.08699 8.41894 2.53966C8.53108 1.97781 8.53158 1.64359 8.42044 1.53701C8.41025 1.52723 8.36068 1.52572 8.27173 1.53248C8.27403 1.5393 8.27608 1.54611 8.27788 1.55292C8.29759 1.62745 8.2895 1.73097 8.25363 1.86347C8.23358 2.01115 8.21952 2.13675 8.21144 2.24026L8.30063 2.24235L8.34813 2.28791C8.3798 2.31828 8.35395 2.37694 8.27057 2.46388C8.18331 2.49146 8.01866 2.58391 7.7766 2.74121C7.73685 2.81436 7.70502 2.89509 7.6811 2.98343C7.65718 3.07176 7.58963 3.17388 7.47846 3.2898C7.42288 3.34776 7.33158 3.42711 7.20457 3.52784C7.07757 3.62858 6.98627 3.70792 6.93069 3.76588C6.84731 3.85282 6.75197 3.98393 6.64467 4.1592C6.55321 4.34965 6.46579 4.48835 6.38241 4.57529C6.35461 4.60427 6.30501 4.64015 6.23359 4.68292L6.15021 4.76986L6.10852 4.81333C6.20773 4.74158 6.18188 4.80023 6.03095 4.9893C5.9912 5.06244 5.8999 5.14179 5.75706 5.22734C5.61422 5.31289 5.51501 5.38464 5.45942 5.4426C5.37604 5.52954 5.33629 5.60268 5.34017 5.66204L4.29792 6.74878C4.27013 6.77776 4.20663 6.82813 4.10741 6.89988L3.27362 7.76928C3.13078 7.85483 3.01767 7.94107 2.93429 8.02801C2.82312 8.14393 2.6722 8.33299 2.48152 8.5952C2.33447 8.84362 2.20536 9.02579 2.09419 9.14171C1.92743 9.31559 1.68133 9.52465 1.3559 9.76889C1.05826 9.98415 0.869853 10.0538 0.790682 9.97789C0.74318 9.93233 0.697782 9.80534 0.654488 9.59691C0.627028 9.40367 0.57565 9.29877 0.500355 9.28219C0.508439 9.17867 0.55417 9.08344 0.63755 8.9965L0.804308 8.82262C0.875728 8.77985 0.925335 8.74397 0.953128 8.71499C1.00871 8.65703 1.05638 8.59148 1.09614 8.51834C1.13589 8.44519 1.16966 8.39413 1.19745 8.36515C1.28083 8.27821 1.44161 8.12641 1.67979 7.90976C1.9338 7.70829 2.1025 7.56409 2.18588 7.47715C2.21367 7.44817 2.26134 7.38262 2.32889 7.28049L2.49564 7.10661C2.55123 7.04865 2.67824 6.94792 2.87666 6.80441C3.09093 6.67609 3.23975 6.56846 3.32312 6.48152L3.57326 6.2207C3.60106 6.19172 3.61899 6.12547 3.62708 6.02195C3.67879 5.90464 3.73244 5.81701 3.78802 5.75905L4.10941 5.56657L4.23448 5.43616C4.31786 5.34922 4.43695 5.24089 4.59175 5.11118C4.74655 4.98146 4.86564 4.87314 4.94902 4.7862C5.0324 4.69926 5.11384 4.58264 5.19335 4.43635C5.27285 4.29006 5.34039 4.18793 5.39598 4.12997C5.45157 4.07202 5.52897 4.00716 5.62818 3.9354C5.77102 3.84986 5.85634 3.79259 5.88413 3.76361C6.27323 3.35789 6.60692 2.89903 6.88518 2.38701C6.92493 2.31386 6.91912 2.22484 6.86774 2.11993C6.8493 2.07337 6.84687 2.02718 6.86045 1.98137C6.30733 2.18624 5.50222 2.37104 4.44513 2.53579C4.40139 2.54962 4.31488 2.59216 4.18559 2.66341C4.07023 2.72013 3.98275 2.74779 3.92313 2.7464C3.89332 2.7457 3.72239 2.74913 3.41036 2.75668C3.09833 2.76423 2.79423 2.7794 2.49808 2.80217C2.21585 2.81042 2.0668 2.80694 2.05093 2.79171C2.03505 2.77648 2.02517 2.73912 2.02128 2.67961C2.03522 2.66508 2.02631 2.64259 1.99455 2.61213C1.9628 2.58168 1.88034 2.57232 1.74717 2.58406C1.62792 2.58127 1.54449 2.55704 1.49686 2.51136C1.21109 2.23729 1.14483 2.02034 1.2981 1.86053C1.36777 1.78789 1.70265 1.7883 2.30273 1.86176C2.93263 1.93592 3.28435 1.96643 3.35791 1.9533L3.84394 1.87555C3.87375 1.87624 3.91944 1.89217 3.981 1.92332C4.07237 1.95517 4.13896 1.9493 4.18076 1.90571C4.14901 1.87526 4.15403 1.83824 4.19583 1.79465C4.26744 1.75176 4.37778 1.73207 4.52683 1.73555C4.70568 1.73974 4.83189 1.73527 4.90545 1.72213C5.2852 1.61218 5.82406 1.43168 6.52202 1.18063C7.24978 0.930281 7.68333 0.732462 7.82267 0.587176L8.07005 0.615248C8.21911 0.618736 8.37917 0.563064 8.55026 0.44823C8.73723 0.348623 8.9122 0.2933 9.07519 0.282259C9.2521 0.25669 9.44376 0.342876 9.65015 0.540817C9.69778 0.586496 9.73536 0.706212 9.76289 0.899968C9.82024 1.09442 9.85085 1.2214 9.85474 1.28091C9.53715 2.34301 9.36619 3.02975 9.34188 3.34113C9.33183 3.41517 9.29974 3.60753 9.24562 3.91821C9.2213 4.22959 9.20898 4.49669 9.20864 4.7195C9.22224 4.92778 9.27861 5.10736 9.37776 5.25822L9.38067 5.30286L9.33887 5.34644C9.21963 5.34365 9.15304 5.34952 9.13911 5.36405ZM3.58389 2.33738L3.58972 2.42665C3.61953 2.42734 3.6414 2.42043 3.65534 2.4059L3.58389 2.33738Z" fill="#B64B4B"/>
</svg>
