<svg width="230" height="122" viewBox="0 0 230 122" fill="none" xmlns="http://www.w3.org/2000/svg">
<path d="M77.7816 0.575998C77.9736 0.575998 78.2296 0.511997 78.5496 0.383995C78.8696 0.191998 79.0936 0.0959988 79.2216 0.0959988C79.3496 0.0959988 79.5736 0.191998 79.8936 0.383995C79.9576 0.383995 80.0536 0.351995 80.1816 0.287996C80.3096 0.159998 80.4056 0.0959988 80.4696 0.0959988C80.6616 0.0959988 80.9176 0.191998 81.2376 0.383995C81.5576 0.511997 81.8136 0.575998 82.0056 0.575998L82.2936 0.479994C82.4216 0.479994 82.5176 0.479994 82.5816 0.479994L82.6776 0.575998C82.8056 0.639997 82.9016 0.671997 82.9656 0.671997C83.0296 0.671997 83.1576 0.639997 83.3496 0.575998C83.5416 0.447996 83.7016 0.383995 83.8296 0.383995C83.8936 0.383995 83.9896 0.415995 84.1176 0.479994L84.3096 0.575998C84.3736 0.575998 84.4376 0.575998 84.5016 0.575998C84.6296 0.511995 84.7256 0.479994 84.7896 0.479994C84.9176 0.479994 85.0456 0.543995 85.1736 0.671997C85.3016 0.735996 85.4296 0.767996 85.5576 0.767996C85.6856 0.767996 85.8456 0.735996 86.0376 0.671997C86.2296 0.607998 86.3576 0.575998 86.4216 0.575998C86.5496 0.575998 86.7416 0.607998 86.9976 0.671997C87.3176 0.671997 87.5416 0.671997 87.6696 0.671997H87.9576C88.2776 0.991997 88.5336 1.152 88.7256 1.152C88.7896 1.152 88.8856 1.12 89.0136 1.056C89.1416 0.927996 89.2696 0.863995 89.3976 0.863995C89.6536 0.863995 90.0696 0.959995 90.6456 1.152C91.2216 1.27999 91.6376 1.34399 91.8936 1.34399C91.9576 1.34399 92.0216 1.31199 92.0856 1.248C92.2136 1.12 92.3096 1.056 92.3736 1.056C92.5016 1.056 93.2056 1.216 94.4856 1.536C95.7656 1.856 96.5336 2.048 96.7896 2.112C96.9816 2.112 97.2056 2.144 97.4616 2.20799C97.7816 2.272 98.0056 2.304 98.1336 2.304C98.1976 2.304 98.2936 2.272 98.4216 2.20799C98.5496 2.144 98.6456 2.112 98.7096 2.112C98.9016 2.112 99.2536 2.272 99.7656 2.592C100.342 2.848 100.79 3.008 101.11 3.07199C102.71 3.64799 104.15 4.064 105.43 4.32C105.75 4.384 106.55 4.73599 107.83 5.37599C109.174 6.016 110.038 6.4 110.422 6.528C110.678 6.65599 111.19 7.00799 111.958 7.58399C112.79 8.09599 113.43 8.384 113.878 8.44799L114.838 8.544C115.35 9.12 115.67 9.472 115.798 9.6C115.798 9.664 115.862 9.696 115.99 9.696C116.054 9.696 116.086 9.696 116.086 9.696L116.278 9.6C116.342 9.6 116.406 9.664 116.47 9.79199L116.566 9.984C117.142 10.176 118.518 11.296 120.694 13.344C122.87 15.328 123.958 16.544 123.958 16.992C123.958 17.056 123.926 17.152 123.862 17.28C123.798 17.344 123.766 17.408 123.766 17.472C123.766 17.6 123.894 17.888 124.15 18.336C124.406 18.72 124.534 19.04 124.534 19.296C124.534 19.36 124.598 19.424 124.726 19.488C124.854 19.488 124.918 19.552 124.918 19.68C124.918 19.808 124.886 19.936 124.822 20.064C124.758 20.192 124.726 20.288 124.726 20.352C124.726 20.544 124.822 20.896 125.014 21.408C125.27 21.92 125.398 22.272 125.398 22.464C125.398 22.528 125.334 22.624 125.206 22.752L125.014 22.944V23.712C124.886 23.84 124.822 23.936 124.822 24L125.11 24.288C125.11 24.352 125.014 24.448 124.822 24.576C124.694 24.64 124.63 24.704 124.63 24.768C124.63 24.832 124.662 24.928 124.726 25.056C124.79 25.12 124.822 25.184 124.822 25.248C124.822 25.376 124.726 25.504 124.534 25.632C124.406 25.76 124.342 25.856 124.342 25.92V26.208C124.342 26.272 124.342 26.368 124.342 26.496C124.406 26.624 124.438 26.72 124.438 26.784C124.438 27.04 124.118 27.68 123.478 28.704C122.838 29.728 122.102 30.88 121.27 32.16C120.438 33.376 119.99 34.048 119.926 34.176C119.35 35.072 118.614 36 117.718 36.96C116.886 37.92 116.214 38.656 115.702 39.168C115.19 39.616 114.294 40.416 113.014 41.568C111.734 42.72 110.934 43.424 110.614 43.68L109.462 44.736C109.206 44.8 108.822 45.056 108.31 45.504C107.862 45.888 107.478 46.112 107.158 46.176C106.71 46.624 105.974 47.2 104.95 47.904C103.926 48.544 103.222 49.12 102.838 49.632C102.262 49.824 101.59 50.24 100.822 50.88C100.118 51.52 99.6696 51.904 99.4776 52.032C99.0936 52.096 98.6776 52.256 98.2296 52.512C97.7816 52.704 97.2376 53.056 96.5976 53.568C96.0216 54.08 95.7016 54.336 95.6376 54.336C94.6776 55.04 92.1176 56.544 87.9576 58.848C83.8616 61.088 81.5256 62.208 80.9496 62.208L80.6616 62.112C80.5336 62.816 79.1256 63.616 76.4376 64.512C76.3096 64.512 76.0856 64.576 75.7656 64.704C75.4456 64.832 75.2216 64.896 75.0936 64.896C73.7496 65.792 72.9496 66.24 72.6936 66.24C72.6296 66.24 72.5656 66.208 72.5016 66.144H72.4056C72.2776 66.144 71.8296 66.4 71.0616 66.912C70.2936 67.424 69.7816 67.68 69.5256 67.68C69.3976 67.68 69.3016 67.616 69.2376 67.488C69.2376 67.296 69.2056 67.2 69.1416 67.2L68.9496 67.296V67.776L68.8536 67.968C68.5336 68.16 67.1256 68.8 64.6296 69.888C62.1976 70.912 60.8536 71.424 60.5976 71.424L60.5016 71.328C60.4376 71.328 60.3736 71.328 60.3096 71.328C60.0536 71.52 59.7336 71.712 59.3496 71.904C59.0296 72.032 58.8376 72.128 58.7736 72.192C57.9416 72.256 56.6616 72.704 54.9336 73.536C53.2056 74.368 51.9896 74.784 51.2856 74.784C51.2216 74.784 51.1896 74.752 51.1896 74.688L50.9976 74.592C50.8696 74.592 50.6456 74.688 50.3256 74.88C50.0696 75.008 49.8456 75.072 49.6536 75.072C48.3736 75.712 47.5736 76.032 47.2536 76.032C47.1896 76.032 47.0936 76 46.9656 75.936H46.8696C46.8056 75.936 46.7096 75.968 46.5816 76.032L46.4856 76.128H45.7176C45.2056 76.384 44.8536 76.512 44.6616 76.512C44.5976 76.512 44.5016 76.48 44.3736 76.416C44.3096 76.352 44.2456 76.32 44.1816 76.32C44.0536 76.512 43.4456 76.736 42.3576 76.992C41.2696 77.184 40.2456 77.408 39.2856 77.664C38.3256 77.856 37.8456 78.048 37.8456 78.24V78.816C37.8456 78.944 37.7176 79.04 37.4616 79.104C37.2696 79.168 37.1736 79.232 37.1736 79.296C37.1736 79.36 37.1736 79.424 37.1736 79.488C37.2376 79.552 37.2696 79.616 37.2696 79.68C37.2696 79.744 37.2376 79.776 37.1736 79.776H36.7896C36.7256 79.776 36.6936 79.84 36.6936 79.968L36.7896 80.064C36.7896 80.128 36.7896 80.192 36.7896 80.256C36.6616 80.384 36.5016 80.64 36.3096 81.024C36.1176 81.408 35.9256 81.76 35.7336 82.08C35.5416 82.4 35.4136 82.56 35.3496 82.56C35.2856 82.56 35.1576 82.528 34.9656 82.464C34.9656 82.528 34.9976 82.592 35.0616 82.656L35.1576 82.752C35.1576 83.008 34.9336 83.488 34.4856 84.192C34.0376 84.96 33.6856 85.344 33.4296 85.344C33.3656 85.344 33.3016 85.312 33.2376 85.248L33.1416 85.344C33.2056 85.472 33.2376 85.6 33.2376 85.728C33.2376 86.176 32.9816 86.848 32.4696 87.744C32.0216 88.64 31.6056 89.28 31.2216 89.664L30.6456 90.336C30.5816 90.4 30.5496 90.464 30.5496 90.528L30.6456 90.624C30.6456 90.688 30.6456 90.752 30.6456 90.816C30.5816 90.944 30.4856 91.136 30.3576 91.392C30.2296 91.712 30.1016 91.936 29.9736 92.064C29.8456 92.192 29.6856 92.288 29.4936 92.352C28.7256 93.504 28.1816 94.368 27.8616 94.944C27.8616 95.2 27.6376 95.456 27.1896 95.712C25.5896 98.4 23.6696 101.184 21.4296 104.064C20.9176 105.152 20.5336 105.76 20.2776 105.888C19.5736 106.272 18.6456 107.616 17.4936 109.92C16.4056 112.224 15.4136 114.4 14.5176 116.448C13.6216 118.56 13.0456 119.616 12.7896 119.616L12.4056 119.424C12.2136 119.424 12.0216 119.744 11.8296 120.384C11.5736 121.024 11.2856 121.344 10.9656 121.344C10.5816 121.344 10.2936 121.152 10.1016 120.768C9.84562 120.448 9.71762 120.096 9.71762 119.712C9.71762 119.392 9.90962 118.432 10.2936 116.832C10.6136 115.232 10.8376 114.432 10.9656 114.432C11.0296 114.432 11.1256 114.464 11.2536 114.528C12.0216 114.528 13.4616 111.68 15.5736 105.984V105.792C15.5736 105.728 15.5416 105.632 15.4776 105.504V105.312C15.4776 104.672 15.7336 103.584 16.2456 102.048C16.7576 100.576 17.0136 99.488 17.0136 98.784C17.0136 98.72 16.9816 98.624 16.9176 98.496C16.8536 98.368 16.8216 98.272 16.8216 98.208C16.8216 98.08 16.8536 97.888 16.9176 97.632C16.9816 97.376 17.0136 97.216 17.0136 97.152C17.0136 97.088 16.9816 96.992 16.9176 96.864L16.8216 96.768C16.8216 96.64 16.8536 96.48 16.9176 96.288C17.0456 96.16 17.1096 96.064 17.1096 96V94.464C17.1096 94.272 17.0136 94.048 16.8216 93.792C16.8216 93.728 16.8536 93.664 16.9176 93.6L17.0136 93.408L16.9176 93.024L17.0136 92.832V92.64V90.816C16.8856 90.688 16.8216 90.56 16.8216 90.432C16.8216 90.368 16.8536 90.272 16.9176 90.144C16.9176 89.952 16.9496 89.856 17.0136 89.856L16.9176 89.568C16.9176 89.248 17.0136 88.992 17.2056 88.8C17.2056 88.736 17.2056 88.544 17.2056 88.224C17.2696 87.968 17.3016 87.776 17.3016 87.648C17.3016 87.584 17.2376 87.552 17.1096 87.552C16.9176 87.552 16.8216 87.488 16.8216 87.36C16.6296 86.4 16.5336 85.888 16.5336 85.824C16.5336 85.504 16.6616 85.344 16.9176 85.344C16.5336 85.28 16.3416 84.736 16.3416 83.712C16.3416 83.648 16.3736 83.552 16.4376 83.424L16.3416 83.136V81.984C16.1496 81.792 16.0536 81.536 16.0536 81.216C16.0536 81.152 16.0856 81.056 16.1496 80.928C16.2136 80.8 16.2456 80.672 16.2456 80.544V80.16C16.1816 80.096 16.1176 80.032 16.0536 79.968C15.8616 79.84 15.7336 79.712 15.6696 79.584C15.7336 79.264 15.6696 78.784 15.4776 78.144C15.3496 77.504 15.2856 77.024 15.2856 76.704C15.2856 76.384 15.3176 76.192 15.3816 76.128C15.1256 76 14.9976 75.808 14.9976 75.552L15.0936 75.456C15.1576 75.392 15.1896 75.328 15.1896 75.264C15.1896 74.944 14.9656 74.016 14.5176 72.48C14.1336 70.88 13.8776 69.92 13.7496 69.6C13.5576 66.784 13.0136 64.928 12.1176 64.032C12.1816 63.776 12.0856 63.424 11.8296 62.976C11.5736 62.528 11.4456 62.24 11.4456 62.112C11.4456 61.984 11.5096 61.824 11.6376 61.632C11.7016 61.44 11.7336 61.312 11.7336 61.248C11.7336 61.184 11.6056 61.12 11.3496 61.056C11.0936 60.992 10.9656 60.864 10.9656 60.672C10.9656 60.608 10.9976 60.544 11.0616 60.48C11.1256 60.416 11.1576 60.352 11.1576 60.288C11.1576 59.968 10.8696 59.392 10.2936 58.56C9.65362 57.664 9.33362 57.024 9.33362 56.64C9.33362 56.576 9.36562 56.512 9.42962 56.448C9.49362 56.384 9.52562 56.32 9.52562 56.256L9.33362 56.16L8.94962 56.352L8.85362 56.256C8.85362 56.192 8.88562 56.128 8.94962 56.064L9.04562 55.968C9.04562 55.712 8.85362 55.392 8.46962 55.008C8.08562 54.624 7.92562 54.272 7.98962 53.952L7.60562 53.568C7.60562 53.504 7.60562 53.472 7.60562 53.472L7.70162 53.28L7.31762 52.896C7.31762 52.64 7.18962 52.32 6.93362 51.936C6.67762 51.488 6.54962 51.168 6.54962 50.976L6.64562 50.88H7.41362C7.41362 51.008 7.47762 51.072 7.60562 51.072C7.66962 51.072 7.76562 51.008 7.89362 50.88C7.95762 50.752 8.02162 50.688 8.08562 50.688C8.34162 50.688 8.72562 51.232 9.23762 52.32C9.68562 53.344 9.97362 53.92 10.1016 54.048C10.1016 54.112 10.0696 54.176 10.0056 54.24L9.90962 54.432C9.90962 54.624 10.0696 54.912 10.3896 55.296C10.6456 55.616 10.7736 55.904 10.7736 56.16V56.352L10.6776 56.544C10.7416 56.8 11.0296 57.248 11.5416 57.888C12.0536 58.528 12.3096 59.008 12.3096 59.328C12.3096 59.392 12.2776 59.488 12.2136 59.616C12.1496 59.744 12.1176 59.84 12.1176 59.904C13.0776 60.864 13.5576 61.632 13.5576 62.208C13.5576 62.528 13.3976 62.688 13.0776 62.688C12.8216 62.688 12.6936 62.72 12.6936 62.784C12.6936 62.912 12.7896 62.976 12.9816 62.976L13.1736 62.88C13.2376 62.88 13.3016 62.88 13.3656 62.88C13.4296 62.88 13.5576 63.008 13.7496 63.264C13.9416 63.52 14.0696 63.648 14.1336 63.648C14.0696 63.776 14.0376 64.128 14.0376 64.704C14.0376 64.832 14.1016 64.96 14.2296 65.088C14.4216 65.152 14.5176 65.216 14.5176 65.28C14.5176 65.408 14.4216 65.504 14.2296 65.568C14.1016 65.632 14.0376 65.696 14.0376 65.76C14.0376 65.824 14.1336 65.888 14.3256 65.952H14.5176L14.8056 66.336C14.8056 66.464 14.7736 66.592 14.7096 66.72V66.816C14.7096 66.88 14.7736 66.944 14.9016 67.008C15.0296 67.072 15.0936 67.136 15.0936 67.2C15.0936 67.264 15.0616 67.392 14.9976 67.584C14.9976 67.776 14.9976 67.904 14.9976 67.968V68.16L15.2856 68.448C15.3496 68.512 15.3816 68.928 15.3816 69.696C15.7656 70.464 15.9576 71.232 15.9576 72C16.0856 72.256 16.2136 72.448 16.3416 72.576C16.3416 72.704 16.2136 72.8 15.9576 72.864C15.7656 72.928 15.7016 73.024 15.7656 73.152C15.7656 73.28 15.8616 73.376 16.0536 73.44C16.2456 73.44 16.4056 73.472 16.5336 73.536C16.7256 73.6 16.7896 73.728 16.7256 73.92L16.5336 74.208C16.8536 74.72 17.0136 75.36 17.0136 76.128C17.0136 76.256 16.9816 76.448 16.9176 76.704C16.9176 76.896 16.9176 77.024 16.9176 77.088C16.9176 77.28 17.0456 77.44 17.3016 77.568C17.3016 77.888 17.3656 78.08 17.4936 78.144V78.912C17.5576 79.04 17.6536 79.264 17.7816 79.584C17.9736 79.84 18.0696 80 18.0696 80.064C18.0696 80.128 17.9736 80.192 17.7816 80.256C17.6536 80.32 17.5896 80.384 17.5896 80.448C17.5896 80.512 17.6536 80.608 17.7816 80.736C17.9096 80.864 17.9736 80.96 17.9736 81.024V81.504L17.8776 81.6H17.4936L17.3016 81.792C17.3016 81.856 17.4616 81.952 17.7816 82.08C18.1016 82.208 18.2616 82.368 18.2616 82.56V82.848L18.1656 83.04C18.1656 83.296 18.2296 83.616 18.3576 84C18.4856 84.384 18.5496 84.672 18.5496 84.864C18.5496 84.928 18.5176 84.992 18.4536 85.056C18.3896 85.184 18.3576 85.28 18.3576 85.344C18.3576 85.472 18.4216 85.6 18.5496 85.728V86.688C18.5496 86.752 18.6136 86.848 18.7416 86.976C18.8696 87.168 18.9336 87.328 18.9336 87.456C18.9336 87.52 18.9016 87.584 18.8376 87.648C18.7736 87.776 18.7416 87.872 18.7416 87.936C18.7416 88 18.7416 88.096 18.7416 88.224L18.8376 88.32C18.8376 88.448 18.8056 88.576 18.7416 88.704C18.6776 88.832 18.6456 88.928 18.6456 88.992C18.6456 89.248 18.7096 89.632 18.8376 90.144C19.0296 90.72 19.1256 91.168 19.1256 91.488C19.1256 91.616 19.1576 91.68 19.2216 91.68C19.2216 91.808 19.1576 91.872 19.0296 91.872C18.9016 91.936 18.8376 92 18.8376 92.064C19.1576 92.256 19.3176 92.768 19.3176 93.6C19.3176 93.728 19.2856 93.92 19.2216 94.176C19.1576 94.432 19.1256 94.656 19.1256 94.848V96.288C19.1256 96.48 19.1576 96.8 19.2216 97.248C19.3496 97.696 19.4136 98.048 19.4136 98.304V99.84C19.4136 100.096 19.2856 100.352 19.0296 100.608C18.7736 100.928 18.6456 101.184 18.6456 101.376C18.6456 101.504 18.6776 101.632 18.7416 101.76C18.8056 101.888 18.8376 101.984 18.8376 102.048C18.8376 102.176 18.7736 102.304 18.6456 102.432C18.5176 102.56 18.4536 102.656 18.4536 102.72C18.4536 102.784 18.5176 102.944 18.6456 103.2C18.7736 103.456 18.8696 103.584 18.9336 103.584C19.0616 103.584 19.2216 103.424 19.4136 103.104C19.6696 102.784 19.8616 102.592 19.9896 102.528C20.0536 102.4 20.2776 102.048 20.6616 101.472C21.1096 100.96 21.3016 100.576 21.2376 100.32C21.4296 99.744 21.6856 99.456 22.0056 99.456C22.0696 99.456 22.1336 99.488 22.1976 99.552C22.2616 99.68 22.3256 99.744 22.3896 99.744C22.7096 99.744 22.8696 99.648 22.8696 99.456C22.8696 99.392 22.8376 99.296 22.7736 99.168C22.7736 99.104 22.7416 99.104 22.6776 99.168L22.3896 99.264H22.2936C22.2936 98.752 22.3896 98.496 22.5816 98.496L23.3496 97.728C23.4136 97.28 23.8936 96.48 24.7896 95.328C25.6856 94.24 26.2936 93.696 26.6136 93.696C27.0616 93.248 27.2856 92.96 27.2856 92.832L27.1896 92.736C27.1256 92.672 27.0936 92.608 27.0936 92.544C27.0936 91.968 27.5416 91.232 28.4376 90.336V89.952C29.7176 88.928 30.3576 88.096 30.3576 87.456C30.3576 87.392 30.3256 87.296 30.2616 87.168L30.1656 86.976C30.1656 86.848 30.1976 86.784 30.2616 86.784C30.6456 86.4 31.0616 85.696 31.5096 84.672C31.9576 83.712 32.4056 83.04 32.8536 82.656C32.9176 82.656 32.9496 82.656 32.9496 82.656C32.9496 82.592 32.9816 82.56 33.0456 82.56C33.0456 82.304 33.2056 81.952 33.5256 81.504C33.8456 80.992 34.1656 80.544 34.4856 80.16C34.8696 79.712 35.0616 79.456 35.0616 79.392C34.9976 79.392 34.9656 79.36 34.9656 79.296L34.8696 79.104C34.8696 79.04 34.9016 78.944 34.9656 78.816L35.0616 78.72C35.0616 78.656 35.0296 78.592 34.9656 78.528C34.9016 78.4 34.8696 78.304 34.8696 78.24C34.7416 78.24 34.4536 78.368 34.0056 78.624C33.5576 78.88 33.2696 79.008 33.1416 79.008C33.0136 79.008 32.8856 78.944 32.7576 78.816C32.6296 78.688 32.5336 78.624 32.4696 78.624C32.4056 78.624 32.2776 78.688 32.0856 78.816C31.8936 78.944 31.7336 79.008 31.6056 79.008C31.2856 79.008 31.1256 78.88 31.1256 78.624C31.1256 78.56 31.1256 78.496 31.1256 78.432C31.1896 78.368 31.2216 78.304 31.2216 78.24C31.0936 78.176 30.9976 78.144 30.9336 78.144V78.528L30.6456 78.624C30.4536 78.624 30.3576 78.688 30.3576 78.816L30.4536 78.912C30.5176 78.976 30.5496 79.04 30.5496 79.104C30.5496 79.232 30.4856 79.296 30.3576 79.296C30.2296 79.296 30.1016 79.264 29.9736 79.2C29.9096 79.072 29.8456 79.008 29.7816 79.008L29.6856 79.104H29.4936C29.3016 79.104 29.2056 79.072 29.2056 79.008C29.1416 79.008 29.1096 79.008 29.1096 79.008L28.9176 79.104H26.5176C26.3896 79.104 26.1976 79.072 25.9416 79.008C25.6856 78.944 25.4616 78.912 25.2696 78.912C25.1416 78.912 24.9816 78.976 24.7896 79.104C24.5976 79.168 24.4696 79.2 24.4056 79.2C24.3416 79.2 24.0216 79.104 23.4456 78.912C22.9336 78.72 22.5176 78.56 22.1976 78.432C21.8776 78.24 21.6856 78.016 21.6216 77.76C21.2376 77.696 20.8216 77.344 20.3736 76.704C19.9896 76 19.7976 75.456 19.7976 75.072C19.7976 75.008 19.8616 74.912 19.9896 74.784C20.1176 74.656 20.1816 74.56 20.1816 74.496C20.1816 74.432 20.1176 74.368 19.9896 74.304C19.9256 74.24 19.8936 74.176 19.8936 74.112C19.8296 74.112 19.7976 74.016 19.7976 73.824C19.7976 73.44 19.9576 72.896 20.2776 72.192C20.6616 71.488 20.8536 70.976 20.8536 70.656V70.176C20.8536 70.048 20.9816 69.952 21.2376 69.888C21.4936 69.76 21.6216 69.632 21.6216 69.504C21.6216 69.44 21.5896 69.376 21.5256 69.312C21.4616 69.184 21.4296 69.088 21.4296 69.024C21.4296 68.896 21.5256 68.768 21.7176 68.64C21.9736 68.512 22.1016 68.352 22.1016 68.16C22.1016 67.968 22.0696 67.872 22.0056 67.872C22.0056 67.936 21.9416 67.968 21.8136 67.968L21.6216 68.064C21.4936 68.064 21.4296 67.968 21.4296 67.776C21.4296 67.584 21.5256 67.488 21.7176 67.488C21.7816 67.488 21.8456 67.52 21.9096 67.584C21.9736 67.584 22.0376 67.584 22.1016 67.584C22.2296 67.584 22.3576 67.552 22.4856 67.488C22.6776 67.424 22.9016 67.392 23.1576 67.392C23.2216 67.328 23.3176 67.168 23.4456 66.912C23.6376 66.592 23.9256 66.432 24.3096 66.432C24.5656 66.56 24.6936 66.816 24.6936 67.2C24.6936 67.392 24.4056 67.648 23.8296 67.968C23.3176 68.224 23.0616 68.448 23.0616 68.64C23.0616 68.704 23.1256 68.768 23.2536 68.832C23.4456 68.896 23.5416 68.992 23.5416 69.12C23.4776 69.184 23.3176 69.344 23.0616 69.6C22.8696 69.856 22.7736 70.016 22.7736 70.08V70.656C22.7736 70.784 22.6456 70.944 22.3896 71.136C22.1336 71.264 22.0056 71.456 22.0056 71.712L22.1016 71.904C22.1656 72.032 22.1976 72.128 22.1976 72.192C22.1976 72.32 22.0696 72.48 21.8136 72.672C21.6216 72.8 21.5256 72.896 21.5256 72.96C21.5256 73.088 21.5576 73.248 21.6216 73.44C21.7496 73.632 21.8136 73.792 21.8136 73.92C21.8136 73.984 21.7816 74.08 21.7176 74.208C21.7176 74.336 21.7176 74.432 21.7176 74.496C21.7176 74.816 21.8456 75.008 22.1016 75.072C22.1016 76.096 22.9016 76.608 24.5016 76.608C24.8216 76.608 25.2696 76.672 25.8456 76.8C26.4856 76.928 26.9336 76.992 27.1896 76.992C27.3176 76.992 27.4136 76.96 27.4776 76.896H29.1096C29.2376 77.024 29.3976 77.088 29.5896 77.088C29.8456 77.088 30.1976 77.056 30.6456 76.992C31.1576 76.864 31.5416 76.8 31.7976 76.8C31.9256 76.8 32.1176 76.864 32.3736 76.992C32.6296 77.056 32.8216 77.088 32.9496 77.088C33.0136 77.088 33.1736 76.992 33.4296 76.8C33.6856 76.608 33.8776 76.512 34.0056 76.512L34.1976 76.608C34.2616 76.608 34.3576 76.576 34.4856 76.512H34.6776C34.7416 76.512 34.8056 76.544 34.8696 76.608C34.9976 76.672 35.0936 76.704 35.1576 76.704C35.2216 76.704 35.3176 76.64 35.4456 76.512C35.5736 76.384 35.7016 76.32 35.8296 76.32C35.8936 76.32 35.9576 76.384 36.0216 76.512C36.1496 76.576 36.2456 76.608 36.3096 76.608C36.4376 76.608 36.5016 76.48 36.5016 76.224C36.5656 76.224 36.6616 76.256 36.7896 76.32L36.8856 76.416C37.0136 76.416 37.3656 75.936 37.9416 74.976C38.5816 73.952 38.9976 73.44 39.1896 73.44C39.2536 73.44 39.3176 73.472 39.3816 73.536C39.4456 73.536 39.5096 73.536 39.5736 73.536C39.5736 73.472 39.5096 73.408 39.3816 73.344C39.3176 73.216 39.2856 73.12 39.2856 73.056C39.2856 72.928 39.3816 72.768 39.5736 72.576C39.7656 72.32 39.9896 72.064 40.2456 71.808C40.5656 71.552 40.7576 71.36 40.8216 71.232L42.2616 68.448C43.8616 66.208 44.5976 64.864 44.4696 64.416C44.4696 64.352 44.5656 64.288 44.7576 64.224C45.0136 64.096 45.1416 64 45.1416 63.936V63.36C45.1416 63.104 45.8776 61.696 47.3496 59.136C48.8856 56.512 49.7816 55.072 50.0376 54.816C50.1656 54.176 50.5496 53.536 51.1896 52.896C52.6616 49.44 53.8776 47.136 54.8376 45.984C54.8376 45.856 54.9016 45.696 55.0296 45.504C55.1576 45.248 55.2856 45.024 55.4136 44.832L55.6056 44.64L55.4136 44.448C55.3496 44.32 55.3176 44.192 55.3176 44.064L55.7976 43.584V43.392L55.7016 43.2C55.7016 43.136 55.9576 42.624 56.4696 41.664C57.0456 40.704 57.3976 40.16 57.5256 40.032C58.1656 39.264 58.4856 38.72 58.4856 38.4C58.6136 38.336 58.7416 38.112 58.8696 37.728C58.8696 37.664 58.9656 37.6 59.1576 37.536C59.3496 37.408 59.4776 37.28 59.5416 37.152C59.5416 37.088 59.4776 37.024 59.3496 36.96C59.2856 36.832 59.2536 36.736 59.2536 36.672C59.2536 36.48 59.3496 36.32 59.5416 36.192C59.7336 36 59.8296 35.84 59.8296 35.712C59.8296 35.648 59.7976 35.616 59.7336 35.616L59.6376 35.424C59.6376 35.168 59.8616 34.784 60.3096 34.272C60.7576 33.76 60.9816 33.408 60.9816 33.216C60.9816 33.152 60.9496 33.088 60.8856 33.024C60.8216 32.96 60.7896 32.896 60.7896 32.832C60.7896 32.704 60.9176 32.48 61.1736 32.16C61.4936 31.776 61.6536 31.552 61.6536 31.488V30.624C61.6536 30.56 61.5896 30.496 61.4616 30.432C61.3976 30.368 61.3656 30.304 61.3656 30.24C61.3656 30.176 61.3976 30.016 61.4616 29.76C61.5896 29.504 61.6536 29.312 61.6536 29.184L61.3656 29.088C61.2376 28.96 61.1736 28.864 61.1736 28.8C61.2376 28.736 61.2696 28.672 61.2696 28.608C62.1656 27.84 62.8376 27.456 63.2856 27.456L63.4776 27.552C63.6056 27.616 63.7016 27.648 63.7656 27.648C63.8296 27.648 63.8936 27.616 63.9576 27.552C64.0856 27.488 64.1816 27.456 64.2456 27.456L66.0696 28.8L65.9736 28.896C65.9096 29.024 65.8776 29.12 65.8776 29.184C65.8776 29.44 65.9096 29.568 65.9736 29.568C65.9736 29.632 66.0376 29.76 66.1656 29.952C66.3576 30.08 66.4536 30.208 66.4536 30.336C66.4536 30.4 66.3896 30.56 66.2616 30.816C66.1336 31.072 66.0696 31.232 66.0696 31.296L65.8776 32.544C65.8136 32.672 65.5256 33.12 65.0136 33.888C64.5016 34.656 64.2136 35.072 64.1496 35.136C64.0856 35.2 63.8296 35.328 63.3816 35.52C62.9336 35.712 62.6776 35.904 62.6136 36.096L62.7096 36.288C62.7736 36.416 62.8056 36.512 62.8056 36.576C62.8056 36.704 62.4536 36.896 61.7496 37.152C61.1096 37.408 60.7896 37.728 60.7896 38.112C60.7896 38.176 60.8216 38.304 60.8856 38.496C60.9496 38.624 60.9816 38.72 60.9816 38.784C60.9816 38.912 60.8216 39.008 60.5016 39.072C60.2456 39.136 60.1176 39.264 60.1176 39.456C60.1176 39.52 60.2136 39.648 60.4056 39.84L60.3096 40.032H59.8296C59.7016 40.032 59.6376 40.224 59.6376 40.608C59.6376 40.672 59.6376 40.768 59.6376 40.896C59.7016 41.024 59.7336 41.12 59.7336 41.184C59.7336 41.44 59.5416 41.792 59.1576 42.24C58.7736 42.688 58.5496 42.976 58.4856 43.104C58.4216 43.168 58.2936 43.232 58.1016 43.296C57.9096 43.36 57.8136 43.456 57.8136 43.584C57.8136 43.648 57.8776 43.744 58.0056 43.872C58.1336 43.936 58.1976 44 58.1976 44.064C58.1976 44.256 58.1016 44.416 57.9096 44.544C57.7176 44.672 57.5256 44.768 57.3336 44.832C57.1416 44.832 57.0456 44.896 57.0456 45.024C57.0456 45.088 57.0776 45.152 57.1416 45.216V45.408C57.1416 45.472 57.0776 45.568 56.9496 45.696C56.8856 45.824 56.8536 45.92 56.8536 45.984L56.9496 46.08C56.9496 46.144 56.9496 46.208 56.9496 46.272C56.9496 46.528 56.6936 46.976 56.1816 47.616C55.6696 48.256 55.4136 48.736 55.4136 49.056C55.4136 49.12 55.4456 49.184 55.5096 49.248L55.6056 49.44C55.6056 49.568 55.4776 49.664 55.2216 49.728C55.0296 49.792 54.9336 49.856 54.9336 49.92C54.9336 50.304 54.2616 51.616 52.9176 53.856C51.6376 56.032 50.8056 57.184 50.4216 57.312V57.408C50.4856 57.472 50.5176 57.536 50.5176 57.6C50.5176 57.856 50.2616 58.272 49.7496 58.848C49.3016 59.424 49.0776 59.776 49.0776 59.904C49.0776 59.968 49.1096 60.032 49.1736 60.096L49.2696 60.192C49.2056 60.32 49.0776 60.48 48.8856 60.672C48.8216 60.8 48.6936 60.96 48.5016 61.152L48.2136 61.344L48.1176 61.536C48.1176 61.792 48.2456 61.952 48.5016 62.016C48.5016 62.208 48.3736 62.336 48.1176 62.4C47.9256 62.464 47.8296 62.528 47.8296 62.592C46.1656 65.408 45.2056 67.296 44.9496 68.256L44.2776 68.928C44.2776 69.376 44.0216 69.888 43.5096 70.464C42.9976 71.04 42.7416 71.456 42.7416 71.712V72.192C42.7416 72.256 42.6776 72.32 42.5496 72.384L42.2616 72.48C42.1976 72.928 41.8456 73.408 41.2056 73.92C40.6296 74.368 40.3416 74.784 40.3416 75.168C40.4056 75.36 40.5016 75.456 40.6296 75.456C40.8856 75.456 41.2376 75.36 41.6856 75.168C42.1336 74.976 42.4856 74.88 42.7416 74.88L42.8376 74.976C42.9016 75.04 42.9656 75.072 43.0296 75.072C44.4376 75.072 46.0056 74.56 47.7336 73.536C48.2456 73.536 48.5656 73.504 48.6936 73.44H48.9816C49.3016 73.248 49.4936 73.152 49.5576 73.152L49.6536 73.248C49.9096 72.992 50.3896 72.736 51.0936 72.48C51.4776 72.48 52.0536 72.32 52.8216 72C53.5896 71.616 54.1336 71.424 54.4536 71.424L54.6456 71.52C54.7096 71.52 54.7736 71.52 54.8376 71.52C55.0936 71.008 55.4456 70.752 55.8936 70.752C56.0856 70.752 56.2456 70.848 56.3736 71.04C56.5656 71.232 56.6936 71.328 56.7576 71.328C56.9496 71.264 57.0456 71.2 57.0456 71.136L56.7576 70.56H56.6616C56.6616 70.368 57.0136 70.272 57.7176 70.272C57.9736 70.016 58.1656 69.888 58.2936 69.888H59.1576C59.6696 69.376 60.2136 69.12 60.7896 69.12C60.8536 69.12 60.9176 69.152 60.9816 69.216C61.1096 69.28 61.2056 69.312 61.2696 69.312C61.5896 69.312 62.8376 68.704 65.0136 67.488C67.2536 66.272 68.6936 65.664 69.3336 65.664C69.3976 65.664 69.4616 65.696 69.5256 65.76C69.5896 65.76 69.9416 65.536 70.5816 65.088C71.2216 64.64 71.7016 64.448 72.0216 64.512C72.7256 64.128 73.1736 63.808 73.3656 63.552H73.6536C74.1656 63.552 75.1256 63.136 76.5336 62.304C77.9416 61.408 78.8696 60.96 79.3176 60.96C79.3816 60.96 79.4136 60.992 79.4136 61.056L79.6056 61.152C81.3336 60.576 83.4776 59.36 86.0376 57.504C87.1256 56.672 88.3736 56.032 89.7816 55.584C91.0616 54.816 91.7656 54.432 91.8936 54.432L91.9896 54.24C91.9896 54.176 92.0216 54.112 92.0856 54.048C92.2776 54.048 92.5016 53.952 92.7576 53.76C93.0136 53.504 93.2056 53.376 93.3336 53.376C93.8456 53.44 95.4136 52.48 98.0376 50.496C100.662 48.512 102.198 47.424 102.646 47.232L103.798 46.368C103.926 46.24 104.534 45.792 105.622 45.024C106.71 44.256 107.702 43.552 108.598 42.912C109.558 42.208 110.038 41.792 110.038 41.664C110.806 41.344 111.702 40.64 112.726 39.552C113.75 38.464 114.486 37.76 114.934 37.44C115.318 37.44 115.51 37.344 115.51 37.152V36.96C115.446 36.832 115.414 36.736 115.414 36.672C115.798 35.84 116.694 34.624 118.102 33.024C119.51 31.424 120.438 30.208 120.886 29.376C120.822 28.992 121.174 28.128 121.942 26.784C122.71 25.44 123.094 24.48 123.094 23.904C123.094 23.776 123.062 23.648 122.998 23.52C122.998 23.392 122.998 23.296 122.998 23.232C122.998 23.168 123.03 23.04 123.094 22.848C123.158 22.656 123.19 22.528 123.19 22.464C123.19 22.336 123.094 22.176 122.902 21.984C122.774 21.792 122.71 21.632 122.71 21.504V21.216C122.71 21.152 122.71 21.024 122.71 20.832C122.774 20.576 122.806 20.384 122.806 20.256C122.806 19.744 122.646 19.2 122.326 18.624C122.07 18.048 121.782 17.6 121.462 17.28C121.142 16.896 120.694 16.384 120.118 15.744C119.542 15.104 119.19 14.72 119.062 14.592C118.486 13.888 116.758 12.608 113.878 10.752C110.998 8.832 109.27 7.872 108.694 7.872C108.566 7.872 108.438 7.904 108.31 7.96799C108.182 7.96799 108.086 7.96799 108.022 7.96799C107.958 7.96799 106.998 7.584 105.142 6.816C103.286 5.984 102.358 5.536 102.358 5.472H101.686L101.302 5.184L101.11 5.088H99.8616L98.9976 4.224L98.8056 4.128C98.6776 4.128 98.5176 4.224 98.3256 4.41599C98.1976 4.544 98.0696 4.608 97.9416 4.608C97.8136 4.608 97.6856 4.544 97.5576 4.41599C97.4936 4.224 97.4296 4.128 97.3656 4.128C96.2776 4.128 95.2856 3.936 94.3896 3.55199H93.1416C93.0776 3.55199 92.9496 3.488 92.7576 3.36C92.5656 3.23199 92.4376 3.16799 92.3736 3.16799C92.3096 3.16799 92.2136 3.23199 92.0856 3.36C92.0216 3.424 91.9256 3.456 91.7976 3.456C91.6696 3.456 91.4136 3.35999 91.0296 3.16799C90.7096 2.976 90.4536 2.88 90.2616 2.88C90.1976 2.88 90.1016 2.944 89.9736 3.07199C89.9096 3.13599 89.8136 3.16799 89.6856 3.16799C89.3656 3.16799 88.7896 3.07199 87.9576 2.88C87.1256 2.624 86.5496 2.496 86.2296 2.496C86.1656 2.496 86.0376 2.592 85.8456 2.784H85.5576C85.4296 2.784 85.2696 2.72 85.0776 2.592C84.9496 2.4 84.8536 2.304 84.7896 2.304C84.7256 2.304 84.6296 2.368 84.5016 2.496C84.4376 2.56 84.3416 2.592 84.2136 2.592C84.0856 2.592 84.0216 2.56 84.0216 2.496C83.3176 2.496 82.9336 2.464 82.8696 2.4C82.7416 2.4 82.5816 2.368 82.3896 2.304C82.1976 2.24 82.0696 2.20799 82.0056 2.20799C81.8776 2.20799 81.7496 2.24 81.6216 2.304C81.5576 2.368 81.4936 2.4 81.4296 2.4C81.3656 2.4 81.2696 2.368 81.1416 2.304C81.0776 2.24 81.0136 2.20799 80.9496 2.20799C80.8216 2.20799 80.6936 2.304 80.5656 2.496C80.4376 2.62399 80.3096 2.68799 80.1816 2.68799C80.0536 2.68799 79.9256 2.592 79.7976 2.4C79.6696 2.208 79.5416 2.112 79.4136 2.112C79.2856 2.112 79.1256 2.176 78.9336 2.304C78.7416 2.432 78.6136 2.496 78.5496 2.496C78.4856 2.496 78.3896 2.464 78.2616 2.4L78.0696 2.304C78.0056 2.304 77.9096 2.336 77.7816 2.4C77.7176 2.464 77.6536 2.496 77.5896 2.496C77.3976 2.496 77.1736 2.432 76.9176 2.304C76.7256 2.112 76.5656 2.016 76.4376 2.016C76.3736 2.016 76.3416 2.048 76.3416 2.112L76.1496 2.20799H75.3816H75.1896C75.0616 2.272 74.9656 2.304 74.9016 2.304C74.8376 2.304 74.7416 2.272 74.6136 2.20799H74.5176C74.3896 2.336 74.2936 2.4 74.2296 2.4H73.2696C73.1416 2.336 72.9816 2.304 72.7896 2.304C72.7256 2.304 72.6296 2.368 72.5016 2.496C72.4376 2.56 72.3736 2.592 72.3096 2.592C72.1176 2.592 71.8296 2.56 71.4456 2.496C71.0616 2.432 70.7736 2.4 70.5816 2.4H70.2936C69.9736 2.72 69.5896 2.88 69.1416 2.88C68.7576 2.88 68.5656 2.816 68.5656 2.68799C68.3096 2.68799 67.9896 2.752 67.6056 2.88C67.2216 2.944 66.9336 2.976 66.7416 2.976C66.6776 2.976 66.5816 2.976 66.4536 2.976C66.3896 2.912 66.3256 2.88 66.2616 2.88C66.1976 2.88 66.0696 2.912 65.8776 2.976C65.6856 3.04 65.5576 3.07199 65.4936 3.07199C65.4296 3.07199 65.3016 3.04 65.1096 2.976C64.9816 2.912 64.8856 2.88 64.8216 2.88C64.6936 2.88 64.5656 2.976 64.4376 3.16799C64.3096 3.296 64.2136 3.36 64.1496 3.36C64.0856 3.36 63.9896 3.328 63.8616 3.264C63.6696 3.264 63.5736 3.232 63.5736 3.16799C63.3816 3.16799 63.1576 3.2 62.9016 3.264C62.7096 3.264 62.5176 3.264 62.3256 3.264C62.2616 3.264 62.1016 3.328 61.8456 3.456C61.6536 3.51999 61.4616 3.55199 61.2696 3.55199C61.2056 3.55199 61.0776 3.55199 60.8856 3.55199C60.6936 3.488 60.5656 3.456 60.5016 3.456C60.3096 3.456 60.0216 3.552 59.6376 3.744C59.3176 3.936 59.0616 4.03199 58.8696 4.03199C58.8056 4.03199 58.7096 3.99999 58.5816 3.936H58.3896C58.1976 3.936 57.9416 4.032 57.6216 4.224C57.3656 4.352 57.1736 4.41599 57.0456 4.41599C56.9816 4.41599 56.8856 4.384 56.7576 4.32L56.6616 4.224C56.4056 4.224 56.0536 4.448 55.6056 4.89599C55.4136 4.89599 55.1896 4.86399 54.9336 4.8C54.7416 4.736 54.5816 4.704 54.4536 4.704C54.1336 4.704 53.7176 4.8 53.2056 4.992C52.6936 5.184 52.3096 5.27999 52.0536 5.27999C51.9896 5.27999 51.8936 5.27999 51.7656 5.27999C51.7016 5.216 51.6376 5.184 51.5736 5.184L51.4776 5.37599C51.4136 5.504 51.3496 5.568 51.2856 5.568L50.9016 5.184L50.4216 5.664C50.2936 5.664 50.1016 5.76 49.8456 5.952C49.5896 6.08 49.3976 6.144 49.2696 6.144L49.0776 6.048H48.8856L48.6936 6.144C48.6296 6.20799 48.5656 6.23999 48.5016 6.23999C48.4376 6.23999 48.3096 6.20799 48.1176 6.144C47.9256 6.016 47.7656 5.952 47.6376 5.952C47.1256 5.952 46.6456 6.176 46.1976 6.62399C46.0056 6.68799 45.8136 6.752 45.6216 6.816C45.4296 6.816 45.2376 6.848 45.0456 6.912C44.8536 6.912 44.6936 6.912 44.5656 6.912C44.3096 6.976 44.0856 7.136 43.8936 7.392C43.7016 7.584 43.5736 7.68 43.5096 7.68C42.6776 7.552 41.7496 7.80799 40.7256 8.44799C40.5976 8.512 40.2456 8.544 39.6696 8.544C39.4136 8.608 39.0936 8.768 38.7096 9.024C38.3896 9.28 38.1976 9.408 38.1336 9.408L38.0376 9.31199C37.9736 9.31199 37.9096 9.31199 37.8456 9.31199C37.5896 9.31199 37.1736 9.504 36.5976 9.888C36.0856 10.208 35.6696 10.368 35.3496 10.368H35.0616C34.8056 10.624 34.4216 10.816 33.9096 10.944C33.3976 11.072 33.0456 11.2 32.8536 11.328H32.1816C32.1176 11.328 32.0856 11.392 32.0856 11.52L32.1816 11.616C32.2456 11.68 32.2776 11.744 32.2776 11.808C32.2136 11.808 32.0856 11.904 31.8936 12.096C31.7016 12.224 31.5736 12.288 31.5096 12.288C31.3816 12.352 31.0936 12.48 30.6456 12.672C30.1976 12.8 29.8136 12.864 29.4936 12.864C29.4296 12.864 29.3656 12.832 29.3016 12.768H29.1096C28.9816 12.768 28.7576 12.96 28.4376 13.344L27.9576 13.92H27.1896L26.9976 13.824C26.4216 14.528 25.7496 14.944 24.9816 15.072C24.5336 15.136 23.8616 15.488 22.9656 16.128C22.0696 16.768 21.2376 17.408 20.4696 18.048C19.7016 18.624 19.2856 18.912 19.2216 18.912C19.1576 18.912 19.0616 18.88 18.9336 18.816C18.8696 18.752 18.8056 18.72 18.7416 18.72C18.6136 18.72 18.4856 18.784 18.3576 18.912C18.2936 19.04 18.2296 19.232 18.1656 19.488C18.1016 19.68 18.0376 19.808 17.9736 19.872C17.7176 19.872 17.3016 20 16.7256 20.256C16.1496 20.512 15.7336 20.64 15.4776 20.64L15.3816 20.928L14.9016 21.504C14.5176 21.632 13.8776 22.144 12.9816 23.04C12.0216 23.936 11.2216 24.384 10.5816 24.384V24.864C10.5816 24.928 10.4536 25.024 10.1976 25.152C9.94162 25.28 9.81362 25.408 9.81362 25.536C9.81362 25.6 9.87762 25.664 10.0056 25.728C10.1336 25.792 10.1976 25.856 10.1976 25.92C9.42962 26.048 8.88562 26.464 8.56562 27.168C8.43762 27.232 8.30962 27.296 8.18162 27.36C7.98962 27.424 7.86162 27.488 7.79762 27.552C7.66962 27.616 7.60562 27.744 7.60562 27.936C7.54162 28.064 7.44562 28.224 7.31762 28.416C7.06162 28.864 6.70962 29.056 6.26162 28.992L6.06962 29.184C6.06962 29.248 6.13362 29.344 6.26162 29.472C6.32562 29.6 6.35762 29.728 6.35762 29.856C6.35762 29.984 6.16562 30.272 5.78162 30.72C5.39762 31.104 5.17362 31.424 5.10962 31.68C5.04562 31.872 4.72562 32.224 4.14962 32.736C3.57362 33.248 3.28562 33.536 3.28562 33.6C3.28562 33.728 3.34962 33.792 3.47762 33.792L3.66962 33.6C3.98962 33.6 4.14962 33.728 4.14962 33.984C4.14962 34.112 3.98962 34.176 3.66962 34.176C3.79762 34.624 3.57362 34.912 2.99762 35.04C3.25362 35.168 3.38162 35.264 3.38162 35.328C3.38162 35.52 3.28562 35.84 3.09362 36.288C2.90162 36.672 2.80562 36.96 2.80562 37.152L2.99762 37.44C3.12562 37.632 3.18962 37.792 3.18962 37.92C3.18962 38.112 3.12562 38.272 2.99762 38.4C2.99762 38.656 2.99762 38.944 2.99762 39.264C2.93362 39.52 2.90162 39.744 2.90162 39.936C2.90162 40.256 3.09362 40.736 3.47762 41.376C3.47762 41.76 3.63762 42.176 3.95762 42.624C4.27762 43.008 4.43762 43.328 4.43762 43.584V44.352C4.50162 44.416 4.62962 44.544 4.82162 44.736C5.01362 44.864 5.10962 44.96 5.10962 45.024C5.10962 45.216 4.98162 45.376 4.72562 45.504C4.40562 45.568 4.24562 45.632 4.24562 45.696C4.24562 45.76 4.27762 45.792 4.34162 45.792C4.34162 45.792 4.34162 45.824 4.34162 45.888C4.46962 45.888 4.53362 45.856 4.53362 45.792C4.72562 45.792 4.82162 45.824 4.82162 45.888L4.72562 45.984C4.66162 46.112 4.62962 46.208 4.62962 46.272C4.69362 46.336 4.75762 46.368 4.82162 46.368C4.88562 46.368 4.94962 46.272 5.01362 46.08C5.07762 45.824 5.17362 45.696 5.30162 45.696C5.62162 45.696 6.13362 46.368 6.83762 47.712C7.54162 48.992 7.89362 49.824 7.89362 50.208C7.63762 50.656 7.47762 50.88 7.41362 50.88L7.31762 50.784L6.74162 50.496C6.67762 50.496 6.58162 50.528 6.45362 50.592C6.26162 50.464 6.00562 50.08 5.68562 49.44C5.30162 48.736 5.04562 48.32 4.91762 48.192C4.85362 47.744 4.40562 47.04 3.57362 46.08C2.74162 45.056 2.35762 44.256 2.42162 43.68C1.65362 42.72 1.17362 41.504 0.981621 40.032C0.789621 39.904 0.693622 39.616 0.693622 39.168C0.693622 38.976 0.789621 38.848 0.981621 38.784C0.981621 38.72 0.949621 38.656 0.885621 38.592C0.757621 38.528 0.693622 38.464 0.693622 38.4C0.693622 38.144 0.661622 37.952 0.597621 37.824C0.725621 37.632 0.78962 37.504 0.78962 37.44C0.78962 37.248 0.757621 37.024 0.693622 36.768C0.629622 36.512 0.597621 36.288 0.597621 36.096C0.597621 35.456 0.949621 34.464 1.65362 33.12C2.35762 31.712 2.70962 30.848 2.70962 30.528C2.77362 30.4 3.25362 29.76 4.14962 28.608C5.04562 27.392 5.74962 26.528 6.26162 26.016C6.32562 26.016 6.45362 25.984 6.64562 25.92C6.77362 25.856 6.90162 25.824 7.02962 25.824L7.31762 25.728L7.12562 25.536C7.12562 25.28 7.28562 25.024 7.60562 24.768C7.92562 24.448 8.34162 24.16 8.85362 23.904C9.30162 23.648 9.55762 23.488 9.62162 23.424C9.87762 23.296 10.1336 23.104 10.3896 22.848C10.5816 22.528 10.8056 22.176 11.0616 21.792C11.2536 21.344 11.4136 21.056 11.5416 20.928C11.7976 20.608 12.5336 20.16 13.7496 19.584C15.0296 18.944 15.8616 18.432 16.2456 18.048C16.5016 18.048 16.6936 17.984 16.8216 17.856C19.3176 16.32 20.8536 15.328 21.4296 14.88C21.7496 14.944 23.0616 14.304 25.3656 12.96C27.6696 11.552 29.1416 10.784 29.7816 10.656L30.8376 10.368C31.6056 9.6 32.2456 9.216 32.7576 9.216L32.9496 9.31199C33.1416 9.31199 33.3976 9.216 33.7176 9.024C34.0376 8.768 34.2616 8.608 34.3896 8.544C35.2216 8.288 36.5976 7.84 38.5176 7.2C40.4376 6.496 41.9096 6.016 42.9336 5.75999C43.0616 5.568 43.3176 5.472 43.7016 5.472C44.0856 5.472 44.3736 5.376 44.5656 5.184C45.0136 5.056 45.7176 4.864 46.6776 4.608C47.6376 4.288 48.5016 4.032 49.2696 3.84C50.0376 3.64799 50.7096 3.55199 51.2856 3.55199C51.3496 3.55199 51.4456 3.55199 51.5736 3.55199L51.6696 3.648C51.7976 3.648 52.0216 3.552 52.3416 3.36C52.6616 3.168 52.8856 3.07199 53.0136 3.07199C53.0776 3.07199 53.1416 3.10399 53.2056 3.16799C53.3336 3.16799 53.4296 3.16799 53.4936 3.16799C53.6856 3.16799 54.0376 3.04 54.5496 2.784C55.0616 2.528 55.4776 2.368 55.7976 2.304L55.9896 2.20799C56.0536 2.144 56.1176 2.112 56.1816 2.112H56.7576C56.8856 1.984 56.9816 1.92 57.0456 1.92C57.0456 1.92 57.1096 1.952 57.2376 2.016L57.4296 2.112C57.5576 2.112 57.6536 2.08 57.7176 2.016C57.8456 1.952 57.9416 1.92 58.0056 1.92C58.0696 1.92 58.1336 1.952 58.1976 2.016C58.3256 2.016 58.4216 2.016 58.4856 2.016C58.6776 2.016 58.9976 1.952 59.4456 1.82399C59.9576 1.632 60.3416 1.536 60.5976 1.536C60.6616 1.536 60.7256 1.568 60.7896 1.632C60.9176 1.632 61.0136 1.632 61.0776 1.632C61.2056 1.632 61.3976 1.6 61.6536 1.536C61.9096 1.408 62.1336 1.34399 62.3256 1.34399C62.4536 1.216 62.5816 1.152 62.7096 1.152C62.7736 1.152 62.8696 1.184 62.9976 1.248C63.1896 1.31199 63.3176 1.34399 63.3816 1.34399C63.9576 1.34399 64.3736 1.15199 64.6296 0.767996C64.7576 0.767996 64.8856 0.831995 65.0136 0.959993C65.1416 1.024 65.2696 1.056 65.3976 1.056C65.4616 1.056 65.5896 1.024 65.7816 0.959993C65.9736 0.895994 66.1336 0.863995 66.2616 0.863995C66.3256 0.863995 66.3896 0.895994 66.4536 0.959993C66.5816 0.959993 66.6776 0.959993 66.7416 0.959993H67.7016C67.8296 0.959993 67.9256 0.927994 67.9896 0.863995C68.1176 0.735996 68.2136 0.671997 68.2776 0.671997H68.5656C68.6296 0.671997 68.7256 0.703997 68.8536 0.767996C68.9816 0.767996 69.1096 0.767996 69.2376 0.767996C69.4296 0.767996 69.6856 0.735996 70.0056 0.671997C70.3896 0.607998 70.6776 0.575998 70.8696 0.575998H71.4456C71.5096 0.639997 71.6376 0.671997 71.8296 0.671997C71.9576 0.671997 72.0536 0.639997 72.1176 0.575998C72.5656 0.447996 73.0776 0.383995 73.6536 0.383995C73.7816 0.383995 73.9416 0.415995 74.1336 0.479994C74.3896 0.479994 74.5496 0.479994 74.6136 0.479994C74.6776 0.479994 74.7416 0.447994 74.8056 0.383995C74.9336 0.319996 75.0296 0.287996 75.0936 0.287996C75.1576 0.287996 75.1896 0.287996 75.1896 0.287996L75.3816 0.383995H76.6296C77.1416 0.511997 77.5256 0.575998 77.7816 0.575998ZM118.294 11.712C118.294 11.776 118.358 11.84 118.486 11.904C118.486 11.776 118.422 11.712 118.294 11.712ZM25.4616 13.92L25.7496 14.112C25.9416 14.048 26.0376 13.952 26.0376 13.824C26.0376 13.632 26.0056 13.536 25.9416 13.536C25.6216 13.536 25.4616 13.664 25.4616 13.92ZM10.2936 24.384L10.4856 24.288H10.1976V24.384H10.2936ZM8.85362 25.824C8.91762 25.824 8.91762 25.792 8.85362 25.728V25.824ZM5.68562 30.048C5.94162 30.048 6.06962 29.952 6.06962 29.76C6.06962 29.504 5.97362 29.376 5.78162 29.376C5.65362 29.376 5.58962 29.408 5.58962 29.472V29.952L5.68562 30.048ZM2.22962 32.544C2.29362 32.736 2.29362 32.864 2.22962 32.928C2.10162 32.992 2.03762 33.056 2.03762 33.12C2.03762 33.312 2.16562 33.408 2.42162 33.408C2.61362 33.408 2.70962 33.344 2.70962 33.216C2.70962 33.152 2.64562 33.088 2.51762 33.024L2.32562 32.928V32.544H2.22962ZM2.99762 32.736L3.09362 32.832C3.22162 32.832 3.28562 32.8 3.28562 32.736C3.22162 32.736 3.18962 32.736 3.18962 32.736C3.18962 32.672 3.15762 32.64 3.09362 32.64L2.99762 32.736ZM2.80562 34.272C2.86962 34.336 2.93362 34.368 2.99762 34.368C3.12562 34.368 3.18962 34.336 3.18962 34.272L3.09362 34.176C2.96562 34.176 2.86962 34.208 2.80562 34.272ZM2.22962 34.656C2.29362 34.656 2.32562 34.624 2.32562 34.56L2.22962 34.656ZM2.51762 35.232L2.61362 35.136H2.51762V35.232ZM2.03762 36.384C2.03762 36.448 2.10162 36.48 2.22962 36.48C2.35762 36.48 2.42162 36.448 2.42162 36.384C2.42162 36.32 2.35762 36.288 2.22962 36.288C2.16562 36.288 2.10162 36.32 2.03762 36.384ZM2.13362 39.84V40.32C2.13362 40.384 2.16562 40.448 2.22962 40.512C2.54962 40.512 2.70962 40.416 2.70962 40.224C2.70962 39.904 2.58162 39.744 2.32562 39.744C2.26162 39.744 2.19762 39.776 2.13362 39.84ZM1.84562 41.28C2.03762 41.28 2.13362 41.216 2.13362 41.088C2.13362 40.96 1.97362 40.896 1.65362 40.896C1.65362 41.152 1.71762 41.28 1.84562 41.28ZM5.87762 46.944V46.848V46.944ZM5.97362 47.424C5.97362 47.552 6.06962 47.616 6.26162 47.616C6.32562 47.616 6.38962 47.584 6.45362 47.52C6.45362 47.392 6.32562 47.328 6.06962 47.328C6.00562 47.328 5.97362 47.36 5.97362 47.424ZM6.35762 48.384C6.29362 48.384 6.26162 48.448 6.26162 48.576L6.35762 48.864V49.152C6.35762 49.216 6.38962 49.28 6.45362 49.344C6.58162 49.344 6.64562 49.12 6.64562 48.672C6.64562 48.48 6.54962 48.384 6.35762 48.384ZM8.08562 51.744L8.27762 51.84L8.37362 51.744L8.27762 51.648C8.21362 51.712 8.14962 51.744 8.08562 51.744ZM8.37362 52.992C8.37362 53.376 8.46962 53.568 8.66162 53.568C8.91762 53.568 9.04562 53.472 9.04562 53.28C9.04562 52.96 8.94962 52.8 8.75762 52.8C8.50162 52.8 8.37362 52.864 8.37362 52.992ZM9.52562 55.68H9.71762H9.52562ZM10.9656 58.176L10.8696 58.368L10.9656 58.464L11.0616 58.368C11.0616 58.304 11.0296 58.24 10.9656 58.176ZM12.3096 61.248C12.3096 61.312 12.3416 61.344 12.4056 61.344C12.5336 61.344 12.5976 61.312 12.5976 61.248C12.5976 61.12 12.5336 61.056 12.4056 61.056C12.3416 61.056 12.3096 61.12 12.3096 61.248ZM12.0216 62.016H12.2136C12.2136 61.888 12.1496 61.76 12.0216 61.632V62.016ZM13.4616 63.936V63.744V63.936ZM14.2296 69.024C14.2296 69.216 14.3256 69.312 14.5176 69.312C14.6456 69.312 14.7096 69.12 14.7096 68.736C14.7096 68.48 14.6456 68.352 14.5176 68.352C14.3256 68.352 14.2296 68.576 14.2296 69.024ZM61.9416 69.12C61.9416 69.184 61.9736 69.216 62.0376 69.216C62.1016 69.216 62.2296 69.184 62.4216 69.12C62.6136 68.992 62.6776 68.896 62.6136 68.832C62.5496 68.832 62.5176 68.8 62.5176 68.736C62.1336 68.736 61.9416 68.864 61.9416 69.12ZM59.0616 70.368C59.0616 70.432 59.0936 70.464 59.1576 70.464V70.272L59.0616 70.368ZM55.4136 71.424C55.4776 71.488 55.5416 71.52 55.6056 71.52C55.7336 71.52 55.8296 71.488 55.8936 71.424H56.0856C56.0856 71.296 56.0216 71.232 55.8936 71.232C55.7016 71.232 55.5416 71.296 55.4136 71.424ZM15.7656 74.496C15.8296 74.496 15.8616 74.432 15.8616 74.304C15.8616 74.24 15.7976 74.144 15.6696 74.016V74.4L15.7656 74.496ZM16.1496 76.224C16.1496 76.608 16.2456 76.8 16.4376 76.8C16.5656 76.8 16.6296 76.736 16.6296 76.608C16.6296 76.288 16.5336 76.128 16.3416 76.128L16.1496 76.224ZM33.6216 77.664C33.7496 77.664 33.8456 77.632 33.9096 77.568C33.9096 77.44 33.8776 77.376 33.8136 77.376C33.6856 77.376 33.6216 77.472 33.6216 77.664ZM21.7176 77.664V77.568V77.664ZM16.7256 78.912C16.7256 79.168 16.7896 79.296 16.9176 79.296C17.1096 79.296 17.2056 79.168 17.2056 78.912C17.2056 78.784 17.0776 78.72 16.8216 78.72C16.7576 78.72 16.7256 78.784 16.7256 78.912ZM17.2056 80.256C17.3336 80.256 17.3976 80.224 17.3976 80.16C17.3976 79.968 17.2056 79.872 16.8216 79.872C16.8216 80.128 16.9496 80.256 17.2056 80.256ZM17.2056 81.216V81.12V81.216ZM34.5816 82.944L34.6776 83.04L34.7736 82.848L34.5816 82.944ZM31.7016 87.744C31.6376 87.808 31.6056 87.872 31.6056 87.936C31.6696 87.936 31.7336 87.904 31.7976 87.84C31.7976 87.776 31.7656 87.744 31.7016 87.744ZM18.4536 87.84C18.3256 87.84 18.2616 87.904 18.2616 88.032C18.2616 88.16 18.3256 88.224 18.4536 88.224C18.5816 88.224 18.6456 88.16 18.6456 88.032L18.4536 87.84ZM28.9176 90.048C28.7256 90.048 28.6296 90.08 28.6296 90.144C28.6296 90.208 28.7256 90.24 28.9176 90.24V90.048ZM18.3576 93.792C18.2936 93.792 18.2616 93.856 18.2616 93.984C18.3256 94.048 18.3896 94.08 18.4536 94.08L18.5496 93.888C18.5496 93.824 18.4856 93.792 18.3576 93.792ZM17.4936 96.96H17.6856V96.672C17.5576 96.672 17.4936 96.768 17.4936 96.96ZM18.1656 97.824V97.536V97.824ZM21.7176 100.608H21.8136C21.8136 100.48 21.7816 100.416 21.7176 100.416V100.608ZM15.0936 109.248C14.9656 109.248 14.9016 109.28 14.9016 109.344C14.9016 109.408 14.9336 109.472 14.9976 109.536L15.0936 109.44C15.0936 109.376 15.0936 109.312 15.0936 109.248ZM15.4776 110.4C15.4776 110.528 15.5096 110.592 15.5736 110.592C15.7656 110.592 15.8616 110.4 15.8616 110.016C15.8616 109.824 15.8296 109.664 15.7656 109.536C15.5736 109.536 15.4776 109.824 15.4776 110.4ZM80.8896 69.6C80.9536 69.472 81.1136 69.408 81.3696 69.408C81.6256 69.408 81.7536 69.344 81.7536 69.216C81.9456 68.512 82.8416 67.392 84.4416 65.856C86.0416 64.256 87.1616 63.456 87.8016 63.456C88.1856 63.456 88.6016 63.68 89.0496 64.128C89.4976 64.512 89.7216 64.896 89.7216 65.28C89.7216 65.344 89.6896 65.44 89.6256 65.568C89.5616 65.696 89.5296 65.824 89.5296 65.952C89.5296 66.144 89.6256 66.304 89.8176 66.432L90.5856 66.72C91.0336 66.976 91.2896 67.168 91.3536 67.296C91.4816 67.488 91.6096 67.776 91.7376 68.16C91.8656 68.544 92.0256 68.832 92.2176 69.024C92.2176 69.344 92.2496 69.536 92.3136 69.6L92.4096 69.888V70.176V70.656V70.848V71.712C92.4096 71.968 92.2816 72.16 92.0256 72.288H91.6416C91.6416 72.48 91.7376 72.608 91.9296 72.672C92.1216 72.736 92.2176 72.832 92.2176 72.96C92.2176 73.536 92.0576 74.112 91.7376 74.688C91.4816 75.264 91.0656 75.936 90.4896 76.704C89.9136 77.472 89.5616 77.92 89.4336 78.048C89.3696 78.176 89.3056 78.4 89.2416 78.72C89.1776 79.04 89.1136 79.232 89.0496 79.296C88.9216 79.424 88.7296 79.584 88.4736 79.776C88.2816 79.904 88.0896 80.064 87.8976 80.256C87.7696 80.448 87.7056 80.672 87.7056 80.928C87.2576 81.056 86.9056 81.312 86.6496 81.696C86.6496 81.824 86.6176 81.984 86.5536 82.176C86.5536 82.368 86.5216 82.528 86.4576 82.656C86.3296 82.784 86.0416 82.976 85.5936 83.232C85.2096 83.488 84.9856 83.648 84.9216 83.712C84.7296 83.84 84.6016 84 84.5376 84.192C84.5376 84.448 84.5056 84.608 84.4416 84.672C84.1856 84.928 83.8656 85.056 83.4816 85.056C83.4816 85.12 83.5136 85.216 83.5776 85.344L83.6736 85.44C83.6736 85.568 83.5136 85.696 83.1936 85.824C82.2976 86.72 81.5296 87.168 80.8896 87.168C80.7616 87.104 80.6656 87.072 80.6016 87.072L80.5056 87.168C80.1856 87.488 79.7376 87.808 79.1616 88.128C78.6496 88.448 78.2336 88.768 77.9136 89.088H76.9536C76.8896 89.088 76.7296 89.12 76.4736 89.184C76.2816 89.312 76.1216 89.376 75.9936 89.376C74.6496 89.376 73.8176 88.992 73.4976 88.224L72.7296 87.456C72.7296 87.328 72.6656 87.168 72.5376 86.976C72.3456 86.848 72.1856 86.752 72.0576 86.688L71.8656 86.496C72.0576 86.304 72.1536 86.112 72.1536 85.92C72.1536 85.856 72.1536 85.76 72.1536 85.632C72.0896 85.504 72.0576 85.408 72.0576 85.344C72.0576 85.28 72.1216 85.216 72.2496 85.152C72.3136 85.088 72.3456 85.024 72.3456 84.96C72.3456 84.832 72.2176 84.704 71.9616 84.576C73.7536 80.544 74.8416 78.464 75.2256 78.336L75.8016 78.24C75.8656 77.216 76.3776 76.096 77.3376 74.88C77.3376 74.816 77.4336 74.752 77.6256 74.688C77.8816 74.624 78.0416 74.528 78.1056 74.4C78.0416 74.144 78.1056 73.824 78.2976 73.44C78.4896 72.992 78.7456 72.736 79.0656 72.672C79.0656 72.544 79.2896 72.064 79.7376 71.232C79.9296 71.232 80.0576 71.168 80.1216 71.04V70.848C80.1216 70.784 80.0896 70.72 80.0256 70.656C80.0256 70.528 80.0256 70.432 80.0256 70.368C80.0256 70.304 80.1536 70.24 80.4096 70.176C80.7296 70.112 80.8896 69.984 80.8896 69.792C80.8256 69.664 80.8256 69.6 80.8896 69.6ZM88.5696 66.816H88.4736H88.5696ZM87.2256 69.504C86.9056 70.336 86.1056 71.552 84.8256 73.152C83.6096 74.688 82.6496 75.712 81.9456 76.224C81.6256 76.224 81.4656 76.288 81.4656 76.416V76.8C81.2736 76.928 80.8256 77.376 80.1216 78.144C79.4816 78.848 78.8736 79.456 78.2976 79.968C77.7856 80.416 77.4016 80.64 77.1456 80.64C77.0816 80.704 77.0176 80.8 76.9536 80.928V81.216C76.8256 81.344 76.6336 81.536 76.3776 81.792C76.1216 81.984 75.9616 82.112 75.8976 82.176C75.9616 82.432 75.6736 83.2 75.0336 84.48V84.864C75.0336 85.888 75.2576 86.4 75.7056 86.4H76.6656C77.3056 86.4 78.3296 85.952 79.7376 85.056C81.2096 84.224 82.0736 83.52 82.3296 82.944L82.7136 82.272H83.0016C83.1936 82.08 83.6096 81.632 84.2496 80.928C84.9536 80.16 85.4976 79.648 85.8816 79.392C85.9456 79.2 86.1696 79.008 86.5536 78.816C87.0016 78.624 87.2256 78.464 87.2256 78.336C87.1616 78.272 87.1296 78.208 87.1296 78.144C86.9376 78.016 86.8416 77.92 86.8416 77.856C86.8416 77.792 87.2576 77.248 88.0896 76.224C88.9216 75.136 89.3696 74.4 89.4336 74.016C89.4336 73.888 89.5296 73.664 89.7216 73.344C89.9136 72.96 90.0096 72.64 90.0096 72.384V72.288C89.9456 72.16 89.9136 72.064 89.9136 72C89.9136 71.936 89.9456 71.808 90.0096 71.616C90.1376 71.424 90.2016 71.264 90.2016 71.136C90.2016 70.24 90.0736 69.568 89.8176 69.12C89.8176 68.8 89.7536 68.576 89.6256 68.448H89.4336C89.3056 68.448 89.2096 68.48 89.1456 68.544L89.0496 68.64C88.9216 68.64 88.7616 68.576 88.5696 68.448C88.4416 68.32 88.3456 68.256 88.2816 68.256C88.0256 68.256 87.7696 68.416 87.5136 68.736C87.3216 68.992 87.2256 69.248 87.2256 69.504ZM79.6416 74.304V74.496V74.304ZM79.9296 75.552H80.1216H79.9296ZM90.0096 75.936H90.1056V75.84L90.0096 75.936ZM89.1456 76.32C89.1456 76.128 89.0496 76.032 88.8576 76.032C88.8576 76.224 88.9536 76.32 89.1456 76.32ZM76.5696 77.76C76.6336 77.76 76.6656 77.728 76.6656 77.664L76.5696 77.76ZM76.3776 77.856L76.4736 77.952L76.5696 77.856L76.4736 77.76C76.4736 77.824 76.4416 77.856 76.3776 77.856ZM88.0896 78.432C88.0896 78.56 88.1856 78.624 88.3776 78.624L88.4736 78.432C88.4736 78.304 88.4736 78.208 88.4736 78.144C88.4096 78.144 88.3776 78.112 88.3776 78.048C88.1856 78.048 88.0896 78.176 88.0896 78.432ZM83.6736 84.384H83.7696H83.6736ZM116.176 54.912C116.176 54.848 116.24 54.784 116.368 54.72C116.56 54.592 116.72 54.496 116.848 54.432C117.04 54.304 117.168 54.208 117.232 54.144C117.296 54.144 117.552 54.368 118 54.816C118.192 54.816 118.288 54.688 118.288 54.432C118.48 54.496 118.832 55.072 119.344 56.16L119.92 56.736C119.92 56.864 119.856 56.992 119.728 57.12C119.6 57.184 119.536 57.248 119.536 57.312C119.536 57.376 119.568 57.472 119.632 57.6C119.696 57.664 119.728 57.728 119.728 57.792C119.728 58.048 119.536 58.368 119.152 58.752C118.832 59.136 118.416 59.552 117.904 60C117.392 60.384 117.104 60.608 117.04 60.672C116.912 60.928 116.592 61.216 116.08 61.536C115.632 61.856 115.408 62.08 115.408 62.208C115.28 62.72 114.928 63.264 114.352 63.84C113.776 64.352 113.424 64.704 113.296 64.896V65.28C112.656 65.92 112.304 66.24 112.24 66.24L112.144 66.144C112.08 66.144 112.016 66.144 111.952 66.144C111.824 66.144 111.6 66.336 111.28 66.72C111.024 67.104 110.864 67.328 110.8 67.392C110.864 67.456 110.896 67.552 110.896 67.68C110.896 67.936 109.904 69.216 107.92 71.52C105.936 73.76 104.944 75.008 104.944 75.264L104.656 75.456C104.592 75.584 104.24 76.032 103.6 76.8C103.408 76.8 103.312 76.864 103.312 76.992C103.312 77.056 103.344 77.088 103.408 77.088C103.536 77.088 103.6 77.12 103.6 77.184C103.6 77.248 103.568 77.28 103.504 77.28C103.504 77.28 103.504 77.312 103.504 77.376C103.504 77.44 103.44 77.536 103.312 77.664C103.248 77.792 103.184 77.856 103.12 77.856C103.248 78.432 102.992 78.944 102.352 79.392C102.032 80.032 101.808 80.448 101.68 80.64L101.104 80.928L101.2 81.024C101.264 81.088 101.296 81.152 101.296 81.216C101.296 81.536 101.008 82.112 100.432 82.944C99.8556 83.712 99.4076 84.256 99.0876 84.576L98.7036 85.056C98.7036 85.568 98.4476 86.272 97.9356 87.168C97.3596 88.064 97.0716 88.736 97.0716 89.184C97.0716 89.44 97.2636 89.568 97.6476 89.568C97.9036 89.312 98.0636 89.184 98.1276 89.184L98.7036 88.608C98.9596 88.352 99.2796 88.224 99.6636 88.224L101.2 86.688C101.52 86.752 102.576 85.92 104.368 84.192C106.16 82.464 107.152 81.568 107.344 81.504C107.344 81.248 107.408 81.056 107.536 80.928C107.728 80.8 107.984 80.672 108.304 80.544C108.624 80.416 108.816 80.32 108.88 80.256C108.944 80.192 109.104 80.032 109.36 79.776C109.68 79.52 109.84 79.36 109.84 79.296C110.864 77.888 111.664 77.152 112.24 77.088C112.688 76.576 113.488 75.808 114.64 74.784C115.792 73.76 116.56 72.928 116.944 72.288C117.008 72.288 117.296 72.16 117.808 71.904C117.872 71.84 118 71.712 118.192 71.52C118.384 71.264 118.544 71.072 118.672 70.944C118.8 70.816 118.96 70.688 119.152 70.56C119.408 70.432 119.632 70.4 119.824 70.464C120.016 70.208 120.336 69.92 120.784 69.6C121.232 69.216 121.52 68.96 121.648 68.832L122.32 68.16C122.512 68.16 122.672 68.064 122.8 67.872L123.088 67.584H123.76C123.824 67.584 123.888 67.488 123.952 67.296C124.08 67.104 124.208 67.008 124.336 67.008C124.464 67.008 124.624 67.136 124.816 67.392C125.008 67.648 125.136 67.776 125.2 67.776C125.264 67.84 125.328 67.968 125.392 68.16C125.456 68.352 125.52 68.544 125.584 68.736C125.712 68.864 125.808 68.992 125.872 69.12V69.408C125.872 69.6 125.84 69.888 125.776 70.272C125.712 70.656 125.68 70.912 125.68 71.04L125.392 71.52C125.392 71.648 125.424 71.776 125.488 71.904C125.552 72.032 125.584 72.16 125.584 72.288C125.584 72.48 125.456 72.704 125.2 72.96C124.944 73.216 124.816 73.376 124.816 73.44C124.816 73.504 124.848 73.568 124.912 73.632V73.824C124.912 74.016 124.816 74.432 124.624 75.072C124.432 75.648 124.336 76.064 124.336 76.32C124.144 76.512 123.952 77.088 123.76 78.048C123.632 79.008 123.376 79.552 122.992 79.68C122.992 79.744 123.088 79.84 123.28 79.968C123.472 80.096 123.568 80.192 123.568 80.256C123.568 80.384 123.472 80.544 123.28 80.736C123.088 80.864 122.992 80.96 122.992 81.024C122.992 81.088 123.024 81.184 123.088 81.312C123.216 81.44 123.28 81.568 123.28 81.696C123.28 82.016 123.216 82.24 123.088 82.368C123.088 82.432 123.248 82.688 123.568 83.136C123.888 83.52 124.048 83.808 124.048 84C124.048 84.128 123.984 84.256 123.856 84.384L123.76 84.576C123.76 84.832 123.824 85.024 123.952 85.152C124.144 85.28 124.4 85.408 124.72 85.536C125.04 85.728 125.264 85.856 125.392 85.92C125.456 85.92 125.552 85.856 125.68 85.728C125.808 85.6 125.936 85.536 126.064 85.536C126.192 85.536 126.384 85.6 126.64 85.728C126.96 85.856 127.184 85.92 127.312 85.92C127.632 85.92 127.984 85.696 128.368 85.248C128.816 84.8 129.136 84.576 129.328 84.576H129.424C129.488 84.64 129.552 84.672 129.616 84.672L129.712 84.576C129.712 84.512 129.776 84.48 129.904 84.48L130.096 84.576C130.224 84.576 130.416 84.512 130.672 84.384L131.152 84.192C131.152 83.808 131.184 83.616 131.248 83.616C131.312 83.616 131.376 83.68 131.44 83.808C131.568 83.872 131.696 83.904 131.824 83.904L132.112 83.616H132.208C132.336 83.68 132.432 83.712 132.496 83.712C132.496 83.52 132.56 83.36 132.688 83.232C132.816 83.104 132.88 82.976 132.88 82.848C133.072 82.784 133.392 82.592 133.84 82.272C134.288 81.888 134.576 81.696 134.704 81.696L134.896 81.792C134.96 81.856 135.024 81.888 135.088 81.888C135.152 81.888 135.344 81.696 135.664 81.312C136.048 80.928 136.24 80.704 136.24 80.64C136.24 80.576 136.208 80.512 136.144 80.448C136.08 80.384 136.048 80.32 136.048 80.256C136.048 80.192 136.112 80.16 136.24 80.16C136.368 80.16 136.464 80.192 136.528 80.256C136.72 80.256 137.04 80.064 137.488 79.68C137.936 79.232 138.352 78.784 138.736 78.336L139.216 77.664C139.536 77.792 139.824 77.632 140.08 77.184C140.336 76.736 140.592 76.288 140.848 75.84C141.168 75.392 141.456 75.2 141.712 75.264C141.584 75.328 141.52 75.296 141.52 75.168L141.616 74.976L142.48 74.112C142.672 73.792 142.768 73.568 142.768 73.44C142.704 73.376 142.672 73.28 142.672 73.152C142.864 73.024 143.056 72.768 143.248 72.384C143.504 72 143.76 71.744 144.016 71.616C144.016 71.36 144.272 70.816 144.784 69.984C144.592 69.984 144.496 69.92 144.496 69.792C144.496 69.728 144.816 69.248 145.456 68.352C146.096 67.392 146.416 66.784 146.416 66.528V66.432L146.32 66.336C146.32 66.208 146.384 66.016 146.512 65.76C146.64 65.504 146.704 65.312 146.704 65.184C146.704 65.056 146.672 64.8 146.608 64.416C146.544 64.032 146.544 63.744 146.608 63.552C146.544 63.424 146.448 63.36 146.32 63.36C145.872 63.36 145.264 63.584 144.496 64.032C143.792 64.48 143.44 64.896 143.44 65.28C143.44 65.344 143.472 65.408 143.536 65.472C143.6 65.472 143.632 65.536 143.632 65.664C143.504 65.664 143.088 65.408 142.384 64.896C141.744 64.384 141.424 64.064 141.424 63.936C141.424 63.808 141.424 63.68 141.424 63.552C141.488 63.424 141.52 63.264 141.52 63.072L142.384 61.632C142.704 61.632 142.96 61.568 143.152 61.44C143.408 61.248 143.568 61.152 143.632 61.152H144.112C144.432 60.832 144.656 60.672 144.784 60.672H145.84L146.032 60.768C147.632 60.768 148.56 61.28 148.816 62.304C148.752 62.432 148.72 62.72 148.72 63.168C148.72 63.36 148.784 63.552 148.912 63.744C149.04 63.936 149.104 64.096 149.104 64.224C149.104 64.608 148.912 65.12 148.528 65.76C148.208 66.4 148.048 66.912 148.048 67.296C148.048 67.36 148.048 67.456 148.048 67.584C148.112 67.712 148.144 67.808 148.144 67.872C148.144 67.936 148.048 68.16 147.856 68.544L147.376 68.832C147.312 68.896 147.248 68.928 147.184 68.928C147.184 69.12 147.216 69.344 147.28 69.6C147.344 69.792 147.376 69.952 147.376 70.08C147.376 70.272 146.64 71.648 145.168 74.208C143.696 76.704 142.928 77.952 142.864 77.952C142.8 77.952 142.736 77.92 142.672 77.856C142.608 77.792 142.544 77.76 142.48 77.76C142.416 77.76 142.288 77.856 142.096 78.048C141.904 78.24 141.808 78.368 141.808 78.432L141.904 78.528C141.968 78.592 142 78.656 142 78.72V79.296C142 79.488 141.744 79.616 141.232 79.68C140.72 79.744 140.464 79.872 140.464 80.064L140.656 80.352C140.656 80.736 140.144 81.088 139.12 81.408C137.904 82.432 137.296 83.104 137.296 83.424L137.392 83.712C137.392 83.776 136.944 84.032 136.048 84.48C135.152 84.992 134.224 85.504 133.264 86.016C132.304 86.528 131.76 86.848 131.632 86.976L131.536 87.168C131.472 87.296 131.408 87.36 131.344 87.36L131.056 87.264C130.864 87.264 130.704 87.392 130.576 87.648C130.32 87.584 130 87.648 129.616 87.84C129.232 88.096 129.008 88.224 128.944 88.224C128.88 88.224 128.816 88.192 128.752 88.128C128.688 88.128 128.624 88.128 128.56 88.128C128.496 88.128 128.368 88.224 128.176 88.416C127.984 88.608 127.792 88.704 127.6 88.704L127.408 88.608C126.96 88.608 126.64 88.704 126.448 88.896H125.968C125.456 88.896 124.944 88.768 124.432 88.512C123.92 88.256 123.568 88.064 123.376 87.936C123.184 87.808 122.8 87.424 122.224 86.784C121.648 86.208 121.328 85.888 121.264 85.824V85.632C121.264 85.504 121.296 85.44 121.36 85.44C121.424 85.12 121.232 84.544 120.784 83.712C120.4 82.816 120.208 82.208 120.208 81.888V81.696H120.304L120.208 80.736V79.776C120.208 79.712 120.272 79.648 120.4 79.584C120.528 79.456 120.592 79.328 120.592 79.2L120.496 79.008C120.432 78.88 120.4 78.784 120.4 78.72C120.4 78.528 120.464 78.272 120.592 77.952C120.72 77.632 120.784 77.344 120.784 77.088C120.912 77.024 120.976 76.896 120.976 76.704C120.976 76.64 120.944 76.576 120.88 76.512C120.816 76.384 120.784 76.288 120.784 76.224C120.784 75.968 120.944 75.52 121.264 74.88C121.584 74.24 121.744 73.728 121.744 73.344C121.552 73.344 121.52 73.28 121.648 73.152L121.744 73.056C121.744 72.672 121.52 72.48 121.072 72.48C120.88 72.48 120.784 72.576 120.784 72.768L120.88 72.864C121.008 72.928 121.072 72.992 121.072 73.056C121.008 73.056 120.912 73.056 120.784 73.056C120.72 72.992 120.656 72.96 120.592 72.96C120.4 72.96 120.176 73.184 119.92 73.632C119.664 74.016 119.504 74.208 119.44 74.208H119.344C119.216 74.144 119.12 74.112 119.056 74.112C118.672 74.112 118.256 74.56 117.808 75.456C117.424 75.52 116.848 75.904 116.08 76.608C115.376 77.248 114.608 78.016 113.776 78.912C112.944 79.808 112.432 80.352 112.24 80.544C111.536 81.184 110.512 82.112 109.168 83.328C107.824 84.48 106.64 85.504 105.616 86.4C104.592 87.36 103.632 88.32 102.736 89.28C101.584 89.664 100.464 90.752 99.3756 92.544C99.1836 92.544 98.9916 92.64 98.7996 92.832C98.6716 92.832 98.6076 92.864 98.6076 92.928L97.8396 93.6C97.5836 93.6 97.3916 93.664 97.2636 93.792L96.6876 93.504C96.5596 93.504 96.3676 93.6 96.1116 93.792C95.8556 93.984 95.6636 94.08 95.5356 94.08C94.9596 94.08 94.4156 93.664 93.9036 92.832C93.3276 92 93.0396 91.296 93.0396 90.72V90.528C93.6156 90.08 93.9036 89.408 93.9036 88.512C93.9676 88.448 94.0636 88.192 94.1916 87.744C94.4476 87.68 94.5756 87.584 94.5756 87.456L94.4796 87.168C94.4796 86.976 94.6076 86.72 94.8636 86.4C95.0556 86.08 95.1516 85.856 95.1516 85.728L95.0556 85.44C95.0556 85.376 95.1196 85.28 95.2476 85.152C95.3756 85.024 95.4076 84.896 95.3436 84.768L95.5356 84.864L95.7276 84.96C95.7916 84.96 95.8236 84.896 95.8236 84.768C95.8236 84.704 95.7916 84.672 95.7276 84.672L95.5356 84.576C95.5996 84.32 95.7596 84.032 96.0156 83.712C96.2716 83.328 96.5916 82.944 96.9756 82.56C97.2956 82.112 97.5196 81.824 97.6476 81.696C97.5836 81.504 97.9676 80.736 98.7996 79.392C99.6956 78.048 100.24 77.376 100.432 77.376C100.368 77.184 100.592 76.704 101.104 75.936C101.68 75.168 101.968 74.752 101.968 74.688C102.096 74.56 102.224 74.368 102.352 74.112C102.48 73.792 102.576 73.568 102.64 73.44C102.832 73.376 103.248 72.896 103.888 72C104.528 71.104 105.232 70.048 106 68.832C106.832 67.616 107.312 66.944 107.44 66.816C107.76 66.624 107.952 66.496 108.016 66.432C108.08 65.92 109.04 64.576 110.896 62.4C112.816 60.224 113.776 58.912 113.776 58.464V58.272C113.712 58.208 113.68 58.144 113.68 58.08C113.744 57.952 114.032 57.6 114.544 57.024C115.12 56.448 115.536 55.776 115.792 55.008C115.856 55.008 115.92 55.008 115.984 55.008C116.048 54.944 116.112 54.912 116.176 54.912ZM146.8 62.688C146.864 62.688 146.896 62.656 146.896 62.592H146.704L146.8 62.688ZM147.376 64.224L147.568 64.128C147.568 64 147.472 63.936 147.28 63.936C147.28 64.128 147.312 64.224 147.376 64.224ZM125.488 69.696V69.6V69.696ZM145.264 70.848V70.752V70.848ZM119.632 70.944C119.632 71.072 119.696 71.136 119.824 71.136L120.016 70.944C119.952 70.88 119.888 70.848 119.824 70.848C119.696 70.848 119.632 70.88 119.632 70.944ZM124.624 71.136C124.624 71.392 124.72 71.52 124.912 71.52C124.976 71.52 125.008 71.456 125.008 71.328C125.008 71.136 124.912 71.04 124.72 71.04L124.624 71.136ZM103.216 73.92C103.216 73.728 103.152 73.632 103.024 73.632C103.024 73.824 103.088 73.92 103.216 73.92ZM143.44 73.728L143.536 73.632H143.44V73.728ZM103.408 74.112H103.312H103.408ZM103.6 74.4V74.208H103.504C103.504 74.336 103.536 74.4 103.6 74.4ZM103.6 76.32H103.696H103.6ZM115.792 76.416C115.792 76.48 115.824 76.512 115.888 76.512L115.984 76.32C115.92 76.32 115.856 76.352 115.792 76.416ZM103.792 77.088C103.728 77.088 103.696 77.056 103.696 76.992C103.696 76.928 103.728 76.896 103.792 76.896V77.088ZM112.816 77.088C112.688 77.088 112.624 77.152 112.624 77.28C112.624 77.408 112.688 77.472 112.816 77.472C112.88 77.472 112.912 77.408 112.912 77.28C112.912 77.152 112.88 77.088 112.816 77.088ZM142.288 77.184V77.088H142.192C142.192 77.152 142.224 77.184 142.288 77.184ZM142.384 77.472V77.376V77.472ZM101.2 80.16H101.392V79.968L101.2 80.16ZM121.648 80.064C121.2 80.064 120.976 80.256 120.976 80.64C120.976 81.024 121.136 81.216 121.456 81.216L121.552 81.12C121.552 81.056 121.52 80.992 121.456 80.928V80.736C121.456 80.544 121.712 80.384 122.224 80.256L122.032 80.16C121.84 80.096 121.712 80.064 121.648 80.064ZM122.416 80.448L122.704 80.736H122.8C122.8 80.416 122.672 80.256 122.416 80.256V80.448ZM98.7996 80.64H99.0876C99.1516 80.64 99.1836 80.608 99.1836 80.544C99.1836 80.48 99.1196 80.448 98.9916 80.448C98.8636 80.448 98.7996 80.48 98.7996 80.544V80.64ZM138.064 80.736V80.64V80.736ZM108.784 81.504C108.784 81.568 108.848 81.6 108.976 81.6C108.976 81.536 108.976 81.504 108.976 81.504L108.88 81.312C108.88 81.376 108.848 81.44 108.784 81.504ZM108.016 81.696C107.76 81.696 107.632 81.76 107.632 81.888C107.632 82.016 107.792 82.08 108.112 82.08C108.304 82.08 108.4 82.048 108.4 81.984C108.4 81.792 108.272 81.696 108.016 81.696ZM121.84 82.272C121.84 82.4 121.936 82.464 122.128 82.464C122.192 82.464 122.224 82.432 122.224 82.368C122.224 82.176 122.128 82.08 121.936 82.08C121.872 82.144 121.84 82.208 121.84 82.272ZM122.896 83.616V83.808V83.616ZM133.36 84.288V84.192V84.288ZM122.608 84.768C122.608 85.152 122.672 85.344 122.8 85.344C122.928 85.344 122.992 85.12 122.992 84.672V84.576C122.928 84.576 122.864 84.544 122.8 84.48C122.672 84.48 122.608 84.576 122.608 84.768ZM132.784 85.056V84.96V85.056ZM129.328 85.728C129.328 85.92 129.456 86.016 129.712 86.016C129.776 86.016 129.808 85.952 129.808 85.824C129.744 85.696 129.68 85.632 129.616 85.632C129.424 85.632 129.328 85.664 129.328 85.728ZM103.6 86.592C103.664 86.592 103.696 86.56 103.696 86.496C103.696 86.368 103.6 86.304 103.408 86.304C103.408 86.496 103.472 86.592 103.6 86.592ZM96.1116 86.592C96.1116 86.656 96.1436 86.688 96.2076 86.688L96.1116 86.592ZM96.4956 88.416V88.32V88.416ZM200.137 56.16C200.265 56.096 200.681 55.68 201.385 54.912C202.153 54.144 202.825 53.76 203.401 53.76C203.529 53.76 203.689 53.888 203.881 54.144C204.073 54.4 204.329 54.528 204.649 54.528C205.033 54.848 205.225 55.296 205.225 55.872V56.544C205.097 56.672 204.745 57.056 204.169 57.696C203.657 58.336 203.145 58.944 202.633 59.52C202.121 60.096 201.833 60.384 201.769 60.384H201.385C200.809 61.152 200.105 61.92 199.273 62.688C199.209 62.816 199.017 62.976 198.697 63.168C197.993 64.128 197.673 64.704 197.737 64.896C197.609 64.96 197.417 64.992 197.161 64.992C196.649 65.248 195.689 66.336 194.281 68.256C192.937 70.176 192.105 71.296 191.785 71.616C191.721 72.192 191.401 72.864 190.825 73.632C190.313 74.4 189.801 74.816 189.289 74.88C188.969 75.2 188.809 75.424 188.809 75.552C188.809 75.616 188.809 75.712 188.809 75.84C188.873 75.968 188.905 76.096 188.905 76.224C188.905 76.736 188.713 76.992 188.329 76.992C188.265 76.992 188.169 76.96 188.041 76.896C187.977 76.832 187.913 76.8 187.849 76.8L187.657 76.896L186.889 77.952V78.048C186.953 78.176 186.985 78.272 186.985 78.336C186.985 78.528 186.857 78.752 186.601 79.008C186.345 79.264 186.217 79.488 186.217 79.68C186.217 80 186.345 80.16 186.601 80.16C187.113 80.16 187.881 79.392 188.905 77.856C189.033 77.728 189.257 77.472 189.577 77.088C189.897 76.704 190.185 76.384 190.441 76.128C190.697 75.808 190.953 75.616 191.209 75.552V75.168C191.209 75.104 191.273 75.072 191.401 75.072C191.529 75.008 191.689 74.976 191.881 74.976L192.073 74.88C192.009 74.56 192.745 73.376 194.281 71.328C195.881 69.28 196.809 68.224 197.065 68.16L197.545 68.064C197.545 68 197.577 67.968 197.641 67.968L197.545 67.776C197.545 67.712 197.577 67.648 197.641 67.584C197.833 67.008 198.537 66.112 199.753 64.896H199.945L200.137 64.992C200.201 64.992 200.265 64.992 200.329 64.992C200.393 64.992 200.457 64.96 200.521 64.896C200.329 64.768 200.169 64.608 200.041 64.416C200.297 63.968 200.521 63.712 200.713 63.648C200.905 63.584 201.193 63.328 201.577 62.88C202.025 62.432 202.409 62.016 202.729 61.632C203.049 61.184 203.241 60.96 203.305 60.96H204.457C204.713 61.088 204.841 61.184 204.841 61.248L204.649 61.44C204.649 61.504 204.713 61.536 204.841 61.536L204.937 61.44C205.065 61.376 205.161 61.344 205.225 61.344C205.481 61.344 205.609 61.504 205.609 61.824C205.609 61.952 205.481 62.048 205.225 62.112C205.033 62.112 204.937 62.144 204.937 62.208L205.129 62.304C205.193 62.432 205.225 62.528 205.225 62.592C205.225 62.72 205.129 62.784 204.937 62.784C204.937 62.912 205.033 63.04 205.225 63.168C205.417 63.232 205.513 63.328 205.513 63.456C205.513 63.648 205.385 64 205.129 64.512C204.873 65.024 204.745 65.408 204.745 65.664C204.745 65.728 204.777 65.792 204.841 65.856C204.905 65.92 204.937 65.984 204.937 66.048C204.937 66.112 204.841 66.24 204.649 66.432C204.521 66.624 204.457 66.784 204.457 66.912C204.457 67.04 204.489 67.232 204.553 67.488C204.617 67.68 204.649 67.84 204.649 67.968C204.649 68.032 204.617 68.096 204.553 68.16C204.489 68.224 204.457 68.288 204.457 68.352C204.457 68.416 204.489 68.512 204.553 68.64C204.681 68.768 204.745 68.896 204.745 69.024V69.408C204.745 69.536 204.873 69.92 205.129 70.56L205.609 71.52C205.609 71.648 205.545 71.776 205.417 71.904H205.801C206.121 72.16 206.473 72.32 206.857 72.384C206.985 72.448 207.305 72.672 207.817 73.056C208.329 73.44 208.649 73.632 208.777 73.632C208.841 73.632 208.905 73.6 208.969 73.536C209.097 73.472 209.193 73.44 209.257 73.44C209.321 73.44 209.449 73.472 209.641 73.536C209.833 73.6 209.993 73.632 210.121 73.632C210.249 73.632 210.377 73.568 210.505 73.44C210.633 73.376 210.729 73.344 210.793 73.344C210.857 73.344 210.953 73.376 211.081 73.44C211.273 73.44 211.401 73.44 211.465 73.44H211.657C211.721 73.44 212.105 73.344 212.809 73.152C213.513 72.896 213.897 72.736 213.961 72.672L214.249 72.192L217.321 71.136C219.369 70.432 220.585 69.824 220.969 69.312C221.097 69.312 221.225 69.344 221.353 69.408C221.481 69.472 221.577 69.504 221.641 69.504C221.769 69.504 221.833 69.472 221.833 69.408C221.897 69.408 222.057 69.216 222.313 68.832L222.697 68.256H223.561C223.689 68.192 223.817 68.16 223.945 68.16C224.137 68.096 224.233 68.064 224.233 68.064C224.297 68 224.329 67.904 224.329 67.776C224.393 67.584 224.425 67.36 224.425 67.104C224.617 66.976 225.129 66.752 225.961 66.432C226.601 66.304 226.985 66.24 227.113 66.24V65.856C227.113 65.664 227.177 65.536 227.305 65.472C227.369 65.472 227.497 65.472 227.689 65.472C227.881 65.408 228.041 65.376 228.169 65.376C228.361 65.376 228.457 65.536 228.457 65.856C228.521 66.112 228.617 66.272 228.745 66.336L229.225 66.72C229.225 66.912 229.065 67.008 228.745 67.008H228.457C228.265 67.2 227.945 67.552 227.497 68.064C227.113 68.512 226.697 68.896 226.249 69.216C225.865 69.472 225.385 69.6 224.809 69.6H224.617C224.489 69.536 224.393 69.504 224.329 69.504C224.201 69.504 224.137 69.568 224.137 69.696C224.137 69.76 224.137 69.792 224.137 69.792L224.233 69.984C224.233 70.176 224.073 70.496 223.753 70.944C223.433 71.328 223.177 71.52 222.985 71.52L222.505 71.424C222.057 71.424 221.449 71.808 220.681 72.576C219.977 73.344 219.401 73.728 218.953 73.728C218.889 73.728 218.793 73.696 218.665 73.632C218.601 73.568 218.537 73.536 218.473 73.536C217.897 74.112 217.545 74.4 217.417 74.4H215.689V74.688C215.689 74.88 215.561 74.976 215.305 74.976C215.241 74.976 215.177 74.976 215.113 74.976C215.049 74.912 214.985 74.88 214.921 74.88C214.601 74.88 214.121 75.104 213.481 75.552C212.905 76 212.457 76.224 212.137 76.224C212.009 76.224 211.849 76.128 211.657 75.936L211.369 75.744C210.793 76.128 210.313 76.32 209.929 76.32C209.801 76.32 209.609 76.288 209.353 76.224C209.097 76.16 208.905 76.128 208.777 76.128C208.649 76.128 208.489 76.16 208.297 76.224C208.105 76.224 207.977 76.224 207.913 76.224H207.721L206.665 75.648C206.025 75.264 205.385 74.88 204.745 74.496C204.105 74.112 203.785 73.856 203.785 73.728C203.785 73.664 203.785 73.6 203.785 73.536C203.849 73.472 203.881 73.408 203.881 73.344C203.881 73.152 203.817 73.056 203.689 73.056C203.433 73.056 203.081 72.832 202.633 72.384C202.249 71.872 202.057 71.488 202.057 71.232C202.057 71.168 202.057 71.072 202.057 70.944L202.153 70.848V70.656L201.673 70.176C201.673 69.984 201.705 69.728 201.769 69.408C201.897 69.088 201.961 68.832 201.961 68.64C201.641 68.512 201.481 68.352 201.481 68.16C201.481 68.032 201.513 67.968 201.577 67.968V66.912C201.641 66.912 201.673 66.88 201.673 66.816C201.673 66.56 201.545 66.432 201.289 66.432C200.969 66.432 200.201 67.456 198.985 69.504C197.833 71.552 196.937 72.576 196.297 72.576C196.297 72.512 196.297 72.448 196.297 72.384C196.361 72.256 196.393 72.16 196.393 72.096C196.201 72.096 196.041 72.256 195.913 72.576L196.105 72.768C196.169 72.896 196.201 72.992 196.201 73.056C196.201 73.184 196.105 73.376 195.913 73.632C195.721 73.888 195.561 74.016 195.433 74.016C195.305 74.016 195.209 73.952 195.145 73.824C195.145 73.696 195.113 73.632 195.049 73.632C194.857 73.632 194.761 73.696 194.761 73.824L195.145 74.208V74.4C195.145 74.464 194.697 75.04 193.801 76.128C192.969 77.216 192.489 77.76 192.361 77.76C192.297 77.76 192.201 77.728 192.073 77.664L191.977 77.568C191.977 77.632 192.009 77.664 192.073 77.664L192.169 77.856C192.169 78.112 191.817 78.624 191.113 79.392C190.409 80.096 189.961 80.448 189.769 80.448C189.641 80.768 189.353 81.216 188.905 81.792C188.457 82.368 188.137 82.656 187.945 82.656C187.881 82.656 187.817 82.624 187.753 82.56C187.689 82.432 187.625 82.368 187.561 82.368H187.369C187.369 82.496 187.401 82.624 187.465 82.752C187.593 82.88 187.657 82.976 187.657 83.04C187.657 83.36 187.401 83.68 186.889 84C186.377 84.32 185.865 84.576 185.353 84.768C184.841 84.96 184.585 85.088 184.585 85.152C184.585 85.216 184.617 85.28 184.681 85.344C184.681 85.728 184.265 85.92 183.433 85.92L183.241 86.016H183.049C182.921 86.016 182.729 85.952 182.473 85.824C182.217 85.696 182.025 85.632 181.897 85.632C181.833 85.632 181.769 85.664 181.705 85.728L181.513 85.824C181.385 85.824 181.161 85.664 180.841 85.344C180.905 85.088 180.873 84.864 180.745 84.672C180.681 84.48 180.649 84.288 180.649 84.096C180.649 83.776 180.873 83.36 181.321 82.848C181.769 82.336 182.025 82.016 182.089 81.888C182.217 81.504 182.761 80.672 183.721 79.392C184.745 78.048 185.705 76.8 186.601 75.648C187.497 74.432 187.945 73.792 187.945 73.728V73.344C188.265 72.96 188.457 72.672 188.521 72.48L189.193 71.904C189.449 71.904 189.577 71.936 189.577 72L189.673 71.904L189.961 71.712C189.769 71.52 189.673 71.328 189.673 71.136L189.961 70.656C189.961 70.528 189.897 70.464 189.769 70.464C189.705 70.464 189.545 70.56 189.289 70.752C189.097 70.944 188.905 71.04 188.713 71.04C188.649 71.04 188.617 71.008 188.617 70.944L188.425 70.848L188.329 70.944C188.329 71.008 188.361 71.072 188.425 71.136C188.553 71.2 188.617 71.296 188.617 71.424C188.617 71.744 188.297 72 187.657 72.192C187.081 72.384 186.793 72.544 186.793 72.672V72.96C186.793 73.216 185.833 73.952 183.913 75.168C181.993 76.32 180.841 76.864 180.457 76.8C180.265 76.992 180.201 77.088 180.265 77.088C180.265 77.216 180.297 77.28 180.361 77.28C180.361 77.664 180.041 77.856 179.401 77.856L179.209 78.048C179.145 78.24 179.081 78.368 179.017 78.432C178.825 78.432 178.249 78.752 177.289 79.392C176.329 79.968 175.849 80.288 175.849 80.352L175.945 80.448C175.945 80.512 175.945 80.576 175.945 80.64C175.945 80.768 175.881 80.832 175.753 80.832C175.561 80.896 175.305 81.056 174.985 81.312C174.665 81.504 174.473 81.6 174.409 81.6C174.345 81.6 174.249 81.568 174.121 81.504C174.057 81.44 173.961 81.408 173.833 81.408C173.769 81.408 173.673 81.44 173.545 81.504C173.481 81.504 173.417 81.504 173.353 81.504C173.225 81.632 173.161 81.728 173.161 81.792C173.161 81.856 173.193 81.888 173.257 81.888L173.353 82.08C173.353 82.272 173.289 82.368 173.161 82.368H172.489C172.425 82.496 172.265 82.656 172.009 82.848C171.753 83.04 171.593 83.2 171.529 83.328C168.969 84.608 167.657 85.248 167.593 85.248C167.529 85.184 167.369 85.152 167.113 85.152C166.601 85.792 165.801 86.368 164.713 86.88C163.625 87.456 162.665 87.744 161.833 87.744V88.128C161.705 88.128 161.577 88.192 161.449 88.32C161.321 88.448 161.161 88.512 160.969 88.512C160.905 88.512 160.809 88.48 160.681 88.416C160.553 88.416 160.425 88.416 160.297 88.416C160.105 88.416 159.945 88.512 159.817 88.704C159.689 88.896 159.593 88.992 159.529 88.992C159.465 88.992 159.369 88.96 159.241 88.896C159.113 88.896 159.017 88.896 158.953 88.896C158.761 88.896 158.537 88.96 158.281 89.088C158.025 89.216 157.801 89.28 157.609 89.28C156.841 89.28 156.297 89.216 155.977 89.088C155.657 89.088 155.433 89.152 155.305 89.28C154.793 89.28 154.153 89.056 153.385 88.608C152.617 88.224 152.073 87.84 151.753 87.456C151.817 87.2 151.689 86.848 151.369 86.4C151.113 85.952 150.985 85.6 150.985 85.344C150.985 85.024 151.081 84.864 151.273 84.864C151.337 84.864 151.433 84.896 151.561 84.96C151.561 84.704 151.465 84.576 151.273 84.576C151.209 84.576 151.113 84.64 150.985 84.768C150.921 84.768 150.889 84.704 150.889 84.576C150.889 84.448 150.985 84.352 151.177 84.288C151.433 84.288 151.561 84.192 151.561 84C151.561 83.936 151.529 83.872 151.465 83.808L151.369 83.712C151.369 83.456 151.433 83.328 151.561 83.328C151.561 83.2 151.465 83.136 151.273 83.136C151.145 83.072 151.081 83.008 151.081 82.944C151.081 82.88 151.113 82.816 151.177 82.752C151.305 82.624 151.369 82.528 151.369 82.464C151.369 82.336 151.305 82.176 151.177 81.984C151.113 81.792 151.081 81.632 151.081 81.504L151.177 81.312C151.241 81.248 151.273 81.184 151.273 81.12L151.177 81.024C151.177 80.96 151.177 80.896 151.177 80.832C151.177 79.872 151.433 79.2 151.945 78.816C152.201 78.88 152.329 78.848 152.329 78.72C152.393 78.592 152.425 78.336 152.425 77.952C152.425 77.632 152.521 77.44 152.713 77.376C152.841 77.312 152.969 77.152 153.097 76.896C153.225 76.576 153.321 76.288 153.385 76.032C153.513 75.776 153.609 75.648 153.673 75.648C153.801 75.648 153.929 75.712 154.057 75.84C154.121 75.776 154.153 75.712 154.153 75.648C154.281 75.136 154.633 74.56 155.209 73.92C155.785 73.28 156.137 72.864 156.265 72.672L156.361 72.48C156.361 72.352 156.361 72.256 156.361 72.192C156.361 72.128 156.425 72.096 156.553 72.096C156.681 72.032 156.809 71.968 156.937 71.904L157.033 71.808V71.232C157.033 71.168 157.161 71.104 157.417 71.04C157.673 70.976 157.801 70.88 157.801 70.752L157.705 70.656C157.705 70.592 157.705 70.528 157.705 70.464C157.705 70.016 158.281 69.344 159.433 68.448V67.968H159.625L159.721 68.064C159.849 68.128 159.913 68.192 159.913 68.256C159.977 68.256 160.041 68.064 160.105 67.68C160.233 67.296 160.361 67.104 160.489 67.104C160.553 67.104 160.649 67.104 160.777 67.104L160.873 67.2C161.001 67.2 161.065 67.136 161.065 67.008L160.969 66.912C160.841 66.912 160.777 66.88 160.777 66.816C160.777 66.624 161.321 66.048 162.409 65.088C163.497 64.064 164.585 63.072 165.673 62.112L167.305 60.768C167.369 60.768 167.433 60.832 167.497 60.96C167.561 61.088 167.625 61.152 167.689 61.152C167.945 61.152 168.073 61.056 168.073 60.864L167.977 60.576C167.977 60.512 168.105 60.224 168.361 59.712H168.841H169.225L169.033 60.096C169.033 60.16 169.097 60.224 169.225 60.288L169.417 60.384L169.225 60.672L169.321 60.768H169.705L169.801 60.672C169.801 60.48 169.705 60.256 169.513 60C169.321 59.744 169.225 59.552 169.225 59.424C169.225 58.912 169.673 58.656 170.569 58.656H170.761V58.752C170.825 58.816 170.857 58.88 170.857 58.944C170.857 59.072 170.921 59.136 171.049 59.136C171.177 59.136 171.241 59.04 171.241 58.848C171.305 58.656 171.401 58.56 171.529 58.56C171.785 58.56 172.137 58.72 172.585 59.04C173.033 59.36 173.289 59.616 173.353 59.808C173.353 59.936 173.353 60.128 173.353 60.384C173.417 60.64 173.449 60.832 173.449 60.96L173.257 61.056C173.257 61.12 173.289 61.216 173.353 61.344C173.481 61.472 173.545 61.568 173.545 61.632C173.545 62.144 173.417 62.72 173.161 63.36C172.969 63.936 172.809 64.384 172.681 64.704C172.553 64.96 172.233 65.472 171.721 66.24C171.209 67.008 170.953 67.424 170.953 67.488C170.953 67.552 170.441 67.968 169.417 68.736C169.033 68.8 168.649 69.216 168.265 69.984C167.945 70.688 167.721 71.104 167.593 71.232C167.337 71.36 167.081 71.584 166.825 71.904C166.569 72.224 166.345 72.448 166.153 72.576C166.089 72.64 165.929 72.736 165.673 72.864C165.417 72.928 165.193 73.024 165.001 73.152C164.873 73.28 164.809 73.376 164.809 73.44C164.809 73.504 164.841 73.568 164.905 73.632C164.905 73.696 164.361 74.08 163.273 74.784C162.249 75.488 161.161 76.192 160.009 76.896C158.857 77.6 158.185 77.952 157.993 77.952C157.865 77.952 157.801 78.016 157.801 78.144C157.801 78.208 157.801 78.24 157.801 78.24C157.865 78.24 157.897 78.272 157.897 78.336C157.577 78.592 156.937 79.008 155.977 79.584C155.017 80.096 154.217 80.64 153.577 81.216C153.001 81.728 152.713 82.304 152.713 82.944C152.713 83.008 152.777 83.168 152.905 83.424C153.097 83.616 153.193 83.776 153.193 83.904V84.096C153.193 84.416 153.321 84.864 153.577 85.44C153.833 86.016 154.057 86.304 154.249 86.304H154.729V86.496L154.441 86.784L154.537 86.88H154.825C155.017 86.816 155.209 86.752 155.401 86.688C155.657 86.688 155.849 86.688 155.977 86.688C156.041 86.688 156.137 86.688 156.265 86.688C156.457 86.752 156.585 86.784 156.649 86.784C156.777 86.784 156.873 86.72 156.937 86.592C157.065 86.528 157.161 86.496 157.225 86.496C157.289 86.496 157.385 86.496 157.513 86.496C157.641 86.56 157.737 86.592 157.801 86.592C157.865 86.592 157.897 86.528 157.897 86.4C157.897 86.272 157.961 86.208 158.089 86.208L158.185 86.304C158.249 86.368 158.313 86.4 158.377 86.4C158.505 86.4 158.665 86.336 158.857 86.208C159.113 86.08 159.273 86.016 159.337 86.016C159.465 86.016 159.561 86.048 159.625 86.112C159.753 86.176 159.849 86.208 159.913 86.208C160.105 86.208 160.233 86.112 160.297 85.92L160.393 85.728H161.161H161.641C161.961 85.344 162.345 85.056 162.793 84.864V84.384L162.889 84.576C163.017 84.64 163.113 84.672 163.177 84.672C163.241 84.672 163.337 84.64 163.465 84.576C163.849 84.192 164.137 84 164.329 84C164.393 84 164.425 84.032 164.425 84.096L165.001 84.384L165.385 84.192C165.449 84.128 165.577 84 165.769 83.808C166.025 83.616 166.249 83.424 166.441 83.232L166.729 82.944C166.729 82.88 166.729 82.848 166.729 82.848L166.633 82.656C166.697 82.656 166.793 82.688 166.921 82.752C167.049 82.752 167.177 82.752 167.305 82.752C167.433 82.752 167.785 82.56 168.361 82.176H168.553C169.385 82.176 170.409 81.632 171.625 80.544C172.841 79.456 173.481 78.88 173.545 78.816C173.673 78.816 173.897 78.816 174.217 78.816C174.537 78.752 174.793 78.72 174.985 78.72C175.113 78.656 175.241 78.624 175.369 78.624C175.241 78.624 175.177 78.592 175.177 78.528C175.177 78.528 175.209 78.432 175.273 78.24C175.337 78.048 175.401 77.952 175.465 77.952H175.753C175.945 77.568 176.585 77.056 177.673 76.416C178.761 75.776 179.593 75.456 180.169 75.456L180.265 74.976C180.457 74.912 180.969 74.496 181.801 73.728C182.633 72.96 183.081 72.576 183.145 72.576H183.721C183.977 72.576 184.297 72.32 184.681 71.808C185.065 71.296 185.321 71.04 185.449 71.04C185.513 71.04 185.577 71.072 185.641 71.136C185.705 71.2 185.769 71.232 185.833 71.232C186.025 70.528 186.665 70.176 187.753 70.176C187.753 70.112 187.721 70.08 187.657 70.08V69.984C187.657 69.472 188.105 69.056 189.001 68.736C189.961 68.416 190.473 68.128 190.537 67.872C190.537 67.744 190.441 67.68 190.249 67.68C190.249 67.232 190.665 66.784 191.497 66.336C192.329 65.888 192.745 65.472 192.745 65.088L192.649 64.896L192.841 64.8C192.969 64.8 193.097 64.8 193.225 64.8L193.513 64.704C194.665 63.744 195.433 62.944 195.817 62.304C196.009 62.048 196.393 61.376 196.969 60.288C197.609 59.2 198.057 58.528 198.313 58.272C199.145 57.248 199.625 56.704 199.753 56.64C199.881 56.576 200.009 56.416 200.137 56.16ZM200.809 57.504C200.873 57.504 200.905 57.44 200.905 57.312H200.617C200.617 57.44 200.681 57.504 200.809 57.504ZM203.113 58.176L202.921 57.984C202.921 58.112 202.985 58.176 203.113 58.176ZM200.617 59.136C200.617 59.264 200.777 59.328 201.097 59.328C200.905 59.136 200.777 59.072 200.713 59.136H200.617ZM170.089 59.232C169.897 59.232 169.801 59.328 169.801 59.52C169.801 59.712 169.929 59.808 170.185 59.808C170.185 59.744 170.153 59.648 170.089 59.52C170.089 59.392 170.089 59.296 170.089 59.232ZM170.281 60.192L170.473 60.288C170.473 60.352 170.473 60.384 170.473 60.384C170.537 60.32 170.601 60.256 170.665 60.192H170.473H170.281ZM171.049 60.96L171.241 61.152C171.177 61.216 170.921 61.504 170.473 62.016C170.025 62.528 169.641 62.784 169.321 62.784H168.937C168.681 63.296 168.393 63.552 168.073 63.552C167.945 63.552 167.817 63.52 167.689 63.456C167.561 63.392 167.465 63.36 167.401 63.36C167.273 63.36 167.017 63.648 166.633 64.224C166.313 64.736 166.089 64.992 165.961 64.992H165.481C165.289 65.44 164.937 65.952 164.425 66.528C163.913 67.104 163.465 67.456 163.081 67.584C163.017 67.84 162.729 68.192 162.217 68.64C161.769 69.024 161.513 69.248 161.449 69.312C161.385 69.504 161.257 69.6 161.065 69.6L160.681 69.504C160.553 69.504 160.489 69.536 160.489 69.6C160.425 69.6 160.393 69.664 160.393 69.792C160.393 69.856 160.425 69.952 160.489 70.08C160.553 70.144 160.585 70.208 160.585 70.272C160.585 70.592 160.233 71.136 159.529 71.904C158.889 72.672 158.505 73.184 158.377 73.44C158.377 73.44 158.121 73.472 157.609 73.536C157.545 73.6 157.545 73.696 157.609 73.824L157.705 74.208L157.513 74.4L157.225 74.592C157.033 74.72 156.937 74.816 156.937 74.88C157.001 75.136 156.809 75.36 156.361 75.552C155.977 75.68 155.785 75.808 155.785 75.936C155.785 76 155.849 76.096 155.977 76.224C156.169 76.288 156.265 76.352 156.265 76.416L156.937 77.088L157.033 77.184C157.225 77.184 157.321 77.152 157.321 77.088C157.321 76.96 157.257 76.832 157.129 76.704C157.001 76.576 156.937 76.448 156.937 76.32C156.937 76.192 157.001 76.128 157.129 76.128L157.321 76.224C157.385 76.288 157.449 76.32 157.513 76.32L157.705 76.128C157.897 76.064 158.057 76 158.185 75.936C158.185 75.744 158.441 75.424 158.953 74.976C159.529 74.528 159.913 74.304 160.105 74.304C160.169 74.304 160.265 74.336 160.393 74.4H160.489C160.425 74.528 160.425 74.656 160.489 74.784C160.553 74.912 160.649 74.976 160.777 74.976C160.777 74.976 160.841 74.912 160.969 74.784L161.449 74.304C161.449 74.176 161.353 74.112 161.161 74.112C161.097 74.112 161.033 74.144 160.969 74.208V74.304H160.585C160.521 74.304 160.489 74.24 160.489 74.112C160.489 74.048 160.617 73.888 160.873 73.632C161.193 73.376 161.417 73.216 161.545 73.152H161.833C162.089 73.152 162.249 73.088 162.313 72.96L162.601 73.248C162.665 73.248 162.697 73.216 162.697 73.152L162.601 73.056C162.537 72.992 162.505 72.928 162.505 72.864C162.505 72.8 162.505 72.704 162.505 72.576C162.569 72.448 162.601 72.32 162.601 72.192C162.665 72.192 162.761 72.224 162.889 72.288C163.017 72.288 163.145 72.288 163.273 72.288C163.273 72.224 163.305 72.16 163.369 72.096C163.433 71.968 163.497 71.872 163.561 71.808H163.945C164.073 71.808 164.425 71.392 165.001 70.56L168.361 67.2C168.361 67.136 168.329 67.072 168.265 67.008C168.265 66.944 168.265 66.88 168.265 66.816C168.329 66.56 168.809 66.112 169.705 65.472C170.601 64.832 171.049 64.256 171.049 63.744C171.049 63.68 171.017 63.584 170.953 63.456C170.889 63.328 170.857 63.232 170.857 63.168L170.953 63.072L171.241 62.784C171.113 62.656 171.049 62.496 171.049 62.304C171.049 62.176 171.145 62.08 171.337 62.016V61.536C171.465 61.408 171.529 61.312 171.529 61.248C171.529 61.056 171.657 60.96 171.913 60.96C171.913 60.768 171.753 60.672 171.433 60.672C171.369 60.672 171.241 60.768 171.049 60.96ZM170.473 60.864H170.377H170.473ZM169.033 61.536C168.905 61.856 168.969 62.016 169.225 62.016C169.289 61.952 169.385 61.824 169.513 61.632C169.385 61.568 169.225 61.536 169.033 61.536ZM166.537 61.824C166.537 61.952 166.665 62.016 166.921 62.016C167.113 62.016 167.209 61.984 167.209 61.92C167.209 61.664 167.081 61.536 166.825 61.536C166.633 61.536 166.537 61.632 166.537 61.824ZM165.865 62.4C165.929 62.4 166.025 62.4 166.153 62.4C166.281 62.336 166.377 62.272 166.441 62.208C166.441 62.016 166.377 61.92 166.249 61.92C165.993 61.92 165.865 62.08 165.865 62.4ZM172.393 62.4L172.489 62.304H172.297C172.297 62.368 172.329 62.4 172.393 62.4ZM172.009 62.976C172.009 63.04 172.105 63.136 172.297 63.264C172.297 63.136 172.393 62.976 172.585 62.784C172.585 62.72 172.521 62.688 172.393 62.688C172.137 62.688 172.009 62.784 172.009 62.976ZM164.713 63.552C164.777 63.552 164.809 63.488 164.809 63.36H164.713V63.552ZM172.009 63.648L172.105 63.744C172.233 63.744 172.297 63.712 172.297 63.648C172.297 63.52 172.233 63.456 172.105 63.456C172.041 63.456 172.009 63.52 172.009 63.648ZM166.537 63.552V63.456V63.552ZM197.353 63.744C197.033 63.872 196.873 64 196.873 64.128C196.873 64.256 197.097 64.32 197.545 64.32C197.545 64.064 197.481 63.872 197.353 63.744ZM165.289 64.224C165.289 64.288 165.353 64.32 165.481 64.32C165.801 64.128 165.961 63.968 165.961 63.84C165.513 63.84 165.289 63.968 165.289 64.224ZM164.521 64.128C164.521 64.256 164.553 64.288 164.617 64.224L164.713 64.128L164.617 64.032L164.521 64.128ZM171.337 64.512C171.465 64.512 171.593 64.448 171.721 64.32H171.529C171.401 64.32 171.337 64.384 171.337 64.512ZM195.337 65.856V65.76V65.856ZM162.313 66.816H162.601C162.601 66.752 162.569 66.656 162.505 66.528C162.377 66.592 162.313 66.688 162.313 66.816ZM194.281 67.392C194.281 67.2 194.217 67.104 194.089 67.104C194.089 67.296 194.153 67.392 194.281 67.392ZM162.409 67.776H162.505H162.409ZM161.353 68.16C161.353 67.968 161.257 67.872 161.065 67.872C161.065 68.064 161.161 68.16 161.353 68.16ZM202.825 68.64C202.825 68.704 202.857 68.8 202.921 68.928C203.049 69.056 203.145 69.088 203.209 69.024V68.544L203.017 68.448C202.889 68.448 202.825 68.512 202.825 68.64ZM160.777 68.832C160.777 68.64 160.713 68.544 160.585 68.544C160.585 68.736 160.649 68.832 160.777 68.832ZM161.161 68.928L161.257 69.024V68.832L161.161 68.928ZM191.209 68.928H191.497V68.832L191.209 68.928ZM223.465 69.12C223.465 69.248 223.593 69.312 223.849 69.312C223.977 69.312 224.041 69.216 224.041 69.024C224.041 68.896 223.977 68.832 223.849 68.832C223.593 68.832 223.465 68.928 223.465 69.12ZM190.537 69.12V69.024V69.12ZM159.913 69.408C159.977 69.408 160.009 69.344 160.009 69.216H159.913V69.408ZM167.785 69.888V69.792V69.888ZM197.161 70.08V69.984H197.065L197.161 70.08ZM223.177 70.656C223.177 70.464 223.049 70.368 222.793 70.368C222.793 70.56 222.921 70.656 223.177 70.656ZM158.665 70.752C158.409 70.752 158.281 70.88 158.281 71.136C158.345 71.2 158.473 71.232 158.665 71.232C158.857 71.232 158.985 71.136 159.049 70.944L158.665 70.752ZM165.481 71.232L165.673 71.328C165.801 71.328 165.865 71.296 165.865 71.232C165.865 71.104 165.801 71.04 165.673 71.04C165.545 71.04 165.481 71.104 165.481 71.232ZM186.601 71.328H186.505H186.601ZM158.857 72.096C158.857 71.904 158.793 71.808 158.665 71.808C158.665 72 158.729 72.096 158.857 72.096ZM191.113 72.192L191.209 72.096H191.113V72.192ZM164.425 72.192V72.096V72.192ZM158.377 72.672L158.281 72.288H158.089C158.089 72.544 158.185 72.672 158.377 72.672ZM163.945 72.48L164.041 72.672C164.169 72.672 164.233 72.576 164.233 72.384C164.041 72.384 163.945 72.416 163.945 72.48ZM163.561 72.576V72.48V72.576ZM194.185 72.96C194.185 73.088 194.217 73.152 194.281 73.152C194.345 73.216 194.473 73.248 194.665 73.248C194.665 72.928 194.537 72.768 194.281 72.768L194.185 72.96ZM206.569 72.864H206.761H206.569ZM156.073 73.536C156.201 73.664 156.361 73.728 156.553 73.728C156.681 73.728 156.745 73.664 156.745 73.536C156.745 73.408 156.617 73.344 156.361 73.344C156.169 73.344 156.073 73.408 156.073 73.536ZM193.993 73.44C193.865 73.44 193.801 73.536 193.801 73.728C193.993 73.728 194.089 73.664 194.089 73.536L193.993 73.44ZM161.641 73.632C161.641 73.696 161.705 73.728 161.833 73.728L161.929 73.632C161.929 73.504 161.897 73.44 161.833 73.44L161.641 73.632ZM155.977 74.112H156.169H155.977ZM157.225 74.112V74.016V74.112ZM183.145 74.112V74.016V74.112ZM194.761 74.208H194.857H194.761ZM156.457 74.208H156.361H156.457ZM213.289 74.88C213.289 74.944 213.257 75.04 213.193 75.168V75.264C213.449 75.264 213.577 75.136 213.577 74.88C213.577 74.56 213.449 74.4 213.193 74.4C213.193 74.656 213.225 74.816 213.289 74.88ZM161.641 74.496C161.577 74.496 161.545 74.56 161.545 74.688C161.545 74.816 161.737 74.88 162.121 74.88C162.249 74.88 162.345 74.816 162.409 74.688L162.217 74.496H161.641ZM181.321 74.592V74.496V74.592ZM155.017 75.36C155.145 75.36 155.209 75.296 155.209 75.168V74.976V74.784H155.113C155.049 74.848 155.017 75.04 155.017 75.36ZM156.457 75.072C156.521 75.072 156.553 75.04 156.553 74.976L156.457 74.88V75.072ZM193.129 75.072V74.976V75.072ZM206.569 75.168H206.473H206.569ZM159.529 75.552C159.529 75.68 159.593 75.744 159.721 75.744C159.721 75.616 159.657 75.552 159.529 75.552ZM187.465 75.936C187.721 75.936 187.849 75.872 187.849 75.744C187.593 75.744 187.465 75.808 187.465 75.936ZM192.169 75.744V75.648V75.744ZM158.761 76.32C158.761 76.192 158.665 76.128 158.473 76.128C158.473 76.256 158.569 76.32 158.761 76.32ZM153.769 76.512C153.769 76.64 153.801 76.736 153.865 76.8C153.865 76.736 153.929 76.672 154.057 76.608C154.185 76.48 154.249 76.384 154.249 76.32C154.249 76.192 154.185 76.128 154.057 76.128L153.769 76.512ZM191.785 76.608V76.512V76.608ZM192.073 76.608C192.073 76.672 192.137 76.704 192.265 76.704C192.265 76.64 192.201 76.608 192.073 76.608ZM191.689 76.704H191.497H191.689ZM186.217 77.856C186.217 77.792 186.185 77.728 186.121 77.664C186.121 77.728 186.153 77.792 186.217 77.856ZM185.065 78.048H185.161L185.065 77.952V78.048ZM175.849 78.144C175.721 78.144 175.657 78.208 175.657 78.336C175.657 78.4 175.689 78.432 175.753 78.432C175.881 78.432 175.945 78.368 175.945 78.24L175.849 78.144ZM184.777 78.528L185.065 78.624V78.432C184.873 78.432 184.777 78.464 184.777 78.528ZM190.153 79.008V78.912V79.008ZM184.393 79.2C184.265 79.2 184.201 79.232 184.201 79.296C184.265 79.296 184.329 79.264 184.393 79.2ZM183.913 79.68C184.105 79.68 184.201 79.584 184.201 79.392C184.009 79.392 183.913 79.488 183.913 79.68ZM155.305 79.488C154.985 79.488 154.825 79.552 154.825 79.68C154.889 79.68 155.049 79.616 155.305 79.488ZM151.753 80.16H152.041L152.137 79.968C151.881 79.968 151.753 80.032 151.753 80.16ZM184.489 81.696H184.681V81.6H184.489V81.696ZM182.569 82.08V81.984V82.08ZM186.793 82.176H186.985V82.08H186.793V82.176ZM151.849 82.272C151.977 82.4 152.105 82.464 152.233 82.464C152.233 82.272 152.169 82.176 152.041 82.176L151.849 82.272ZM152.425 83.52C152.489 83.52 152.521 83.456 152.521 83.328C152.457 83.328 152.425 83.392 152.425 83.52ZM181.225 84.384L181.321 84.48H181.513C181.961 84.48 182.185 84.448 182.185 84.384L181.897 84.096C181.513 84.096 181.289 84.192 181.225 84.384ZM153.001 85.44L153.097 85.344H153.001V85.44ZM161.833 85.728C161.577 85.728 161.449 85.888 161.449 86.208L161.545 86.4H161.929L161.833 86.112C161.833 85.984 161.865 85.888 161.929 85.824L161.833 85.728ZM162.889 85.824C162.697 85.824 162.601 85.952 162.601 86.208C162.793 86.208 162.889 86.08 162.889 85.824ZM160.105 86.592V86.496V86.592ZM157.609 87.072C157.673 87.136 157.737 87.168 157.801 87.168C157.801 87.104 157.769 87.04 157.705 86.976L157.609 87.072ZM152.233 87.168V87.072V87.168ZM159.721 87.168H159.817V87.072H159.721V87.168ZM156.169 87.456L156.361 87.264C156.233 87.264 156.169 87.328 156.169 87.456Z" fill="#323232"/>
</svg>
