<svg width="288" height="138" viewBox="0 0 288 138" fill="none" xmlns="http://www.w3.org/2000/svg">
<path d="M4.75725 83.672L4.66125 83.768C4.66125 84.216 4.34125 84.696 3.70125 85.208V85.304L3.79725 85.496C3.79725 85.56 3.79725 85.624 3.79725 85.688C3.79725 85.944 3.66925 86.328 3.41325 86.84C3.15725 87.352 3.02925 87.768 3.02925 88.088C3.09325 88.152 3.28525 88.568 3.60525 89.336L4.18125 89.528C4.43725 89.528 4.75725 89.432 5.14125 89.24C5.58925 89.048 5.90925 88.952 6.10125 88.952L6.67725 88.376C8.46925 87.928 9.71725 86.776 10.4213 84.92C10.4213 84.792 10.6453 84.536 11.0933 84.152C11.5412 83.832 11.7652 83.544 11.7652 83.288L11.5733 83.192L11.1893 83.096C10.9333 83.096 10.7413 83.16 10.6132 83.288H10.4213C8.43725 82.52 7.22125 82.008 6.77325 81.752C6.70925 81.688 6.64525 81.656 6.58125 81.656C6.45325 81.656 6.19725 82.008 5.81325 82.712C5.49325 83.352 5.14125 83.672 4.75725 83.672ZM13.5893 70.52C13.6533 71.736 12.8213 73.304 11.0933 75.224C11.0933 75.672 10.7092 76.344 9.94125 77.24C9.17325 78.136 8.78925 78.808 8.78925 79.256C8.78925 79.768 9.07725 80.216 9.65325 80.6C10.2932 80.92 10.8692 81.048 11.3812 80.984C13.3012 80.984 14.2613 80.792 14.2613 80.408V80.312L13.9733 80.024V79.928C14.2293 79.672 14.5173 79.128 14.8373 78.296C15.2213 77.464 15.5733 76.952 15.8933 76.76C15.8933 76.504 15.9253 76.344 15.9892 76.28V76.184C15.9253 75.992 15.9573 75.704 16.0853 75.32C16.2773 74.872 16.3733 74.552 16.3733 74.36L16.2772 74.168C16.2772 74.04 16.2772 73.944 16.2772 73.88C16.2772 73.816 16.3092 73.72 16.3733 73.592C16.4373 73.464 16.4693 73.368 16.4693 73.304C16.4693 73.112 16.3413 72.6 16.0853 71.768C15.8293 70.872 15.6373 70.424 15.5093 70.424H15.1253L15.0293 70.616L14.8373 70.712C14.7093 70.712 14.5813 70.68 14.4533 70.616C14.3253 70.488 14.2292 70.424 14.1652 70.424C14.0373 70.424 13.9093 70.456 13.7812 70.52C13.7173 70.52 13.6533 70.52 13.5893 70.52ZM45.6533 77.432C45.3973 77.432 45.2693 77.496 45.2693 77.624C45.2693 77.752 45.3653 77.816 45.5573 77.816C45.7493 77.816 45.8453 77.752 45.8453 77.624C45.7813 77.624 45.7493 77.56 45.7493 77.432H45.6533ZM49.7813 75.896C49.5893 75.896 49.4933 75.992 49.4933 76.184C49.4933 76.376 49.6853 76.472 50.0693 76.472C50.1333 76.472 50.2933 76.408 50.5493 76.28V76.184C50.4853 76.184 50.3893 76.216 50.2613 76.28V76.184C50.1333 75.992 49.9733 75.896 49.7813 75.896ZM34.3253 80.024C34.0693 80.088 33.8773 80.12 33.7493 80.12C33.6213 80.12 33.4933 80.12 33.3653 80.12C33.2373 80.056 33.1093 80.024 32.9813 80.024H32.7893C32.7253 80.088 32.5973 80.312 32.4052 80.696C32.2773 81.016 32.1173 81.176 31.9253 81.176C31.7972 81.176 31.7013 81.048 31.6373 80.792C31.5733 80.472 31.5093 80.312 31.4453 80.312C31.1892 80.312 31.0612 80.44 31.0612 80.696C31.0612 80.824 31.1252 80.888 31.2533 80.888C31.4453 81.016 31.5413 81.112 31.5413 81.176V81.272C31.2853 81.528 30.9013 82.296 30.3892 83.576C30.2613 83.768 30.0693 83.896 29.8133 83.96C29.5573 84.088 29.3973 84.216 29.3333 84.344C29.4613 85.048 28.9492 86.04 27.7973 87.32L25.0133 91.832L25.1093 92.024V92.216C25.1093 92.6 24.9813 92.792 24.7253 92.792C24.7253 92.92 24.6933 93.016 24.6293 93.08C24.5653 93.144 24.5013 93.208 24.4373 93.272C24.3733 93.336 24.3093 93.432 24.2453 93.56C23.4773 95.672 22.7413 96.888 22.0373 97.208H21.9412C21.9412 97.272 21.9412 97.368 21.9412 97.496C22.0052 97.624 22.0373 97.72 22.0373 97.784C22.0373 97.976 21.9093 98.232 21.6533 98.552C21.4613 98.872 21.3653 99.16 21.3653 99.416L20.6933 100.088L20.5972 100.184C20.5972 100.248 20.6293 100.312 20.6933 100.376C20.7573 100.504 20.7893 100.6 20.7893 100.664C20.7893 101.048 20.6613 101.24 20.4053 101.24C20.3413 101.24 20.3093 101.208 20.3093 101.144L20.1173 101.048C19.9893 101.048 19.9253 101.112 19.9253 101.24C19.9893 101.688 19.8293 102.296 19.4453 103.064C19.1253 103.832 18.9653 104.408 18.9653 104.792C18.9653 104.92 18.8693 104.984 18.6773 104.984C18.5493 104.984 18.4852 105.016 18.4852 105.08V105.656C18.4852 105.848 18.2613 106.136 17.8133 106.52C17.3653 106.904 17.1413 107.256 17.1413 107.576C17.1413 107.64 17.1413 107.704 17.1413 107.768C17.2053 107.896 17.2373 107.992 17.2373 108.056C17.2373 108.376 17.0453 108.856 16.6613 109.496C16.2773 110.136 16.1172 110.648 16.1812 111.032C15.2213 111.992 14.7733 112.952 14.8373 113.912L14.7413 114.008C14.7413 114.392 14.5493 114.936 14.1652 115.64C13.7812 116.408 13.5893 116.92 13.5893 117.176C13.5893 117.304 13.6213 117.4 13.6853 117.464V117.56C13.6853 117.624 13.6213 117.72 13.4932 117.848C13.4292 117.976 13.3972 118.072 13.3972 118.136C13.3972 118.2 13.3972 118.264 13.3972 118.328L13.4932 118.52V119C13.4932 119.384 13.3012 120.088 12.9173 121.112C12.5972 122.136 12.4372 122.904 12.4372 123.416V124.184C12.4372 124.248 12.4052 124.312 12.3412 124.376C12.2773 124.44 12.2453 124.504 12.2453 124.568H12.1493C12.1493 124.632 12.1813 124.728 12.2453 124.856C12.2453 124.984 12.2133 125.112 12.1493 125.24C12.0852 125.368 12.0532 125.464 12.0532 125.528C12.0532 125.592 12.0532 125.656 12.0532 125.72C12.1172 125.784 12.1493 125.848 12.1493 125.912V126.008C11.8292 126.136 11.6372 126.328 11.5733 126.584V126.776C11.5733 126.84 11.5733 126.968 11.5733 127.16C11.6372 127.352 11.6692 127.512 11.6692 127.64L12.1493 128.12C12.1493 128.568 12.1813 128.92 12.2453 129.176C12.4373 129.24 12.5333 129.56 12.5333 130.136C12.5333 130.2 12.5013 130.264 12.4372 130.328C12.3732 130.456 12.3412 130.584 12.3412 130.712V130.904C12.8532 131.288 13.4932 131.928 14.2613 132.824C15.0933 133.784 15.6053 134.36 15.7973 134.552H16.6613C16.8533 134.488 17.1413 134.296 17.5253 133.976C17.9733 133.656 18.3253 133.496 18.5813 133.496L18.6773 133.4C18.7413 133.336 18.7733 133.272 18.7733 133.208C18.9013 133.08 19.2853 132.824 19.9253 132.44C20.5653 132.12 20.9173 131.928 20.9813 131.864C21.4933 130.968 22.3893 129.72 23.6693 128.12C24.9493 126.52 25.8453 125.304 26.3573 124.472C26.4853 124.216 26.7093 123.704 27.0293 122.936C27.3493 122.168 27.6693 121.496 27.9893 120.92C28.3093 120.408 28.6613 119.992 29.0452 119.672V119.192C29.3013 119 29.5253 118.552 29.7172 117.848C29.9733 117.208 30.2293 116.792 30.4853 116.6C30.4213 115.96 30.8053 115.224 31.6373 114.392V113.336C31.6373 113.208 31.6693 113.112 31.7332 113.048C31.8612 112.984 31.9253 112.92 31.9253 112.856C31.9253 112.792 31.8933 112.696 31.8293 112.568C31.8293 112.504 31.8293 112.44 31.8293 112.376C31.8293 112.248 31.8613 112.184 31.9253 112.184L32.3093 111.8V111.704L32.2133 111.416V111.32C32.2133 111 32.4053 110.488 32.7893 109.784C33.2373 109.144 33.4613 108.664 33.4613 108.344C33.4613 108.28 33.4293 108.184 33.3653 108.056C33.3653 107.928 33.3653 107.832 33.3653 107.768C33.3653 107.576 33.4933 107.16 33.7493 106.52C34.0693 105.944 34.2293 105.528 34.2293 105.272L34.1333 105.176L33.9412 105.08C34.0053 105.016 34.0693 104.952 34.1333 104.888C34.3893 104.76 34.5173 104.632 34.5173 104.504C34.5173 104.376 34.4853 104.216 34.4213 104.024C34.3573 103.832 34.3253 103.704 34.3253 103.64C34.3253 103.384 34.4853 103 34.8053 102.488C35.1252 102.04 35.2852 101.72 35.2852 101.528C35.2852 101.464 35.2533 101.368 35.1893 101.24C35.1893 101.176 35.1893 101.112 35.1893 101.048L35.2852 100.76V99.992C35.2852 99.864 35.3492 99.736 35.4773 99.608C35.6693 99.544 35.7653 99.48 35.7653 99.416C35.7653 99.352 35.7333 99.256 35.6693 99.128C35.6693 99 35.6693 98.904 35.6693 98.84C35.6693 98.648 35.7653 98.36 35.9573 97.976C36.2133 97.592 36.3413 97.368 36.3413 97.304C36.3413 97.24 36.3093 97.144 36.2453 97.016L36.0533 96.92C36.0533 96.856 36.1493 96.44 36.3413 95.672L36.6293 95.48C36.7573 95.288 36.8212 95.128 36.8212 95C36.8212 94.872 36.7573 94.744 36.6293 94.616L36.9173 94.52C37.1093 94.392 37.2053 94.296 37.2053 94.232C37.2053 94.104 37.1413 93.976 37.0133 93.848C36.9493 93.72 36.9173 93.624 36.9173 93.56C36.9173 93.368 36.9493 93.272 37.0133 93.272C37.0133 93.144 36.9813 93.016 36.9173 92.888C36.8533 92.76 36.8212 92.664 36.8212 92.6C36.8212 92.344 36.8853 91.992 37.0133 91.544C37.2053 91.16 37.3013 90.872 37.3013 90.68V89.912C37.3013 89.848 37.2693 89.752 37.2053 89.624C37.1413 89.496 37.1093 89.4 37.1093 89.336C37.1093 89.208 37.1413 89.048 37.2053 88.856C37.3333 88.728 37.3973 88.632 37.3973 88.568C37.3973 88.44 37.3653 88.248 37.3013 87.992C37.2373 87.736 37.2053 87.512 37.2053 87.32C37.2053 87.256 37.2373 87.224 37.3013 87.224L37.3973 87.032C37.3973 86.968 37.3653 86.872 37.3013 86.744C37.2373 86.616 37.2053 86.52 37.2053 86.456C37.2053 86.264 37.3653 86.104 37.6853 85.976C37.6853 85.912 37.6213 85.816 37.4932 85.688C37.3653 85.56 37.3013 85.432 37.3013 85.304C37.3013 85.24 37.3013 85.144 37.3013 85.016C37.3653 84.888 37.3973 84.76 37.3973 84.632C37.3973 84.44 37.3013 84.248 37.1093 84.056C36.9813 83.928 36.9173 83.8 36.9173 83.672C37.0453 83.096 36.8853 82.328 36.4373 81.368C36.0533 80.344 35.5733 79.832 34.9973 79.832C34.8053 79.832 34.5813 79.896 34.3253 80.024ZM25.6853 88.856V88.952L25.9733 89.048C26.0373 89.048 26.0693 88.984 26.0693 88.856C26.0693 88.792 26.0053 88.76 25.8773 88.76V88.664C25.7493 88.664 25.6853 88.728 25.6853 88.856ZM29.1413 82.808C29.1413 83 29.2373 83.096 29.4293 83.096C29.6213 83.096 29.7172 83.064 29.7172 83C29.7172 82.872 29.5253 82.808 29.1413 82.808ZM66.1973 35.672C66.7093 35.544 67.1893 35.48 67.6373 35.48H68.3093C69.0133 35.736 69.3653 36.376 69.3653 37.4C69.3653 37.464 69.3973 37.56 69.4613 37.688C69.5253 37.816 69.5573 37.912 69.5573 37.976C69.5573 38.04 68.7573 38.552 67.1573 39.512C65.5573 40.472 64.7253 40.952 64.6613 40.952C64.5333 41.016 64.4373 41.176 64.3733 41.432C64.3093 41.624 64.1813 41.752 63.9893 41.816C63.6693 41.944 63.3173 42.264 62.9333 42.776C62.5493 43.224 62.1973 43.672 61.8773 44.12C61.6213 44.504 61.4613 44.696 61.3973 44.696C61.2053 44.696 61.1093 44.664 61.1093 44.6L61.2053 44.504V44.408L61.5893 44.024L61.4932 43.928C61.4293 43.8 61.3653 43.736 61.3013 43.736L61.0133 43.832H60.9173L60.6292 44.408V44.6L60.9173 44.888V44.984C60.9173 45.176 60.6293 45.464 60.0533 45.848C59.4773 46.168 59.0293 46.36 58.7093 46.424C58.5813 46.488 58.4213 46.648 58.2293 46.904C58.1013 47.096 57.9733 47.32 57.8453 47.576C57.7173 47.832 57.6213 47.992 57.5573 48.056C57.1093 48.248 56.3733 48.92 55.3493 50.072C54.3253 51.16 53.3973 52.216 52.5653 53.24C51.7333 54.2 51.2853 54.68 51.2213 54.68V54.488C51.1573 54.36 51.0933 54.296 51.0293 54.296C50.9013 54.296 50.8373 54.36 50.8373 54.488C50.8373 54.552 50.8693 54.648 50.9333 54.776L51.0293 54.872C51.0293 55.256 50.5813 55.928 49.6853 56.888C48.7893 57.784 48.1813 58.232 47.8613 58.232L47.7653 58.328C47.5733 58.392 47.4133 58.616 47.2853 59C47.2213 59.32 47.1893 59.512 47.1893 59.576L46.6133 60.152C46.6133 60.216 46.0373 60.92 44.8853 62.264C43.7973 63.544 43.1893 64.248 43.0613 64.376C43.1253 64.568 43.0933 64.728 42.9653 64.856C42.9013 64.984 42.8053 65.08 42.6773 65.144C42.6133 65.144 42.5173 65.176 42.3893 65.24C42.3253 65.304 42.2933 65.368 42.2933 65.432C42.2933 65.496 42.2933 65.56 42.2933 65.624C42.3573 65.688 42.3893 65.752 42.3893 65.816C42.3893 65.944 41.9093 66.648 40.9493 67.928C40.0533 69.208 39.5093 69.88 39.3173 69.944L38.6453 70.232C38.5173 70.296 38.4533 70.456 38.4533 70.712C38.3893 70.776 38.2933 70.808 38.1652 70.808L38.0693 70.904C38.0693 70.968 38.1013 71.032 38.1652 71.096L38.2613 71.192C38.2613 71.704 37.8773 72.344 37.1093 73.112C36.3413 73.88 35.7013 74.232 35.1893 74.168C35.1253 74.296 35.0933 74.424 35.0933 74.552C35.0933 74.68 35.1253 74.872 35.1893 75.128C35.2533 75.32 35.2852 75.448 35.2852 75.512C35.2852 75.64 35.2213 75.8 35.0933 75.992C35.0293 76.184 34.9973 76.344 34.9973 76.472L36.1493 77.816C36.2133 77.816 36.2773 77.784 36.3413 77.72C36.4693 77.656 36.5973 77.624 36.7253 77.624H38.6453C38.8373 77.624 39.0933 77.528 39.4133 77.336H39.7973C40.3093 77.336 41.0133 77.272 41.9093 77.144C42.8693 76.952 43.5413 76.856 43.9253 76.856C45.3973 76.216 46.1973 75.896 46.3253 75.896C46.3893 75.896 46.4533 75.96 46.5173 76.088C46.6453 76.152 46.7413 76.184 46.8053 76.184L46.9013 76.088H46.9973C47.1893 75.896 47.6373 75.608 48.3413 75.224C49.1093 74.84 49.5573 74.552 49.6853 74.36H50.3573C51.1893 73.72 51.7333 73.4 51.9893 73.4C52.1173 73.4 52.2453 73.464 52.3733 73.592C52.5013 73.656 52.6293 73.688 52.7573 73.688C53.0133 73.688 53.3333 73.496 53.7173 73.112C54.1653 72.728 54.5492 72.568 54.8692 72.632L54.9653 72.536C55.4773 71.96 56.3413 71.128 57.5573 70.04C58.7733 68.952 59.5733 68.408 59.9573 68.408C60.1493 68.408 60.3733 68.504 60.6292 68.696C60.9493 68.824 61.2373 68.856 61.4932 68.792C61.5573 68.856 61.6533 69.208 61.7813 69.848C61.9733 70.424 62.0693 70.776 62.0693 70.904C62.0693 71.352 61.0133 72.12 58.9013 73.208C56.7893 74.296 55.5413 74.808 55.1573 74.744C49.1413 77.88 45.3333 79.448 43.7333 79.448C43.6053 79.448 43.4453 79.416 43.2533 79.352C43.0613 79.288 42.9333 79.256 42.8693 79.256C42.7413 79.256 42.4213 79.384 41.9093 79.64C41.4613 79.896 41.1093 80.024 40.8533 80.024C40.7893 80.024 40.6933 80.024 40.5653 80.024C40.4373 79.96 40.3093 79.928 40.1813 79.928C39.9893 79.928 39.7013 79.992 39.3173 80.12H38.3573L38.2613 80.216V80.312C38.2613 80.504 38.3573 80.856 38.5493 81.368C38.7413 81.88 38.8053 82.264 38.7413 82.52C38.9973 82.712 39.1253 83.352 39.1253 84.44V84.536C39.0613 84.664 39.0293 84.76 39.0293 84.824H38.9333C38.9333 84.952 38.9653 85.144 39.0293 85.4C39.1573 85.656 39.2213 85.816 39.2213 85.88C39.2213 86.008 39.1893 86.104 39.1253 86.168C39.0613 86.296 39.0293 86.392 39.0293 86.456C39.0293 86.52 39.0293 86.616 39.0293 86.744C39.0933 86.872 39.1253 86.968 39.1253 87.032C39.1253 87.224 39.0613 87.48 38.9333 87.8C38.8053 88.184 38.7413 88.44 38.7413 88.568V88.664C38.8053 88.728 38.8373 88.792 38.8373 88.856L38.7413 88.952C38.6773 89.08 38.6453 89.176 38.6453 89.24L38.7413 89.336C38.8053 89.464 38.8373 89.56 38.8373 89.624C38.8373 89.688 38.8053 89.848 38.7413 90.104C38.6773 90.424 38.6453 90.648 38.6453 90.776C38.6453 90.84 38.6453 90.904 38.6453 90.968C38.7093 91.096 38.7413 91.192 38.7413 91.256C38.7413 91.576 38.6453 91.736 38.4533 91.736C38.3253 91.736 38.2293 91.672 38.1652 91.544C38.1652 91.416 38.1333 91.352 38.0693 91.352C37.8133 91.352 37.6853 91.448 37.6853 91.64C38.1973 92.152 38.4533 92.536 38.4533 92.792C38.4533 92.92 38.3893 93.112 38.2613 93.368C38.1333 93.624 38.0693 93.784 38.0693 93.848C38.0693 93.976 38.1013 94.168 38.1652 94.424C38.2293 94.68 38.2613 94.872 38.2613 95C38.2613 95.256 38.1653 95.512 37.9733 95.768C37.7813 96.088 37.6853 96.344 37.6853 96.536C37.6853 96.6 37.7173 96.696 37.7813 96.824C37.7813 97.08 37.7173 97.464 37.5893 97.976C37.4613 98.552 37.3973 98.936 37.3973 99.128C37.3973 99.192 37.4293 99.256 37.4932 99.32C37.5573 99.384 37.5893 99.448 37.5893 99.512C37.5893 99.64 37.4933 99.896 37.3013 100.28C37.1733 100.728 37.1093 101.048 37.1093 101.24L37.2053 101.432C37.2053 101.496 37.2053 101.56 37.2053 101.624V101.72C36.7573 101.848 36.5333 102.168 36.5333 102.68C36.5333 102.744 36.5333 102.84 36.5333 102.968C36.5973 103.096 36.6293 103.192 36.6293 103.256C36.6293 103.384 36.5333 103.64 36.3413 104.024C36.1493 104.472 36.0533 104.792 36.0533 104.984C36.0533 105.176 36.0853 105.272 36.1493 105.272V105.368C36.0853 105.368 35.9893 105.496 35.8613 105.752C35.7333 106.072 35.6693 106.264 35.6693 106.328C35.6693 106.392 35.6693 106.52 35.6693 106.712C35.7333 106.904 35.7653 107.064 35.7653 107.192V107.288H35.4773C35.2213 107.288 35.0933 107.352 35.0933 107.48C35.0933 107.544 35.1253 107.64 35.1893 107.768C35.2533 107.896 35.2852 108.024 35.2852 108.152C35.2852 108.28 35.1892 108.376 34.9973 108.44C34.8693 108.568 34.8053 108.664 34.8053 108.728L34.9013 108.92V109.112C34.9013 109.24 34.8373 109.4 34.7093 109.592C34.5813 109.848 34.5493 110.072 34.6132 110.264L34.3253 110.552C34.3893 111.256 34.1333 112.024 33.5573 112.856C33.5573 113.112 33.3333 113.912 32.8853 115.256C32.5013 116.6 32.2453 117.4 32.1173 117.656C31.9253 117.656 31.7973 117.688 31.7332 117.752C31.6693 117.88 31.6373 118.008 31.6373 118.136C31.6373 118.328 31.6053 118.488 31.5413 118.616L30.4853 119.96C30.4853 120.024 30.5173 120.088 30.5813 120.152C30.6453 120.28 30.6773 120.376 30.6773 120.44C30.6773 120.696 30.4213 121.272 29.9093 122.168C29.4613 123.064 29.1093 123.576 28.8532 123.704V124.184L28.3733 124.76C28.1173 124.952 27.8293 125.304 27.5093 125.816C27.1893 126.328 26.9653 126.68 26.8373 126.872C26.9013 127.448 26.2933 128.408 25.0133 129.752C23.7333 131.16 23.0293 132.12 22.9013 132.632C22.3253 133.336 21.7173 133.912 21.0773 134.36C20.4373 134.808 19.5413 135.288 18.3892 135.8C17.3013 136.376 16.5973 136.76 16.2772 136.952C16.1493 136.952 15.9253 136.952 15.6052 136.952C15.3492 137.016 15.1572 137.048 15.0293 137.048C14.8373 137.048 14.5173 136.888 14.0693 136.568C13.6212 136.248 13.2692 136.088 13.0133 136.088H12.8212C12.3733 135.832 11.6693 134.936 10.7092 133.4C9.81325 131.928 9.36525 130.968 9.36525 130.52V130.136V129.944C9.36525 129.432 9.30125 128.696 9.17325 127.736C9.04525 126.84 8.98125 126.136 8.98125 125.624C8.98125 125.112 9.14125 124.792 9.46125 124.664V124.568C9.46125 124.44 9.39725 124.312 9.26925 124.184C9.20525 124.056 9.17325 123.96 9.17325 123.896C9.17325 123.832 9.20525 123.768 9.26925 123.704L9.36525 123.512V123.32C9.30125 123.32 9.26925 123.288 9.26925 123.224C9.26925 122.776 9.58925 121.912 10.2292 120.632C10.8693 119.416 11.1253 118.424 10.9972 117.656C11.7012 116.568 12.0212 115.704 11.9572 115.064L12.3412 114.104C12.2773 113.464 12.5653 112.888 13.2053 112.376C13.2053 112.056 13.3333 111.576 13.5893 110.936C13.9093 110.296 14.0693 109.848 14.0693 109.592C14.0693 109.528 14.0373 109.432 13.9733 109.304C13.9733 109.048 14.0693 108.856 14.2613 108.728L14.8373 108.152L14.9332 107.384C14.9332 107.256 15.0612 107.064 15.3173 106.808C15.5733 106.552 15.7013 106.36 15.7013 106.232L15.6052 105.848V105.752C15.6052 105.624 15.6693 105.496 15.7973 105.368C15.9253 105.24 15.9892 105.08 15.9892 104.888C17.3973 103.096 18.1013 101.656 18.1013 100.568V99.992C18.1013 99.8 18.2933 99.416 18.6773 98.84C19.1253 98.264 19.3813 97.848 19.4453 97.592C19.8293 97.016 20.4693 95.864 21.3653 94.136C22.2613 92.408 23.1253 90.808 23.9573 89.336C24.7893 87.864 25.4933 86.872 26.0693 86.36C26.3253 85.848 26.6453 85.4 27.0293 85.016C26.9653 84.696 27.0933 84.216 27.4133 83.576C27.7973 83 28.1493 82.616 28.4693 82.424L28.5653 82.52H28.6613C28.5333 82.52 28.4693 82.456 28.4693 82.328C28.4693 82.008 28.7573 81.528 29.3333 80.888C29.9093 80.248 30.1973 79.768 30.1973 79.448C30.1973 79.064 29.9413 78.712 29.4293 78.392C28.9173 78.008 28.4693 77.816 28.0853 77.816C27.3173 77.816 26.0053 78.392 24.1493 79.544C22.3573 80.632 21.0773 81.208 20.3093 81.272L18.4852 82.232C16.5013 82.232 15.0933 82.776 14.2613 83.864C14.1972 84.248 13.8132 84.92 13.1092 85.88C12.4692 86.84 11.9892 87.32 11.6692 87.32L11.5733 87.512C11.7653 87.512 11.8613 87.64 11.8613 87.896C11.8613 87.96 11.6053 88.184 11.0933 88.568C10.6453 89.016 10.3893 89.304 10.3252 89.432C10.1972 89.432 10.0052 89.496 9.74925 89.624C9.49325 89.752 9.33325 89.816 9.26925 89.816C9.20525 89.816 9.17325 89.784 9.17325 89.72C9.17325 89.72 9.14125 89.72 9.07725 89.72C8.94925 89.72 8.78925 89.912 8.59725 90.296L8.40525 90.776C8.08525 90.776 7.66925 90.904 7.15725 91.16L6.67725 91.832C6.54925 92.024 6.19725 92.12 5.62125 92.12C5.42925 92.312 5.10925 92.408 4.66125 92.408C4.08525 92.408 3.60525 92.312 3.22125 92.12C2.77325 91.928 2.32525 91.576 1.87725 91.064C1.42925 90.616 1.10925 90.328 0.917249 90.2C0.85325 90.136 0.75725 90.072 0.62925 90.008C0.437249 90.008 0.309249 89.976 0.24525 89.912C0.437249 89.656 0.533249 89.464 0.533249 89.336C0.533249 89.272 0.501249 89.176 0.43725 89.048C0.373249 88.92 0.341249 88.824 0.341249 88.76C0.341249 88.632 0.373249 88.536 0.43725 88.472C0.501249 88.408 0.533249 88.344 0.533249 88.28C0.533249 88.152 0.469249 88.056 0.341249 87.992C0.213249 87.992 0.149249 87.96 0.149249 87.896V87.8C0.341249 87.416 0.62925 86.552 1.01325 85.208C1.26925 84.888 1.52525 84.28 1.78125 83.384C1.97325 82.488 2.16525 81.912 2.35725 81.656C2.42125 81.592 2.54925 81.528 2.74125 81.464C2.86925 81.4 2.96525 81.336 3.02925 81.272C2.96525 81.016 3.06125 80.696 3.31725 80.312C3.57325 79.928 3.70125 79.64 3.70125 79.448H3.60525V79.16C3.60525 78.968 3.79725 78.648 4.18125 78.2C4.62925 77.688 4.85325 77.4 4.85325 77.336L4.75725 77.24C4.75725 77.112 4.75725 77.016 4.75725 76.952C4.75725 76.568 5.01325 76.024 5.52525 75.32C6.10125 74.552 6.38925 74.04 6.38925 73.784C6.38925 73.656 6.35725 73.56 6.29325 73.496C6.22925 73.368 6.19725 73.272 6.19725 73.208V73.112H6.29325C6.61325 72.92 6.86925 72.76 7.06125 72.632C6.99725 72.568 6.96525 72.472 6.96525 72.344V72.152L7.73325 71.864C7.73325 71.608 7.92525 71.16 8.30925 70.52C8.75725 69.88 9.10925 69.528 9.36525 69.464C9.36525 69.4 9.36525 69.368 9.36525 69.368L9.26925 69.176C9.26925 68.984 10.1652 67.992 11.9572 66.2C12.0852 66.2 12.2452 66.104 12.4372 65.912C12.6932 65.72 12.9172 65.624 13.1092 65.624C13.4293 65.624 13.6853 65.72 13.8772 65.912C14.1332 66.04 14.3893 66.264 14.6453 66.584C14.9013 66.904 15.0933 67.128 15.2212 67.256C15.0933 67.384 15.0293 67.608 15.0293 67.928C15.0293 68.248 15.3493 68.472 15.9892 68.6C16.6292 68.728 16.9812 68.92 17.0452 69.176L17.6212 69.752C17.6852 69.816 17.7492 69.976 17.8133 70.232C17.8773 70.488 18.0053 70.68 18.1973 70.808C18.1333 71.128 18.1973 71.608 18.3892 72.248C18.5813 72.824 18.6773 73.24 18.6773 73.496C18.6773 73.88 18.5493 74.072 18.2932 74.072C18.2293 74.072 18.1333 74.04 18.0053 73.976C17.9413 73.976 17.9093 74.04 17.9093 74.168C17.9093 74.296 18.0373 74.392 18.2932 74.456C18.5493 74.52 18.6773 74.616 18.6773 74.744C18.6773 75.32 18.3573 76.248 17.7172 77.528C17.0773 78.744 16.7573 79.512 16.7573 79.832C16.7573 79.96 16.8533 80.024 17.0452 80.024C17.2373 80.024 17.4293 79.96 17.6212 79.832C17.8773 79.64 18.0693 79.544 18.1973 79.544C18.3253 79.544 18.4532 79.576 18.5813 79.64C18.7093 79.64 18.8373 79.64 18.9653 79.64C19.0933 79.64 19.1892 79.608 19.2533 79.544C19.7013 79.032 20.9813 78.488 23.0933 77.912C25.2693 77.272 26.4853 76.728 26.7413 76.28C26.7413 76.024 26.7733 75.864 26.8373 75.8L26.7413 75.608C26.7413 75.416 26.8373 75.16 27.0293 74.84C27.2853 74.456 27.4133 74.168 27.4133 73.976C27.4133 73.912 27.3813 73.848 27.3173 73.784C27.2533 73.656 27.2213 73.56 27.2213 73.496L27.3173 73.4C27.5093 73.464 27.7333 73.432 27.9893 73.304C28.2453 73.176 28.4373 73.112 28.5653 73.112C28.6293 73.112 28.7253 73.144 28.8532 73.208C28.9812 73.272 29.0773 73.304 29.1413 73.304C29.2053 73.304 29.3013 73.304 29.4293 73.304C29.5573 73.24 29.6533 73.208 29.7172 73.208C29.9733 73.208 30.4213 73.432 31.0612 73.88C31.7653 74.328 32.3093 74.552 32.6933 74.552C32.9493 74.552 33.1733 74.424 33.3653 74.168C33.5573 73.912 33.7493 73.56 33.9412 73.112C34.1973 72.664 34.3573 72.408 34.4213 72.344C34.5493 72.152 35.0933 71.352 36.0533 69.944C37.0773 68.472 37.9093 67.448 38.5493 66.872V66.68C38.9333 66.36 39.3813 65.816 39.8933 65.048C40.4693 64.216 40.9173 63.64 41.2373 63.32C41.4293 62.936 42.2293 61.816 43.6373 59.96C43.7013 59.576 44.3093 58.712 45.4613 57.368C46.6773 55.96 47.9893 54.488 49.3973 52.952C50.8693 51.352 51.7333 50.36 51.9893 49.976C52.1173 49.784 52.2453 49.496 52.3733 49.112C52.5653 48.728 52.7572 48.408 52.9493 48.152C53.2053 47.832 53.4933 47.576 53.8133 47.384C54.0053 47.256 54.4853 46.776 55.2533 45.944C56.0853 45.112 56.5013 44.6 56.5013 44.408C56.8213 44.152 57.4613 43.544 58.4212 42.584C59.3813 41.624 60.3093 40.76 61.2053 39.992C62.1013 39.16 62.7093 38.648 63.0293 38.456L63.8933 37.976C64.0213 37.656 64.7893 36.888 66.1973 35.672ZM59.3813 43.736C59.3813 43.672 59.4773 43.64 59.6693 43.64H59.8613L59.7653 43.736C59.7013 43.864 59.6373 43.928 59.5733 43.928C59.4453 43.928 59.3813 43.864 59.3813 43.736ZM59.0933 45.176L59.4773 45.08L59.5733 45.176C59.5093 45.24 59.4453 45.272 59.3813 45.272C59.2533 45.272 59.1573 45.24 59.0933 45.176ZM53.0452 51.8C52.9173 51.8 52.8533 51.768 52.8533 51.704C52.9173 51.64 52.9813 51.608 53.0452 51.608V51.8ZM51.7973 52.28H51.6053H51.7973ZM46.4213 59.96H46.3253H46.4213ZM42.6773 64.088L42.7733 63.992C42.9013 63.992 42.9653 64.024 42.9653 64.088C42.9013 64.152 42.8373 64.184 42.7733 64.184C42.7093 64.184 42.6773 64.152 42.6773 64.088ZM41.8133 65.624C41.6853 65.624 41.6213 65.56 41.6213 65.432C41.7493 65.432 41.8133 65.496 41.8133 65.624ZM14.0693 68.984C14.0693 68.92 14.1333 68.888 14.2613 68.888L14.0693 68.984ZM16.7573 77.816L16.8532 77.72L16.7573 77.816ZM16.0853 78.104C16.0853 78.232 16.0213 78.296 15.8933 78.296C15.7653 78.296 15.7013 78.232 15.7013 78.104H16.0853ZM3.89325 80.024H3.79725V79.928L3.89325 80.024ZM3.60525 80.984L3.79725 80.696C3.79725 80.888 3.73325 80.984 3.60525 80.984ZM11.8613 86.744H11.6692V86.648C11.7332 86.648 11.7973 86.68 11.8613 86.744ZM24.5333 92.888L24.3413 92.792L24.4373 92.696C24.5013 92.696 24.5333 92.76 24.5333 92.888ZM37.3013 96.92L37.2053 96.824V96.536C37.3973 96.536 37.4932 96.568 37.4932 96.632C37.4932 96.824 37.4293 96.92 37.3013 96.92ZM37.1093 99.416C36.9173 99.416 36.8212 99.352 36.8212 99.224C37.0133 99.224 37.1093 99.288 37.1093 99.416ZM34.6132 108.632V108.536V108.632ZM160.948 1.112C161.076 1.112 161.3 0.951996 161.62 0.631996H161.524C161.844 0.887997 162.356 1.016 163.06 1.016L163.348 0.919998C163.412 0.919998 163.476 0.951998 163.54 1.016C163.668 1.016 163.764 1.048 163.828 1.112C163.956 1.112 164.052 1.144 164.116 1.20799C164.244 1.20799 164.372 1.20799 164.5 1.20799L164.692 1.016C164.82 0.951998 164.916 0.919998 164.98 0.919998C165.684 1.432 166.26 1.68799 166.708 1.68799C166.772 1.68799 166.836 1.65599 166.9 1.592C167.028 1.528 167.124 1.496 167.188 1.496C167.444 1.496 167.796 1.656 168.244 1.976C168.372 1.78399 168.468 1.68799 168.532 1.68799C168.724 1.68799 168.948 1.78399 169.204 1.976C169.46 2.168 169.684 2.264 169.876 2.264L169.972 2.16799C170.1 2.16799 170.196 2.16799 170.26 2.16799C170.772 2.16799 171.508 2.488 172.468 3.128C173.428 3.704 174.068 4.024 174.388 4.088C174.388 4.152 174.868 4.856 175.828 6.2C176.788 7.48 177.332 8.152 177.46 8.216C177.972 9.752 178.228 10.84 178.228 11.48C178.228 11.672 178.196 11.832 178.132 11.96V13.688C178.132 14.264 177.844 15.416 177.268 17.144C176.692 18.872 176.404 19.96 176.404 20.408C176.02 20.536 175.38 21.368 174.484 22.904C173.588 24.376 173.108 25.368 173.044 25.88C172.916 26.136 172.532 26.68 171.892 27.512C171.252 28.344 170.868 28.888 170.74 29.144C170.676 29.272 170.548 29.4 170.356 29.528C170.228 29.656 170.1 29.784 169.972 29.912C169.908 29.976 169.844 30.104 169.78 30.296C169.716 30.424 169.684 30.584 169.684 30.776C169.62 30.904 169.204 31.288 168.436 31.928C167.732 32.568 167.38 33.08 167.38 33.464C167.38 33.72 167.412 33.848 167.476 33.848C167.476 34.488 167.284 34.808 166.9 34.808C166.836 34.808 166.74 34.808 166.612 34.808C166.484 34.744 166.388 34.712 166.324 34.712C166.26 34.712 166.228 34.744 166.228 34.808C166.228 34.872 166.228 34.968 166.228 35.096C166.292 35.224 166.324 35.32 166.324 35.384C166.324 35.576 166.292 35.704 166.228 35.768C166.164 35.768 166.036 35.704 165.844 35.576C165.716 35.448 165.588 35.352 165.46 35.288C165.332 35.224 165.236 35.192 165.172 35.192C164.916 35.192 164.66 35.32 164.404 35.576C164.34 35.576 164.276 35.48 164.212 35.288C164.148 35.096 164.052 35 163.924 35L163.732 35.096C163.668 35.032 163.54 34.84 163.348 34.52C163.156 34.136 162.996 33.944 162.868 33.944C162.804 33.944 162.74 33.976 162.676 34.04H162.484C162.292 34.04 162.036 33.816 161.716 33.368C161.396 32.856 161.236 32.504 161.236 32.312C161.236 32.12 161.364 31.96 161.62 31.832C161.94 31.832 162.196 31.704 162.388 31.448C162.644 31.128 162.836 30.712 162.964 30.2C163.156 29.688 163.284 29.336 163.348 29.144C163.476 29.208 163.668 29.4 163.924 29.72C164.244 29.976 164.468 30.104 164.596 30.104C165.108 30.104 165.748 29.464 166.516 28.184C167.284 26.904 167.732 26.232 167.86 26.168C167.988 26.04 168.116 25.944 168.244 25.88C168.436 25.816 168.564 25.784 168.628 25.784C168.692 25.72 168.788 25.656 168.916 25.592C169.044 25.464 169.172 25.272 169.3 25.016C169.748 24.248 170.612 23 171.892 21.272C173.172 19.48 174.132 17.88 174.772 16.472C175.476 15 175.828 13.496 175.828 11.96C175.828 11.128 175.54 9.944 174.964 8.408C174.452 6.872 173.844 6.10399 173.14 6.10399C173.076 6.10399 172.98 6.136 172.852 6.2C172.788 6.264 172.724 6.296 172.66 6.296C172.532 6.232 172.34 6.072 172.084 5.816C171.828 5.496 171.508 5.24 171.124 5.048C170.804 4.792 170.452 4.664 170.068 4.664C170.004 4.664 169.972 4.664 169.972 4.664L169.78 4.75999C169.588 4.75999 169.492 4.72799 169.492 4.664C169.3 4.28 168.884 4.088 168.244 4.088C168.116 4.088 167.924 4.216 167.668 4.472C167.604 4.472 167.508 4.376 167.38 4.184C167.316 3.928 167.22 3.8 167.092 3.8C167.028 3.8 166.964 3.832 166.9 3.89599H166.804C166.548 3.89599 166.228 3.8 165.844 3.608C165.524 3.416 165.268 3.32 165.076 3.32C165.012 3.32 164.884 3.384 164.692 3.51199C164.564 3.576 164.468 3.608 164.404 3.608C164.212 3.608 164.02 3.512 163.828 3.32C163.7 3.12799 163.572 3.03199 163.444 3.03199C163.316 3.03199 163.22 3.12799 163.156 3.32H162.964C162.836 3.32 162.708 3.352 162.58 3.41599C162.452 3.47999 162.324 3.51199 162.196 3.51199C162.132 3.51199 162.1 3.51199 162.1 3.51199L161.908 3.41599C161.844 3.41599 161.748 3.44799 161.62 3.51199C161.556 3.576 161.492 3.608 161.428 3.608C161.364 3.608 161.204 3.576 160.948 3.51199C160.692 3.384 160.532 3.32 160.468 3.32C160.276 3.32 160.052 3.352 159.796 3.41599C159.54 3.41599 159.348 3.41599 159.22 3.41599C159.092 3.544 158.932 3.608 158.74 3.608C158.676 3.608 158.58 3.576 158.452 3.51199C158.324 3.384 158.228 3.32 158.164 3.32C158.1 3.32 158.004 3.32 157.876 3.32L157.78 3.41599C157.716 3.41599 157.62 3.384 157.492 3.32C157.364 3.256 157.268 3.224 157.204 3.224C157.14 3.224 157.012 3.256 156.82 3.32C156.564 3.32 156.436 3.288 156.436 3.224C156.372 3.224 156.276 3.256 156.148 3.32C156.02 3.384 155.924 3.41599 155.86 3.41599C155.796 3.41599 155.7 3.41599 155.572 3.41599C155.508 3.352 155.444 3.32 155.38 3.32C155.316 3.32 155.252 3.352 155.188 3.41599C155.124 3.47999 155.06 3.51199 154.996 3.51199C154.868 3.51199 154.74 3.47999 154.612 3.41599C154.484 3.288 154.388 3.224 154.324 3.224C153.94 3.224 153.652 3.32 153.46 3.51199H153.268C153.14 3.51199 153.012 3.51199 152.884 3.51199C152.756 3.44799 152.66 3.41599 152.596 3.41599C152.532 3.41599 152.436 3.48 152.308 3.608C152.18 3.736 152.052 3.8 151.924 3.8C151.86 3.8 151.764 3.768 151.636 3.704C151.572 3.57599 151.508 3.51199 151.444 3.51199C151.38 3.51199 151.252 3.54399 151.06 3.608C150.932 3.672 150.836 3.704 150.772 3.704H150.676C150.612 3.64 150.548 3.608 150.484 3.608C150.356 3.608 150.164 3.672 149.908 3.8C149.716 3.86399 149.588 3.89599 149.524 3.89599L149.044 3.8H148.756H148.468C148.34 3.86399 148.212 3.96 148.084 4.088C148.02 4.152 147.956 4.184 147.892 4.184L147.7 4.088C147.636 4.024 147.572 3.992 147.508 3.992C147.38 3.992 147.22 4.056 147.028 4.184C146.836 4.248 146.708 4.27999 146.644 4.27999L146.068 4.184C145.876 4.184 145.556 4.248 145.108 4.37599C144.66 4.504 144.34 4.568 144.148 4.568L143.956 4.472C143.828 4.472 143.732 4.472 143.668 4.472C143.604 4.472 143.508 4.504 143.38 4.568C143.252 4.632 143.124 4.664 142.996 4.664L142.708 4.472C142.644 4.472 142.452 4.568 142.132 4.75999C141.876 4.888 141.684 4.952 141.556 4.952C141.492 4.952 141.396 4.92 141.268 4.856L141.076 4.75999C140.948 4.75999 140.756 4.856 140.5 5.048C140.244 5.17599 140.084 5.23999 140.02 5.23999C139.892 5.23999 139.796 5.17599 139.732 5.048H139.54C139.412 5.048 139.252 5.112 139.06 5.23999C138.868 5.304 138.676 5.304 138.484 5.23999C138.484 5.49599 138.388 5.62399 138.196 5.62399H137.812C137.748 5.62399 137.652 5.62399 137.524 5.62399C137.396 5.56 137.3 5.528 137.236 5.528C137.108 5.528 136.884 5.56 136.564 5.62399C136.308 5.68799 136.116 5.71999 135.988 5.71999H135.796C135.476 5.91199 134.9 6.072 134.068 6.2C133.3 6.264 132.756 6.392 132.436 6.58399H131.668C131.604 6.58399 131.508 6.64799 131.38 6.776C131.252 6.904 131.124 6.96799 130.996 6.96799C130.932 6.96799 130.836 6.96799 130.708 6.96799C130.644 6.904 130.58 6.872 130.516 6.872C130.004 6.872 129.62 7 129.364 7.256C129.3 7.256 129.204 7.256 129.076 7.256C129.012 7.192 128.948 7.16 128.884 7.16C128.756 7.16 128.564 7.256 128.308 7.44799C128.052 7.576 127.86 7.64 127.732 7.64L127.54 7.544H127.348C127.22 7.544 127.06 7.64 126.868 7.832C126.676 7.96 126.484 7.992 126.292 7.92799C126.164 8.056 126.068 8.12 126.004 8.12C125.94 8.056 125.78 8.024 125.524 8.024L124.852 8.6C124.852 8.664 124.692 8.696 124.372 8.696C124.052 8.696 123.892 8.664 123.892 8.6C123.828 8.664 123.732 8.72799 123.604 8.79199C123.54 8.856 123.444 8.92 123.316 8.984C123.252 9.048 123.188 9.112 123.124 9.17599C123.06 9.24 122.996 9.272 122.932 9.272C122.612 9.208 122.516 9.17599 122.644 9.17599H122.548C122.42 9.17599 122.292 9.24 122.164 9.368C122.1 9.432 122.036 9.464 121.972 9.464C121.908 9.464 121.844 9.464 121.78 9.464L121.684 9.368C121.172 9.368 120.276 9.688 118.996 10.328C117.78 10.904 116.98 11.192 116.596 11.192L116.212 11.096C116.084 11.096 115.86 11.256 115.54 11.576C115.348 11.576 115.092 11.48 114.772 11.288C114.644 11.352 114.388 11.512 114.004 11.768C113.62 11.96 113.332 12.088 113.14 12.152L112.468 12.44V12.536C112.404 12.536 112.308 12.504 112.18 12.44L112.084 12.344C111.892 12.344 111.668 12.472 111.412 12.728C111.22 12.92 111.092 13.016 111.028 13.016C110.964 13.016 110.9 12.984 110.836 12.92H110.644C110.452 12.92 110.292 13.016 110.164 13.208C110.1 13.336 110.036 13.432 109.972 13.496H109.78C109.652 13.496 109.46 13.432 109.204 13.304C109.012 13.176 108.852 13.112 108.724 13.112C108.596 13.112 108.404 13.304 108.148 13.688C107.956 14.008 107.764 14.168 107.572 14.168C107.38 14.168 107.22 14.04 107.092 13.784C107.028 14.104 106.004 14.776 104.02 15.8C102.036 16.76 100.884 17.208 100.564 17.144C100.5 17.144 100.372 17.24 100.18 17.432C99.9877 17.56 99.8277 17.624 99.6997 17.624L99.5077 17.528C99.4437 17.528 99.3797 17.528 99.3157 17.528C99.1877 17.528 99.0917 17.656 99.0277 17.912C99.0277 18.168 98.9317 18.296 98.7397 18.296H98.6437C98.5797 18.232 98.5157 18.2 98.4517 18.2C98.3877 18.2 98.3237 18.328 98.2597 18.584C98.2597 18.84 98.1957 18.968 98.0677 18.968C98.0037 18.968 97.8757 18.936 97.6837 18.872C97.4917 18.808 97.3317 18.776 97.2037 18.776V19.16C97.1397 19.416 97.0437 19.544 96.9157 19.544C96.2757 19.608 95.6357 19.864 94.9957 20.312C94.4197 20.76 93.8117 21.336 93.1717 22.04C92.5957 22.68 92.1157 23.128 91.7317 23.384C91.2197 23.384 90.8037 23.576 90.4837 23.96C90.1637 24.344 89.8437 24.856 89.5237 25.496C89.2037 26.072 88.9477 26.456 88.7557 26.648C88.6917 26.712 88.5317 26.744 88.2757 26.744C88.0837 26.744 87.9557 26.808 87.8917 26.936L86.7397 29.144C86.7397 29.464 86.6117 29.848 86.3557 30.296C86.0997 30.744 85.8437 30.968 85.5877 30.968C85.5237 30.968 85.4277 30.968 85.2997 30.968L85.2037 30.872C85.2037 31 85.2677 31.192 85.3957 31.448C85.5237 31.64 85.5877 31.768 85.5877 31.832C85.5877 31.896 85.5237 31.992 85.3957 32.12C85.3317 32.184 85.2997 32.312 85.2997 32.504V32.696C85.3637 32.824 85.3957 32.92 85.3957 32.984C85.3957 33.048 85.3317 33.144 85.2037 33.272C85.0757 33.4 85.0117 33.496 85.0117 33.56L85.1077 33.848C85.1077 34.36 85.0117 34.616 84.8197 34.616C84.6917 34.616 84.6277 34.584 84.6277 34.52L84.3397 34.616V35.192L84.4357 35.384C84.4997 35.512 84.5957 35.672 84.7237 35.864C84.8517 36.056 84.9157 36.216 84.9157 36.344C84.9157 36.472 84.7877 36.568 84.5317 36.632C84.3397 36.632 84.2437 36.664 84.2437 36.728L84.1477 37.112C84.1477 37.24 84.3077 37.368 84.6277 37.496C84.6917 37.56 84.7557 37.816 84.8197 38.264C84.9477 38.648 85.0117 38.872 85.0117 38.936L84.9157 39.608C84.8517 40.248 85.2037 41.048 85.9717 42.008C86.0997 42.968 86.7397 44.28 87.8917 45.944C87.9557 46.072 88.1157 46.2 88.3717 46.328C88.6917 46.392 88.8517 46.456 88.8517 46.52C88.8517 46.584 88.7877 46.68 88.6597 46.808C88.5957 46.872 88.5637 46.936 88.5637 47C88.5637 47.128 88.5957 47.192 88.6597 47.192C88.7237 47.32 88.8197 47.448 88.9477 47.576C89.0757 47.64 89.2037 47.736 89.3317 47.864C89.4597 47.992 89.5557 48.088 89.6197 48.152C90.0037 49.112 90.5477 49.592 91.2517 49.592C91.5077 49.784 91.8597 50.168 92.3077 50.744C92.7557 51.32 93.1077 51.704 93.3637 51.896C96.3717 54.2 98.2277 55.48 98.9317 55.736C99.8277 56.44 100.596 56.92 101.236 57.176C101.428 57.176 101.62 57.336 101.812 57.656C102.068 57.976 102.324 58.136 102.58 58.136L102.868 57.848C102.932 57.912 103.028 58.04 103.156 58.232C103.284 58.424 103.38 58.552 103.444 58.616C105.236 59.96 106.484 60.632 107.188 60.632H107.476C107.54 60.632 107.636 60.76 107.764 61.016C107.956 61.272 108.18 61.496 108.436 61.688C108.756 61.88 109.108 61.976 109.492 61.976C110.58 62.872 111.38 63.32 111.892 63.32C111.956 63.32 112.052 63.288 112.18 63.224C112.372 63.224 113.268 63.8 114.868 64.952C116.468 66.04 117.396 66.584 117.652 66.584H118.132C118.324 66.584 118.644 66.84 119.092 67.352C119.604 67.8 119.988 68.024 120.244 68.024C120.308 68.024 120.372 68.024 120.436 68.024C120.564 67.96 120.66 67.928 120.724 67.928C120.852 67.928 121.236 68.248 121.876 68.888C122.26 68.824 122.676 69.08 123.124 69.656C123.572 70.232 123.924 70.52 124.18 70.52C124.308 70.52 124.404 70.488 124.468 70.424C124.724 70.424 125.268 70.872 126.1 71.768C126.996 72.6 127.508 73.016 127.636 73.016C127.7 73.016 127.796 73.016 127.924 73.016L128.02 72.92L128.98 73.784C130.58 75.64 131.732 76.568 132.436 76.568C132.564 76.568 132.692 76.504 132.82 76.376C133.012 76.248 133.204 76.184 133.396 76.184L133.876 75.704C133.94 75.704 134.004 75.736 134.068 75.8C134.196 75.864 134.292 75.896 134.356 75.896C134.612 75.896 134.996 75.736 135.508 75.416C136.084 75.096 136.532 74.936 136.852 74.936C136.916 74.936 137.012 74.936 137.14 74.936L137.236 75.032C137.3 75.032 137.428 74.968 137.62 74.84C137.812 74.712 137.972 74.648 138.1 74.648L138.292 74.744C138.356 74.744 138.42 74.744 138.484 74.744C138.676 74.744 138.932 74.616 139.252 74.36C139.636 74.104 139.924 73.976 140.116 73.976C140.18 73.976 140.244 74.008 140.308 74.072C140.436 74.136 140.532 74.168 140.596 74.168C140.724 74.168 140.82 74.072 140.884 73.88C141.012 73.624 141.108 73.496 141.172 73.496C141.428 73.496 141.78 73.4 142.228 73.208C142.676 72.952 142.996 72.824 143.188 72.824C143.188 72.824 143.252 72.856 143.38 72.92L143.572 73.016C144.02 73.016 144.724 72.856 145.684 72.536C146.644 72.152 147.284 71.768 147.604 71.384C147.732 71.384 147.86 71.416 147.988 71.48C148.116 71.544 148.212 71.576 148.276 71.576C148.66 71.576 149.236 71.416 150.004 71.096C150.836 70.712 151.476 70.52 151.924 70.52C151.988 70.52 152.084 70.552 152.212 70.616C152.34 70.616 152.468 70.616 152.596 70.616C152.788 70.616 153.044 70.52 153.364 70.328C153.684 70.072 153.908 69.944 154.036 69.944H154.228C154.292 70.008 154.356 70.04 154.42 70.04C154.548 70.04 154.676 69.976 154.804 69.848C154.996 69.72 155.124 69.656 155.188 69.656C155.764 69.592 156.308 69.432 156.82 69.176L157.972 69.08C158.036 69.016 158.228 68.952 158.548 68.888C158.868 68.76 159.092 68.6 159.22 68.408C159.412 68.6 159.604 68.696 159.796 68.696C159.86 68.696 159.924 68.664 159.988 68.6C160.116 68.472 160.212 68.408 160.276 68.408H161.716C161.908 68.408 162.164 68.216 162.484 67.832C162.804 67.384 163.092 67.16 163.348 67.16C163.476 67.16 163.668 67.224 163.924 67.352C164.18 67.416 164.372 67.448 164.5 67.448C164.564 67.448 164.628 67.384 164.692 67.256C164.82 67.064 164.948 66.968 165.076 66.968C165.204 66.968 165.428 67 165.748 67.064C166.068 67.128 166.324 67.16 166.516 67.16C166.58 67.16 166.708 67.096 166.9 66.968C167.156 66.84 167.348 66.776 167.476 66.776L168.244 67.16C168.372 67.16 168.532 67.128 168.724 67.064C168.98 66.936 169.204 66.872 169.396 66.872C169.652 66.808 169.908 66.584 170.164 66.2C170.292 66.2 170.388 66.264 170.452 66.392C170.58 66.456 170.676 66.488 170.74 66.488C170.932 66.488 171.06 66.36 171.124 66.104C171.188 65.784 171.284 65.592 171.412 65.528L171.508 65.624C171.636 65.688 171.732 65.72 171.796 65.72C172.052 65.72 172.18 65.624 172.18 65.432C172.244 65.176 172.372 65.048 172.564 65.048L173.044 64.664H173.236L174.292 65.24C174.612 65.368 174.868 65.56 175.06 65.816C175.38 66.52 175.7 67.064 176.02 67.448C176.404 67.768 176.66 67.992 176.788 68.12V68.312C176.788 68.376 176.756 68.504 176.692 68.696C176.628 68.888 176.596 69.048 176.596 69.176C176.596 69.304 176.66 69.496 176.788 69.752C176.916 70.008 176.98 70.232 176.98 70.424C176.98 70.616 176.916 70.712 176.788 70.712C176.724 70.712 176.628 70.648 176.5 70.52C176.372 70.392 176.276 70.328 176.212 70.328C175.892 70.328 175.668 70.488 175.54 70.808C175.476 70.808 175.38 70.808 175.252 70.808C175.188 70.744 175.124 70.712 175.06 70.712L174.772 71.288L174.58 71.576C174.516 71.512 174.356 71.384 174.1 71.192L173.716 70.904L173.524 70.808C173.332 70.744 173.204 70.84 173.14 71.096C173.076 71.288 173.012 71.384 172.948 71.384C172.884 71.384 172.852 71.352 172.852 71.288C172.724 71.288 172.468 71.416 172.084 71.672C171.764 71.864 171.604 71.992 171.604 72.056C171.604 72.44 171.764 72.952 172.084 73.592C172.468 74.232 172.66 74.712 172.66 75.032C172.66 76.824 172.372 77.944 171.796 78.392V78.872C171.796 79 171.348 79.704 170.452 80.984C169.62 82.2 169.076 82.936 168.82 83.192C168.5 83.128 168.148 83.288 167.764 83.672C167.38 84.056 167.092 84.28 166.9 84.344C166.708 84.408 166.612 84.664 166.612 85.112C166.548 85.112 166.484 85.08 166.42 85.016C166.356 84.952 166.292 84.92 166.228 84.92C165.908 84.92 165.684 84.92 165.556 84.92C165.492 84.984 165.428 85.112 165.364 85.304C165.3 85.496 165.236 85.656 165.172 85.784C164.916 85.912 164.692 85.976 164.5 85.976C164.436 85.976 164.34 85.944 164.212 85.88C164.148 86.2 163.54 86.84 162.388 87.8C162.324 87.8 162.26 87.704 162.196 87.512C162.132 87.384 162.068 87.32 162.004 87.32L161.908 87.512C161.78 87.64 161.716 87.8 161.716 87.992C161.588 87.992 161.46 87.928 161.332 87.8C161.204 87.736 161.108 87.704 161.044 87.704L160.66 87.992C160.596 88.056 160.5 88.088 160.372 88.088C159.732 88.088 158.868 87 157.78 84.824C157.78 84.632 157.748 84.312 157.684 83.864C157.62 83.416 157.588 83.064 157.588 82.808C157.588 82.616 157.652 82.392 157.78 82.136C157.908 81.816 157.972 81.56 157.972 81.368C158.036 81.24 158.228 80.984 158.548 80.6C158.868 80.152 159.156 79.736 159.412 79.352C159.732 78.904 159.892 78.616 159.892 78.488C159.892 78.36 160.052 78.168 160.372 77.912L160.756 77.528V76.664C160.948 76.536 161.268 76.184 161.716 75.608C162.164 75.032 162.58 74.488 162.964 73.976C163.412 73.4 163.668 73.112 163.732 73.112L163.924 73.208C164.18 73.208 164.468 72.952 164.788 72.44C165.172 71.864 165.364 71.448 165.364 71.192V71.096C165.3 70.968 165.268 70.872 165.268 70.808C165.268 70.68 165.364 70.616 165.556 70.616C165.62 70.616 165.684 70.648 165.748 70.712C165.812 70.776 165.876 70.808 165.94 70.808C165.94 69.912 165.748 69.464 165.364 69.464C164.98 69.848 164.692 70.04 164.5 70.04L164.404 69.944C164.276 69.816 164.18 69.752 164.116 69.752C163.988 69.752 163.86 69.816 163.732 69.944C163.604 70.008 163.444 70.008 163.252 69.944L162.388 70.232C162.324 70.296 162.228 70.296 162.1 70.232L162.004 70.136C161.812 70.136 161.524 70.232 161.14 70.424C160.82 70.552 160.596 70.616 160.468 70.616C160.404 70.616 160.308 70.616 160.18 70.616C160.116 70.552 160.052 70.52 159.988 70.52C159.86 70.52 159.796 70.584 159.796 70.712C159.732 70.712 159.668 70.712 159.604 70.712L159.412 70.616C159.284 70.616 159.188 70.68 159.124 70.808C159.06 70.936 158.964 71 158.836 71C158.708 71 158.58 70.968 158.452 70.904C158.324 70.776 158.196 70.712 158.068 70.712C157.748 70.712 157.204 70.904 156.436 71.288C155.668 71.672 155.06 71.864 154.612 71.864C154.484 71.928 154.324 72.024 154.132 72.152C153.94 72.216 153.812 72.248 153.748 72.248C153.556 72.248 153.46 72.216 153.46 72.152H153.076H152.788L152.404 72.632C152.276 72.632 152.148 72.6 152.02 72.536L151.828 72.44C151.508 72.44 151.156 72.632 150.772 73.016H150.1L150.004 72.92C149.876 72.856 149.812 72.792 149.812 72.728C149.684 72.728 149.396 72.92 148.948 73.304C148.5 73.624 148.18 73.784 147.988 73.784C147.796 73.592 147.54 73.496 147.22 73.496C147.028 73.496 146.644 73.656 146.068 73.976C145.492 74.296 145.076 74.456 144.82 74.456C144.628 74.456 144.532 74.424 144.532 74.36L144.148 74.648C143.252 74.648 142.452 75 141.748 75.704C141.684 75.704 141.588 75.672 141.46 75.608C141.332 75.544 141.236 75.512 141.172 75.512C140.916 75.512 140.596 75.672 140.212 75.992C139.828 76.248 139.476 76.376 139.156 76.376C139.092 76.376 138.996 76.344 138.868 76.28C138.612 76.28 138.388 76.44 138.196 76.76C138.068 76.76 137.844 76.824 137.524 76.952C137.204 77.016 137.012 77.048 136.948 77.048L136.564 76.664C136.436 76.664 136.244 76.856 135.988 77.24C135.796 77.56 135.668 77.72 135.604 77.72H135.22L134.836 78.104C134.58 78.104 134.452 77.912 134.452 77.528C134.388 77.592 134.292 77.784 134.164 78.104C134.1 78.36 134.036 78.52 133.972 78.584L134.932 80.12C135.572 81.08 136.212 82.104 136.852 83.192C137.556 84.344 137.94 85.048 138.004 85.304C138.068 85.944 138.26 86.936 138.58 88.28C138.9 89.688 139.124 90.776 139.252 91.544C139.316 92.12 139.188 92.984 138.868 94.136C138.612 95.288 138.484 96.12 138.484 96.632C138.356 96.824 138.228 97.112 138.1 97.496C137.972 97.88 137.876 98.168 137.812 98.36L137.62 98.456C137.556 98.456 137.524 98.488 137.524 98.552L137.14 99.608C137.14 100.056 136.948 100.568 136.564 101.144C136.244 101.784 135.796 102.424 135.22 103.064C134.644 103.768 134.292 104.248 134.164 104.504C133.908 104.568 133.652 104.792 133.396 105.176C133.204 105.624 132.948 105.848 132.628 105.848C132.18 106.168 131.572 106.776 130.804 107.672C130.1 108.568 129.556 109.144 129.172 109.4C127.636 110.424 126.836 110.968 126.772 111.032C126.516 110.968 126.26 111.064 126.004 111.32C125.812 111.64 125.652 111.8 125.524 111.8C125.396 111.8 125.3 111.768 125.236 111.704C124.724 111.704 124.052 112.088 123.22 112.856C122.388 113.624 121.748 114.008 121.3 114.008H121.012C120.564 114.456 119.988 114.68 119.284 114.68C119.028 114.68 118.58 114.872 117.94 115.256C117.364 115.64 116.916 115.8 116.596 115.736C115.892 116.248 115.188 116.504 114.484 116.504C114.356 116.504 114.1 116.632 113.716 116.888C113.332 117.208 113.108 117.368 113.044 117.368H112.852C112.788 117.368 112.692 117.368 112.564 117.368L112.468 117.272C112.148 117.272 111.732 117.368 111.22 117.56C110.708 117.752 110.324 117.848 110.068 117.848C110.004 117.848 109.908 117.816 109.78 117.752C109.716 117.752 109.652 117.752 109.588 117.752C109.332 117.752 108.852 117.88 108.148 118.136C107.508 118.456 107.124 118.648 106.996 118.712C106.804 118.712 106.676 118.68 106.612 118.616C106.548 118.616 106.452 118.68 106.324 118.808C106.196 118.936 106.1 119 106.036 119C105.972 119 105.908 118.968 105.844 118.904H105.652C105.46 118.904 105.204 118.936 104.884 119C104.564 119.128 104.34 119.192 104.212 119.192C104.148 119.192 104.052 119.16 103.924 119.096C103.86 119.096 103.796 119.096 103.732 119.096C103.604 119.096 103.476 119.16 103.348 119.288C103.22 119.416 103.124 119.48 103.06 119.48H102.292L102.004 119.288C101.812 119.288 101.556 119.32 101.236 119.384C100.98 119.448 100.788 119.48 100.66 119.48C100.596 119.48 100.468 119.448 100.276 119.384C100.148 119.384 100.02 119.384 99.8917 119.384C99.5717 119.384 99.4117 119.448 99.4117 119.576C99.3477 119.576 99.2517 119.544 99.1237 119.48C99.0597 119.48 98.9957 119.48 98.9317 119.48H98.6437C98.5797 119.48 98.4837 119.544 98.3557 119.672L98.1637 119.576C98.0997 119.512 98.0357 119.48 97.9717 119.48L97.7797 119.576C97.7157 119.64 97.6517 119.672 97.5877 119.672C97.5237 119.672 97.4277 119.608 97.2997 119.48C97.1717 119.416 97.0757 119.384 97.0117 119.384L96.9157 119.48C96.8517 119.48 96.7877 119.48 96.7237 119.48C96.5317 119.48 96.2117 119.384 95.7637 119.192C95.3797 119.064 95.1237 119 94.9957 119L94.6117 119.192H94.2277C93.9717 119.192 93.5877 119.096 93.0757 118.904C92.5637 118.776 92.1797 118.712 91.9237 118.712H91.7317L91.4437 118.52C91.2517 118.392 91.1237 118.328 91.0597 118.328C90.9957 118.328 90.8997 118.328 90.7717 118.328C90.7077 118.392 90.6437 118.424 90.5797 118.424C88.7877 116.888 87.6997 116.024 87.3157 115.832C85.9717 114.232 85.2997 111.96 85.2997 109.016C85.2997 108.952 85.2677 108.856 85.2037 108.728C85.1397 108.6 85.1077 108.504 85.1077 108.44C85.1077 106.52 85.4597 104.952 86.1637 103.736C86.2277 103.608 86.5157 103.192 87.0277 102.488C87.6037 101.784 87.8917 101.336 87.8917 101.144V100.856C88.3397 100.6 88.9157 100.088 89.6197 99.32C90.3237 98.552 90.7397 98.104 90.8677 97.976C90.9957 97.656 91.2837 97.496 91.7317 97.496C91.7957 97.432 91.8597 97.368 91.9237 97.304C92.0517 97.24 92.1477 97.144 92.2117 97.016C92.3397 96.888 92.4357 96.792 92.4997 96.728C92.7557 96.6 93.6197 95.928 95.0917 94.712C96.6277 93.56 97.4917 92.984 97.6837 92.984C97.7477 92.984 97.8437 92.984 97.9717 92.984L98.0677 93.08H98.2597C98.3877 92.824 99.2517 92.152 100.852 91.064C102.452 89.976 103.348 89.432 103.54 89.432C103.604 89.432 103.7 89.432 103.828 89.432C103.956 89.496 104.052 89.528 104.116 89.528C104.308 89.528 104.756 89.24 105.46 88.664C106.164 88.088 106.676 87.8 106.996 87.8C107.124 87.8 107.22 87.832 107.284 87.896L107.38 87.608C107.572 87.608 107.7 87.512 107.764 87.32C107.892 87.128 108.02 87 108.148 86.936L108.34 87.032H108.532C108.724 87.032 109.3 86.744 110.26 86.168C111.22 85.656 111.924 85.432 112.372 85.496L112.756 85.112C112.948 84.856 113.172 84.632 113.428 84.44C113.748 84.312 114.068 84.248 114.388 84.248H114.676L115.252 83.672C115.508 83.608 116.084 83.32 116.98 82.808C117.94 82.296 118.58 82.04 118.9 82.04H119.092C119.22 82.104 119.316 82.136 119.38 82.136C119.572 81.944 119.764 81.816 119.956 81.752C120.148 81.752 120.436 81.624 120.82 81.368C121.268 81.048 121.652 80.76 121.972 80.504L122.548 80.024C122.612 80.024 122.708 80.088 122.836 80.216C123.028 80.344 123.188 80.408 123.316 80.408C123.444 80.408 123.508 80.312 123.508 80.12C123.572 79.928 123.636 79.832 123.7 79.832C123.764 79.832 123.828 79.864 123.892 79.928H124.084C124.404 79.928 124.788 79.768 125.236 79.448C125.748 79.064 126.196 78.872 126.58 78.872C126.58 78.936 126.644 78.968 126.772 78.968C127.028 79.032 127.284 78.904 127.54 78.584C127.86 78.2 128.116 78.008 128.308 78.008C128.372 78.008 128.468 78.04 128.596 78.104C128.724 78.104 128.82 78.104 128.884 78.104C129.076 78.104 129.172 78.072 129.172 78.008L129.46 77.816C129.588 77.752 129.716 77.688 129.844 77.624L130.036 77.528V76.952C130.036 76.888 129.94 76.856 129.748 76.856C129.684 76.856 129.652 76.856 129.652 76.856L129.46 76.952C129.396 76.952 129.332 76.824 129.268 76.568C129.268 76.312 129.204 76.184 129.076 76.184C128.884 76.184 128.756 76.216 128.692 76.28L127.54 75.224C126.772 74.52 125.972 73.816 125.14 73.112C124.308 72.344 123.764 71.96 123.508 71.96L123.412 72.056C123.22 72.056 122.26 71.416 120.532 70.136C118.804 68.856 117.908 68.216 117.844 68.216C117.78 68.216 117.748 68.248 117.748 68.312L117.556 68.408C117.428 68.408 117.3 68.312 117.172 68.12C117.108 67.864 117.012 67.736 116.884 67.736L116.596 67.832C116.468 67.768 116.404 67.704 116.404 67.64C116.148 67.64 116.02 67.544 116.02 67.352C115.956 67.352 115.892 67.384 115.828 67.448H115.636C115.572 67.448 115.444 67.32 115.252 67.064C115.124 66.744 115.028 66.584 114.964 66.584C114.9 66.584 114.804 66.616 114.676 66.68C114.548 66.68 114.42 66.616 114.292 66.488C114.164 66.424 114.068 66.392 114.004 66.392C113.94 66.392 113.908 66.424 113.908 66.488L113.716 66.584L112.852 65.72C112.276 65.208 111.828 64.952 111.508 64.952L111.316 65.048C111.252 65.048 111.22 65.08 111.22 65.144C111.028 65.144 110.836 65.08 110.644 64.952C110.452 64.824 110.26 64.664 110.068 64.472C109.876 64.216 109.748 64.056 109.684 63.992H109.492C108.788 63.992 107.54 63.384 105.748 62.168C104.02 60.888 102.836 60.248 102.196 60.248C102.004 59.864 101.684 59.512 101.236 59.192C100.788 58.872 100.18 58.52 99.4117 58.136C98.6437 57.752 98.1957 57.528 98.0677 57.464L96.7237 56.12C96.5957 56.12 96.4677 56.184 96.3397 56.312C96.0837 56.312 95.8597 56.088 95.6677 55.64C95.5397 55.192 95.4117 54.968 95.2837 54.968H94.4197C94.3557 55.096 94.2277 55.16 94.0357 55.16C93.8437 55.16 93.7157 54.936 93.6517 54.488C93.5877 53.976 93.4597 53.72 93.2677 53.72C93.2037 53.72 93.1077 53.752 92.9797 53.816L92.8837 53.912C89.2997 51.16 86.9637 48.92 85.8757 47.192C85.6837 46.744 85.2677 46.136 84.6277 45.368C84.0517 44.536 83.6997 43.928 83.5717 43.544C82.6117 41.368 82.1317 38.84 82.1317 35.96C82.1317 35.896 82.1637 35.768 82.2277 35.576C82.3557 35.32 82.4197 35.128 82.4197 35C82.4197 34.936 82.3877 34.808 82.3237 34.616C82.3237 34.36 82.3237 34.168 82.3237 34.04C82.3237 33.848 82.3877 33.56 82.5157 33.176C82.6437 32.792 82.7077 32.472 82.7077 32.216C83.0277 31.96 83.1877 31.704 83.1877 31.448C83.2517 31.32 83.2837 31.192 83.2837 31.064C83.4757 29.912 84.7877 27.736 87.2197 24.536C89.7157 21.272 91.5077 19.672 92.5957 19.736C92.7237 19.672 92.9157 19.48 93.1717 19.16C93.4277 18.776 93.6197 18.552 93.7477 18.488C94.0037 18.36 94.7077 17.976 95.8597 17.336C97.0117 16.696 97.5877 16.344 97.5877 16.28L97.8757 16.376C97.8757 16.44 97.9397 16.472 98.0677 16.472C98.3237 16.472 98.7717 16.216 99.4117 15.704C100.116 15.192 100.564 14.936 100.756 14.936C100.884 15 100.98 15.032 101.044 15.032L101.524 14.552C101.716 14.552 101.94 14.456 102.196 14.264C102.452 14.008 102.644 13.88 102.772 13.88C103.028 13.944 103.124 13.976 103.06 13.976H103.252C103.7 13.976 104.084 13.752 104.404 13.304C104.468 13.304 104.532 13.336 104.596 13.4C104.66 13.4 104.724 13.4 104.788 13.4C105.044 13.4 105.428 13.208 105.94 12.824C106.516 12.44 106.932 12.248 107.188 12.248L107.284 12.344H107.38C107.636 12.088 107.828 11.96 107.956 11.96C108.404 11.96 108.948 11.64 109.588 11C109.652 11 109.684 11 109.684 11L109.876 11.096H110.644C111.028 11.096 111.22 11.032 111.22 10.904C111.22 10.584 111.284 10.36 111.412 10.232C111.604 10.296 111.764 10.296 111.892 10.232C112.02 10.104 112.116 10.04 112.18 10.04L112.276 10.136C112.34 10.2 112.404 10.232 112.468 10.232C112.532 10.232 112.628 10.2 112.756 10.136C112.884 10.072 112.98 10.04 113.044 10.04C113.108 10.04 113.172 10.072 113.236 10.136C113.3 10.136 113.364 10.136 113.428 10.136C113.492 10.136 113.556 10.04 113.62 9.848C113.684 9.592 113.78 9.464 113.908 9.464C113.972 9.528 114.164 9.56 114.484 9.56C114.612 9.56 114.804 9.496 115.06 9.368C115.316 9.176 115.54 9.08 115.732 9.08C115.796 9.08 115.828 9.08 115.828 9.08L116.02 9.17599C116.404 9.17599 116.916 8.984 117.556 8.6C118.196 8.216 118.676 8.024 118.996 8.024C119.956 8.024 120.692 7.768 121.204 7.256C121.268 7.256 121.332 7.288 121.396 7.352H121.588C122.036 7.352 122.708 7.128 123.604 6.68C124.5 6.168 125.108 5.912 125.428 5.912C125.492 5.912 125.556 5.944 125.62 6.008C125.748 6.07199 125.844 6.10399 125.908 6.10399C126.036 6.10399 126.164 6.07199 126.292 6.008C126.484 5.88 126.612 5.816 126.676 5.816H126.772C126.9 5.88 126.996 5.912 127.06 5.912C127.124 5.912 127.188 5.848 127.252 5.71999C127.316 5.592 127.38 5.528 127.444 5.528C127.508 5.528 127.572 5.56 127.636 5.62399C127.764 5.62399 127.86 5.62399 127.924 5.62399C128.308 5.62399 128.98 5.46399 129.94 5.144C130.9 4.824 131.604 4.664 132.052 4.664C132.244 4.28 132.532 4.088 132.916 4.088H133.108C133.172 4.152 133.236 4.184 133.3 4.184C133.428 4.184 133.492 4.12 133.492 3.992C133.62 3.864 133.716 3.8 133.78 3.8C133.844 3.8 133.94 3.832 134.068 3.89599H134.452C134.708 3.89599 135.124 3.832 135.7 3.704C136.276 3.512 136.724 3.41599 137.044 3.41599H137.332L137.716 3.03199C137.908 3.096 137.972 3.128 137.908 3.128H138.004H138.292C138.484 3.128 138.74 3.064 139.06 2.936C139.38 2.808 139.636 2.744 139.828 2.744H140.02L140.212 2.84C140.34 2.84 140.564 2.776 140.884 2.648C141.204 2.456 141.46 2.36 141.652 2.36C141.716 2.36 141.78 2.392 141.844 2.456C141.972 2.51999 142.068 2.55199 142.132 2.55199C142.324 2.55199 142.548 2.488 142.804 2.36C143.06 2.168 143.252 2.07199 143.38 2.07199C143.444 2.07199 143.508 2.10399 143.572 2.16799C143.7 2.232 143.828 2.264 143.956 2.264C144.02 2.264 144.084 2.232 144.148 2.16799C144.276 2.10399 144.372 2.07199 144.436 2.07199C144.5 2.07199 144.628 2.10399 144.82 2.16799C145.076 2.232 145.268 2.264 145.396 2.264C145.652 2.264 146.164 2.136 146.932 1.88C147.7 1.624 148.276 1.496 148.66 1.496L148.852 1.592C148.916 1.592 148.98 1.592 149.044 1.592C149.108 1.592 149.204 1.56 149.332 1.496C149.524 1.432 149.684 1.4 149.812 1.4H150.772L150.964 1.496C151.092 1.56 151.188 1.592 151.252 1.592C151.316 1.592 151.38 1.56 151.444 1.496C151.508 1.368 151.572 1.304 151.636 1.304C151.7 1.304 151.796 1.336 151.924 1.4C152.052 1.464 152.148 1.496 152.212 1.496C152.34 1.56 152.436 1.496 152.5 1.304C152.628 1.176 152.724 1.112 152.788 1.112C152.852 1.112 152.948 1.144 153.076 1.20799C153.204 1.272 153.332 1.304 153.46 1.304C153.524 1.304 153.588 1.272 153.652 1.20799C153.78 1.144 153.876 1.112 153.94 1.112L154.036 1.20799C154.164 1.20799 154.26 1.20799 154.324 1.20799C154.388 1.20799 154.516 1.17599 154.708 1.112C154.964 1.048 155.156 1.016 155.284 1.016L155.38 1.20799C155.444 1.272 155.508 1.304 155.572 1.304C155.636 1.304 155.796 1.24 156.052 1.112L156.916 0.919998C157.172 1.048 157.428 1.112 157.684 1.112C157.812 1.112 157.876 1.08 157.876 1.016H158.74C158.804 1.016 158.868 1.016 158.932 1.016C158.996 0.951998 159.06 0.919998 159.124 0.919998C159.188 0.919998 159.284 0.951998 159.412 1.016C159.54 1.08 159.636 1.112 159.7 1.112C159.764 1.112 159.86 1.08 159.988 1.016C160.18 0.951998 160.34 0.919998 160.468 0.919998C160.532 0.919998 160.596 0.951998 160.66 1.016C160.788 1.08 160.884 1.112 160.948 1.112ZM136.564 4.568C136.564 4.76 136.628 4.856 136.756 4.856C136.82 4.856 136.852 4.792 136.852 4.664C136.852 4.536 136.788 4.472 136.66 4.472L136.564 4.568ZM135.124 5.048H135.028H135.124ZM174.58 18.872H174.676C174.612 18.872 174.58 18.84 174.58 18.776V18.872ZM156.724 71.192C156.724 71.256 156.756 71.288 156.82 71.288C156.82 71.096 156.788 71 156.724 71V71.192ZM149.044 72.536L148.948 72.632L149.044 72.728V72.536ZM169.204 73.208C168.884 73.272 168.5 73.304 168.052 73.304C167.988 73.496 167.7 73.72 167.188 73.976C166.74 74.232 166.452 74.424 166.324 74.552C166.324 75.064 166.26 75.352 166.132 75.416C165.62 75.416 164.916 75.928 164.02 76.952C163.188 77.976 162.708 78.552 162.58 78.68C162.58 79.192 162.26 79.864 161.62 80.696C161.044 81.528 160.756 82.232 160.756 82.808C160.756 83.448 161.14 83.832 161.908 83.96C162.676 83.96 164.02 83.064 165.94 81.272C167.924 79.48 168.916 78.2 168.916 77.432C168.916 77.176 169.108 76.856 169.492 76.472C169.94 76.024 170.164 75.608 170.164 75.224C170.164 73.88 169.844 73.208 169.204 73.208ZM134.356 76.856C134.356 76.984 134.42 77.048 134.548 77.048C134.612 77.048 134.644 76.92 134.644 76.664C134.644 76.6 134.612 76.536 134.548 76.472L134.452 76.664L134.356 76.856ZM131.572 78.776C131.444 78.84 131.316 78.936 131.188 79.064C131.06 79.192 130.964 79.256 130.9 79.256L130.708 79.16C130.644 79.16 130.548 79.224 130.42 79.352L130.228 79.544C130.1 79.416 130.004 79.352 129.94 79.352C129.812 79.352 129.684 79.448 129.556 79.64C129.492 79.832 129.428 79.928 129.364 79.928C129.3 79.928 129.204 79.928 129.076 79.928L128.98 79.832C128.276 79.832 127.06 80.344 125.332 81.368C123.668 82.328 122.452 82.808 121.684 82.808L121.588 82.712C121.14 82.712 120.788 82.968 120.532 83.48C120.404 83.416 120.212 83.416 119.956 83.48C119.764 83.608 119.604 83.672 119.476 83.672L119.284 83.576C119.22 83.576 119.156 83.576 119.092 83.576C119.028 83.576 118.868 83.672 118.612 83.864C118.356 84.056 118.1 84.248 117.844 84.44C117.588 84.696 117.396 84.856 117.268 84.92C116.948 84.984 116.692 85.112 116.5 85.304H116.212C116.084 85.304 115.956 85.272 115.828 85.208C115.764 85.208 115.7 85.208 115.636 85.208C115.508 85.208 115.188 85.368 114.676 85.688C114.228 86.072 113.908 86.264 113.716 86.264H113.62C113.556 86.2 113.492 86.168 113.428 86.168C113.3 86.168 112.852 86.456 112.084 87.032C111.38 87.672 110.772 87.992 110.26 87.992C110.132 88.056 109.908 88.216 109.588 88.472C109.332 88.792 109.14 89.016 109.012 89.144C108.5 89.144 107.892 89.368 107.188 89.816C106.548 90.264 105.972 90.52 105.46 90.584C105.14 91.096 104.884 91.352 104.692 91.352C104.564 91.352 104.436 91.32 104.308 91.256C104.18 91.192 104.052 91.16 103.924 91.16C103.796 91.16 103.732 91.192 103.732 91.256L103.156 91.832C103.028 91.832 101.716 92.728 99.2197 94.52C96.7237 96.312 95.3157 97.4 94.9957 97.784C92.8197 99.192 90.7397 101.208 88.7557 103.832C88.5637 104.024 88.3077 104.6 87.9877 105.56C87.7317 106.52 87.4757 107.064 87.2197 107.192V107.48C87.2197 107.544 87.2197 107.64 87.2197 107.768C87.2837 107.896 87.3157 107.992 87.3157 108.056C87.3157 108.184 87.2517 108.344 87.1237 108.536C87.0597 108.728 87.0277 108.856 87.0277 108.92C87.0277 110.712 87.6677 112.504 88.9477 114.296C90.2917 116.088 91.8277 116.984 93.5557 116.984C93.6837 116.856 93.7797 116.792 93.8437 116.792C93.9077 116.792 94.0357 116.824 94.2277 116.888C94.4197 117.016 94.5797 117.08 94.7077 117.08H94.9957C94.9957 117.144 95.3477 117.272 96.0517 117.464C96.1797 117.464 96.3717 117.464 96.6277 117.464C96.8837 117.528 97.0757 117.56 97.2037 117.56C97.3317 117.56 97.4597 117.496 97.5877 117.368C97.7797 117.304 97.9077 117.272 97.9717 117.272C98.0357 117.272 98.0997 117.304 98.1637 117.368C98.2277 117.496 98.2917 117.56 98.3557 117.56L98.4517 117.464C98.5157 117.4 98.5797 117.368 98.6437 117.368C98.7077 117.368 98.7717 117.4 98.8357 117.464C98.9637 117.528 99.0597 117.56 99.1237 117.56C99.1877 117.56 99.2837 117.496 99.4117 117.368C99.5397 117.304 99.6677 117.272 99.7957 117.272L99.9877 117.368C100.052 117.432 100.116 117.464 100.18 117.464C100.244 117.464 100.34 117.432 100.468 117.368C100.596 117.304 100.724 117.272 100.852 117.272L101.044 117.368H101.236C101.364 117.368 101.524 117.336 101.716 117.272C101.908 117.208 102.068 117.176 102.196 117.176C102.26 117.176 102.324 117.208 102.388 117.272L102.58 117.368C102.708 117.368 102.9 117.304 103.156 117.176C103.412 117.048 103.604 116.984 103.732 116.984C103.796 116.984 103.892 116.984 104.02 116.984C104.212 117.048 104.34 117.08 104.404 117.08C104.532 117.08 104.756 117.016 105.076 116.888C105.46 116.824 105.748 116.792 105.94 116.792C106.26 116.792 106.644 116.664 107.092 116.408C107.54 116.152 107.796 116.024 107.86 116.024L107.956 116.12C108.02 116.184 108.084 116.248 108.148 116.312C108.34 116.312 108.468 116.248 108.532 116.12C108.66 116.056 108.788 116.024 108.916 116.024C109.236 116.024 109.428 116.056 109.492 116.12C109.684 116.12 109.908 115.992 110.164 115.736C110.484 115.544 110.74 115.448 110.932 115.448L111.508 115.736C111.572 115.736 111.636 115.608 111.7 115.352C111.828 115.16 111.956 115.064 112.084 115.064C112.276 115.064 112.372 115.096 112.372 115.16L112.852 114.872H113.62C113.684 114.808 113.748 114.776 113.812 114.776C113.94 114.712 114.036 114.68 114.1 114.68L114.58 114.2C114.772 114.136 114.964 114.104 115.156 114.104L115.732 114.2C115.732 113.944 115.86 113.816 116.116 113.816C116.18 113.816 116.308 113.848 116.5 113.912C116.628 113.784 116.852 113.624 117.172 113.432C117.556 113.304 117.812 113.176 117.94 113.048H118.612C118.868 112.6 119.508 112.248 120.532 111.992C121.62 111.736 122.292 111.48 122.548 111.224L123.124 110.552C123.188 110.488 123.284 110.456 123.412 110.456H123.508C123.636 110.52 123.732 110.552 123.796 110.552C124.18 110.552 125.108 109.848 126.58 108.44C128.052 107.032 128.852 106.296 128.98 106.232C129.236 106.232 129.524 106.104 129.844 105.848C130.036 105.848 130.132 105.88 130.132 105.944C130.26 105.944 130.644 105.528 131.284 104.696C131.924 103.864 132.564 103 133.204 102.104C133.908 101.208 134.324 100.696 134.452 100.568L135.412 98.648C135.796 98.264 136.18 97.4 136.564 96.056C136.948 94.776 137.14 93.88 137.14 93.368C137.14 93.24 137.108 93.08 137.044 92.888C136.98 92.696 136.948 92.568 136.948 92.504C136.948 92.312 136.98 92.024 137.044 91.64C137.172 91.256 137.236 90.968 137.236 90.776C137.236 90.52 137.204 90.2 137.14 89.816C137.076 89.432 137.044 89.112 137.044 88.856C136.532 86.744 136.18 85.496 135.988 85.112C135.924 84.984 135.732 84.824 135.412 84.632C135.156 84.504 135.028 84.408 135.028 84.344C135.092 83.96 134.58 82.936 133.492 81.272C132.404 79.608 131.764 78.776 131.572 78.776ZM158.164 84.152C158.164 84.344 158.292 84.44 158.548 84.44C158.548 84.12 158.452 83.96 158.26 83.96C158.196 83.96 158.164 84.024 158.164 84.152ZM111.412 86.36C111.412 86.488 111.508 86.552 111.7 86.552C111.7 86.36 111.636 86.264 111.508 86.264C111.444 86.264 111.412 86.296 111.412 86.36ZM188.995 65.72C188.995 65.4 189.155 65.24 189.475 65.24C189.731 65.368 189.955 65.496 190.147 65.624C190.403 65.688 190.595 65.752 190.723 65.816L191.395 66.2L191.491 66.296C191.491 66.424 191.427 66.616 191.299 66.872C191.171 67.128 191.107 67.352 191.107 67.544C191.107 67.736 191.139 67.832 191.203 67.832V68.024C191.203 68.28 190.755 68.728 189.859 69.368C189.027 70.008 188.611 70.584 188.611 71.096C188.547 71.224 188.291 71.544 187.843 72.056C187.395 72.568 186.947 73.048 186.499 73.496L185.827 74.168C185.827 74.232 185.827 74.328 185.827 74.456C185.891 74.52 185.923 74.584 185.923 74.648C185.923 74.84 185.667 75.128 185.155 75.512C184.707 75.896 184.483 76.152 184.483 76.28C184.483 76.344 184.483 76.44 184.483 76.568C184.547 76.632 184.579 76.696 184.579 76.76C184.579 77.016 184.291 77.144 183.715 77.144C183.587 77.272 183.299 77.688 182.851 78.392C182.403 79.032 182.179 79.384 182.179 79.448C181.859 79.576 181.123 80.664 179.971 82.712C178.819 84.76 178.243 86.04 178.243 86.552V86.744C178.499 87 178.627 87.16 178.627 87.224L178.723 87.32L178.819 87.416C179.459 86.776 179.971 86.456 180.355 86.456H180.643C181.155 86.456 181.475 86.232 181.603 85.784C181.795 85.336 181.987 85.048 182.179 84.92C182.627 84.792 183.139 84.44 183.715 83.864C184.355 83.352 184.899 83.064 185.347 83C185.475 82.936 185.699 82.648 186.019 82.136C186.403 81.624 186.691 81.368 186.883 81.368L186.979 81.464C187.043 81.464 187.107 81.464 187.171 81.464L187.459 81.368L188.035 80.792H188.227C188.675 80.728 188.963 80.504 189.091 80.12C189.219 79.672 189.411 79.384 189.667 79.256C190.307 79 191.907 77.336 194.467 74.264C197.027 71.192 198.435 69.656 198.691 69.656C199.843 69.656 200.419 70.04 200.419 70.808C200.419 70.936 200.355 71.128 200.227 71.384C200.099 71.64 200.067 71.864 200.131 72.056C199.875 72.312 199.651 72.44 199.459 72.44C199.139 72.952 198.627 73.528 197.923 74.168C197.219 74.808 196.739 75.288 196.483 75.608C196.227 75.864 195.971 76.472 195.715 77.432C195.523 78.392 195.267 79 194.947 79.256V80.216C194.627 80.536 194.467 80.76 194.467 80.888C194.467 81.016 194.531 81.144 194.659 81.272L194.947 82.712H195.811C197.923 81.176 199.267 80.44 199.843 80.504L200.131 80.216H200.515L202.627 78.584C204.099 77.432 205.091 76.856 205.603 76.856C205.603 76.92 205.667 76.952 205.795 76.952C205.795 76.632 206.371 76.024 207.523 75.128C208.163 75.192 209.667 74.36 212.035 72.632C214.403 70.84 215.715 69.944 215.971 69.944C216.355 69.944 216.547 70.136 216.547 70.52C216.547 71.224 216.099 71.928 215.203 72.632C214.307 73.336 213.443 73.976 212.611 74.552C211.779 75.064 211.427 75.48 211.555 75.8L211.363 75.896C210.979 76.088 210.627 76.184 210.307 76.184L209.731 76.376C209.411 76.504 209.123 76.632 208.867 76.76C208.675 76.888 208.579 76.984 208.579 77.048L208.771 77.336L208.099 77.528C207.075 78.232 206.371 78.648 205.987 78.776L204.451 80.12C203.619 80.824 202.627 81.368 201.475 81.752C201.219 82.072 200.035 83.032 197.923 84.632C197.859 84.568 197.795 84.536 197.731 84.536C197.411 84.536 196.867 84.664 196.099 84.92C195.395 85.176 194.851 85.304 194.467 85.304C193.891 85.304 193.507 85.24 193.315 85.112C193.123 85.048 193.027 84.76 193.027 84.248C193.027 84.184 192.867 84.088 192.547 83.96C192.291 83.832 192.163 83.736 192.163 83.672L192.355 83.384C192.355 83.256 192.259 83.064 192.067 82.808C191.939 82.552 191.875 82.328 191.875 82.136C191.875 81.944 191.971 81.752 192.163 81.56C192.355 81.304 192.451 81.112 192.451 80.984C192.451 80.92 192.355 80.856 192.163 80.792C192.035 80.728 191.971 80.632 191.971 80.504C191.971 80.44 192.003 80.28 192.067 80.024C192.195 79.768 192.259 79.576 192.259 79.448C191.811 79.448 191.459 79.544 191.203 79.736C190.947 79.928 190.691 80.312 190.435 80.888C190.179 81.4 190.019 81.72 189.955 81.848C189.699 82.104 189.155 82.488 188.323 83C187.491 83.448 187.043 83.704 186.979 83.768C186.787 83.96 186.211 84.44 185.251 85.208C184.291 86.04 183.491 86.712 182.851 87.224C182.211 87.8 181.443 88.312 180.547 88.76C179.651 89.272 178.915 89.528 178.339 89.528C176.419 89.528 175.459 88.92 175.459 87.704C175.459 87.64 175.491 87.48 175.555 87.224V86.936C175.619 86.872 175.651 86.808 175.651 86.744C175.651 86.68 175.651 86.648 175.651 86.648C175.587 86.648 175.555 86.616 175.555 86.552C175.555 86.424 175.619 86.296 175.747 86.168C175.875 86.104 175.939 86.04 175.939 85.976C176.003 85.912 176.003 85.816 175.939 85.688C175.875 85.56 175.843 85.464 175.843 85.4C175.843 84.952 176.387 84.088 177.475 82.808C178.563 81.464 179.107 80.6 179.107 80.216C179.107 80.152 179.075 80.056 179.011 79.928C179.011 79.672 179.203 79.448 179.587 79.256C180.035 79 180.259 78.84 180.259 78.776C180.451 78.2 180.995 77.368 181.891 76.28C181.891 75.896 182.115 75.448 182.563 74.936C183.011 74.424 183.235 73.976 183.235 73.592V73.4C183.171 73.336 183.139 73.272 183.139 73.208C183.139 73.144 183.395 72.696 183.907 71.864C184.419 70.968 184.963 70.072 185.539 69.176C186.115 68.28 186.403 67.8 186.403 67.736C186.467 67.672 186.755 67.544 187.267 67.352C187.779 67.16 188.035 66.808 188.035 66.296C188.035 66.232 188.003 66.168 187.939 66.104C187.939 65.976 187.939 65.88 187.939 65.816C188.195 65.816 188.355 65.784 188.419 65.72H188.995ZM189.283 66.584L189.379 66.68L189.283 66.584ZM187.651 70.424V70.328V70.424ZM197.731 71.864C197.731 72.056 197.923 72.152 198.307 72.152C198.499 72.152 198.595 72.056 198.595 71.864C198.595 71.544 198.499 71.384 198.307 71.384C197.923 71.384 197.731 71.544 197.731 71.864ZM184.963 72.824V72.728V72.824ZM211.651 73.688H211.459C211.459 73.752 211.491 73.784 211.555 73.784C211.619 73.784 211.651 73.752 211.651 73.688ZM182.755 76.568H182.851H182.755ZM192.163 77.912C192.227 77.912 192.291 77.976 192.355 78.104C192.419 78.168 192.483 78.2 192.547 78.2C192.611 78.2 192.643 78.136 192.643 78.008V77.624H192.451C192.323 77.624 192.227 77.72 192.163 77.912ZM199.747 81.368H199.651H199.747ZM199.459 81.848H199.555V81.656L199.459 81.848ZM198.595 82.04C198.595 82.168 198.691 82.232 198.883 82.232C198.947 82.232 198.979 82.2 198.979 82.136C198.979 82.008 198.915 81.944 198.787 81.944C198.659 81.944 198.595 81.976 198.595 82.04ZM198.307 82.328C198.371 82.328 198.403 82.296 198.403 82.232L198.307 82.328ZM176.899 86.072V85.976H176.803L176.899 86.072ZM260.076 17.912C260.332 17.912 261.004 17.496 262.092 16.664C263.372 15.896 265.452 15.512 268.332 15.512C268.844 15.512 269.964 16.024 271.692 17.048C271.948 17.56 272.076 18.072 272.076 18.584C272.076 18.712 272.044 18.936 271.98 19.256C271.916 19.512 271.884 19.704 271.884 19.832C271.884 19.96 271.916 20.12 271.98 20.312C272.044 20.504 272.076 20.632 272.076 20.696C272.076 20.76 271.98 20.824 271.788 20.888C271.66 20.952 271.596 21.048 271.596 21.176C271.596 21.24 271.596 21.304 271.596 21.368L271.692 21.56C271.18 22.072 270.924 22.488 270.924 22.808V23.384C270.732 23.576 270.54 23.896 270.348 24.344C270.156 24.728 270.028 24.984 269.964 25.112C267.98 28.44 266.348 30.584 265.068 31.544C265.004 31.608 264.972 31.672 264.972 31.736L265.068 31.832C265.068 31.896 265.068 31.96 265.068 32.024C265.068 32.088 264.908 32.184 264.588 32.312L264.108 32.504V33.272C264.108 33.656 263.82 33.848 263.244 33.848C263.116 33.976 262.764 34.488 262.188 35.384C261.612 36.216 261.132 36.6 260.748 36.536L260.844 36.728C260.844 36.792 260.844 36.856 260.844 36.92C260.844 37.048 260.396 37.464 259.5 38.168C258.604 38.872 258.156 39.416 258.156 39.8C258.092 39.864 257.868 39.992 257.484 40.184C257.1 40.312 256.908 40.44 256.908 40.568L257.004 40.76C257.004 40.824 257.004 40.888 257.004 40.952C257.004 41.208 256.684 41.496 256.044 41.816C255.468 42.136 255.18 42.392 255.18 42.584V43.064C255.18 43.192 254.604 43.736 253.452 44.696C252.3 45.656 251.66 46.264 251.532 46.52C251.468 46.648 251.212 46.84 250.764 47.096C250.38 47.288 249.996 47.48 249.612 47.672C249.292 47.864 249.132 47.992 249.132 48.056V48.44L248.748 48.728L248.556 49.016C248.492 49.208 248.396 49.304 248.268 49.304C248.204 49.304 248.14 49.304 248.076 49.304C248.012 49.24 247.948 49.208 247.884 49.208C247.756 49.208 247.692 49.272 247.692 49.4L247.788 49.592V49.784C247.788 50.168 247.404 50.648 246.636 51.224C245.932 51.8 245.228 52.28 244.524 52.664L243.372 53.336C243.372 53.4 243.404 53.464 243.468 53.528C243.532 53.592 243.564 53.656 243.564 53.72C243.564 54.04 243.116 54.2 242.22 54.2C242.028 54.264 241.932 54.616 241.932 55.256C241.676 55.576 240.78 56.216 239.244 57.176C239.116 57.432 238.828 57.784 238.38 58.232C237.996 58.616 237.676 58.808 237.42 58.808H237.228L237.036 58.712C236.908 58.712 236.78 58.808 236.652 59C236.524 59.128 236.46 59.224 236.46 59.288C236.46 59.352 236.524 59.448 236.652 59.576C236.78 59.64 236.844 59.704 236.844 59.768C236.844 59.896 236.78 59.96 236.652 59.96H235.596C235.468 59.96 235.244 60.184 234.924 60.632C234.604 61.016 234.316 61.208 234.06 61.208C233.996 61.208 233.9 61.176 233.772 61.112C233.644 61.048 233.516 61.016 233.388 61.016C233.26 61.016 233.196 61.048 233.196 61.112L233.1 61.304C233.1 61.368 233.132 61.464 233.196 61.592C233.26 61.656 233.292 61.72 233.292 61.784C233.292 62.04 232.364 62.968 230.508 64.568C228.716 66.168 227.564 67.096 227.052 67.352L226.188 67.832C225.164 68.408 223.82 69.272 222.156 70.424C220.556 71.512 219.468 72.376 218.892 73.016C218.764 73.272 218.572 73.528 218.316 73.784C218.316 74.808 218.188 75.32 217.932 75.32C217.868 75.32 217.804 75.32 217.74 75.32L217.548 75.224C217.548 75.288 217.548 75.384 217.548 75.512C217.612 75.64 217.644 75.736 217.644 75.8C217.644 75.992 217.516 76.312 217.26 76.76C217.068 77.208 216.972 77.56 216.972 77.816V79.352V80.504C216.972 80.632 216.876 80.824 216.684 81.08C216.556 81.336 216.492 81.56 216.492 81.752C216.492 81.816 216.524 81.912 216.588 82.04C216.716 82.168 216.78 82.296 216.78 82.424C216.78 82.872 216.556 83.096 216.108 83.096C216.236 83.16 216.364 83.288 216.492 83.48C216.62 83.736 216.716 83.864 216.78 83.864L216.876 83.768C216.94 83.768 217.004 83.768 217.068 83.768C217.132 83.768 217.356 84.12 217.74 84.824C218.188 85.528 218.828 86.232 219.66 86.936C220.556 87.64 221.548 87.992 222.636 87.992C222.892 87.992 223.34 87.896 223.98 87.704C224.62 87.512 225.068 87.416 225.324 87.416H225.516C225.644 87.288 225.772 87.224 225.9 87.224C226.86 87.224 227.724 86.904 228.492 86.264C228.812 86.2 229.164 86.008 229.548 85.688C229.932 85.432 230.156 85.304 230.22 85.304H230.604C231.052 85.304 231.404 85.208 231.66 85.016H232.236C232.3 84.952 232.94 84.408 234.156 83.384C235.436 82.36 236.588 81.4 237.612 80.504C238.7 79.608 239.276 79.096 239.34 78.968C239.724 78.584 240.428 78.072 241.452 77.432C242.54 76.728 243.18 76.312 243.372 76.184C243.5 76.12 244.492 75.416 246.348 74.072C248.268 72.664 249.932 71.416 251.34 70.328C252.812 69.176 253.548 68.44 253.548 68.12C253.676 68.12 253.804 68.152 253.932 68.216H254.028C254.476 68.216 255.116 67.896 255.948 67.256C256.78 66.552 257.324 66.136 257.58 66.008C257.708 65.88 258.124 65.464 258.828 64.76C259.596 63.992 260.204 63.544 260.652 63.416C260.908 63.096 261.324 62.712 261.9 62.264C262.54 61.752 262.988 61.368 263.244 61.112C263.564 61.048 263.82 60.728 264.012 60.152C264.204 59.576 264.46 59.288 264.78 59.288C266.636 59.288 267.564 59.736 267.564 60.632C267.564 60.76 267.5 60.856 267.372 60.92C267.244 60.984 267.18 61.048 267.18 61.112V61.304V61.688V62.072C266.988 62.2 266.7 62.648 266.316 63.416C265.996 64.12 265.836 64.6 265.836 64.856C265.836 64.92 265.9 65.048 266.028 65.24C266.156 65.368 266.22 65.496 266.22 65.624C266.22 65.752 266.156 65.944 266.028 66.2C265.9 66.392 265.836 66.52 265.836 66.584C265.836 66.648 265.868 66.744 265.932 66.872C265.996 66.936 266.028 67.032 266.028 67.16C266.028 67.224 265.868 67.48 265.548 67.928C265.228 68.376 265.068 68.76 265.068 69.08C265.068 69.144 265.068 69.208 265.068 69.272C265.132 69.336 265.164 69.4 265.164 69.464L265.068 69.752V69.944C265.068 70.072 265.036 70.232 264.972 70.424C264.908 70.616 264.876 70.744 264.876 70.808C264.876 71.128 264.972 71.288 265.164 71.288C265.356 71.288 265.58 71.192 265.836 71C266.092 70.744 266.284 70.616 266.412 70.616H267.084C267.468 70.616 268.46 70.232 270.06 69.464C271.724 68.632 272.684 68.216 272.94 68.216C273.004 68.216 273.068 68.248 273.132 68.312C273.26 68.376 273.356 68.408 273.42 68.408C273.548 68.408 273.74 68.344 273.996 68.216C274.252 68.024 274.412 67.928 274.476 67.928L274.764 68.024C274.828 68.024 274.988 67.96 275.244 67.832C275.5 67.704 275.66 67.64 275.724 67.64L276.108 67.736C276.172 67.736 276.332 67.672 276.588 67.544H276.876C276.94 67.544 277.1 67.576 277.356 67.64C277.612 67.704 277.772 67.736 277.836 67.736C277.964 67.736 278.124 67.672 278.316 67.544C278.572 67.416 278.764 67.352 278.892 67.352C278.956 67.352 279.052 67.384 279.18 67.448H279.372C279.564 67.448 279.852 67.416 280.236 67.352C280.62 67.224 280.908 67.16 281.1 67.16L281.292 67.256C281.484 67.256 281.772 67.192 282.156 67.064C282.604 66.936 282.892 66.872 283.02 66.872C283.212 66.872 283.436 66.904 283.692 66.968C283.948 67.032 284.14 67.064 284.268 67.064C284.396 67.064 284.524 67 284.652 66.872C284.78 66.744 284.908 66.68 285.036 66.68C286.764 66.68 287.628 67.16 287.628 68.12V68.312C287.372 68.632 286.924 68.792 286.284 68.792C286.156 68.792 285.964 68.76 285.708 68.696C285.516 68.568 285.356 68.504 285.228 68.504C285.036 68.504 284.812 68.632 284.556 68.888C284.364 69.08 284.204 69.176 284.076 69.176C284.012 69.176 283.916 69.144 283.788 69.08C283.724 69.016 283.66 68.984 283.596 68.984C283.404 68.984 283.116 69.048 282.732 69.176C282.348 69.24 282.028 69.272 281.772 69.272L281.676 69.176C281.612 69.176 281.548 69.176 281.484 69.176C281.356 69.176 281.164 69.24 280.908 69.368C280.652 69.432 280.46 69.464 280.332 69.464C280.268 69.464 280.14 69.432 279.948 69.368C279.82 69.24 279.724 69.176 279.66 69.176C279.532 69.176 279.436 69.24 279.372 69.368C279.372 69.496 279.34 69.56 279.276 69.56C279.148 69.56 278.924 69.528 278.604 69.464C278.284 69.4 278.06 69.368 277.932 69.368C277.868 69.368 277.772 69.432 277.644 69.56H276.78C276.14 70.008 275.468 70.232 274.764 70.232C272.332 70.424 270.892 70.84 270.444 71.48C269.548 71.288 267.564 72.12 264.492 73.976C264.172 74.232 263.692 75.192 263.052 76.856C262.476 78.52 262.092 79.8 261.9 80.696C261.9 80.76 260.812 82.776 258.636 86.744C258.508 86.872 258.38 87.128 258.252 87.512C258.124 87.96 258.028 88.248 257.964 88.376C257.9 88.44 257.58 88.6 257.004 88.856C256.492 89.176 256.172 89.432 256.044 89.624L255.66 90.488C255.276 91.192 254.252 91.896 252.588 92.6C250.988 93.368 249.74 93.752 248.844 93.752C248.076 93.752 247.5 93.272 247.116 92.312C246.796 91.352 246.636 90.424 246.636 89.528C246.636 88.44 247.18 87.096 248.268 85.496C249.42 83.96 250.092 82.936 250.284 82.424C250.348 82.36 250.444 82.2 250.572 81.944C250.764 81.688 250.988 81.56 251.244 81.56L251.34 81.656C251.404 81.656 251.468 81.656 251.532 81.656C251.596 81.656 251.692 81.56 251.82 81.368C251.628 81.368 251.532 81.304 251.532 81.176C253.324 78.936 255.34 77.048 257.58 75.512C257.708 75.384 258.252 75.128 259.212 74.744C260.236 74.296 260.908 73.88 261.228 73.496C261.228 73.048 261.388 72.312 261.708 71.288C262.028 70.2 262.188 69.368 262.188 68.792C262.188 68.728 262.156 68.632 262.092 68.504C262.092 68.376 262.092 68.28 262.092 68.216C262.092 67.96 262.22 67.544 262.476 66.968C262.732 66.392 262.86 65.912 262.86 65.528C262.86 65.016 262.7 64.76 262.38 64.76C261.74 64.76 261.196 65.176 260.748 66.008C259.66 66.776 259.02 67.16 258.828 67.16L257.868 68.12L257.388 68.312C257.004 68.44 256.204 69.016 254.988 70.04C253.772 71 253.004 71.672 252.684 72.056C252.3 72.568 251.436 73.208 250.092 73.976C249.772 74.232 249.164 74.616 248.268 75.128C247.436 75.576 246.7 76.056 246.06 76.568C245.42 77.016 245.004 77.496 244.812 78.008L244.14 78.68C243.948 78.808 243.596 78.968 243.084 79.16C242.636 79.288 242.348 79.448 242.22 79.64C242.156 79.896 241.644 80.408 240.684 81.176C239.788 81.944 239.212 82.328 238.956 82.328L238.86 82.424V82.904C238.22 83.352 237.868 83.576 237.804 83.576C237.676 83.64 237.452 83.8 237.132 84.056C236.876 84.312 236.62 84.536 236.364 84.728L235.98 85.112H235.5L235.116 85.496C234.796 85.752 234.54 85.88 234.348 85.88L234.156 85.784H233.964C233.836 85.784 233.676 85.912 233.484 86.168C233.356 86.488 233.26 86.648 233.196 86.648C233.132 86.648 233.036 86.616 232.908 86.552C232.78 86.552 232.684 86.552 232.62 86.552C232.62 86.616 232.62 86.68 232.62 86.744C232.684 86.872 232.716 86.968 232.716 87.032C232.716 87.16 232.652 87.224 232.524 87.224C232.46 87.224 232.364 87.192 232.236 87.128C232.108 87.128 232.012 87.128 231.948 87.128C231.756 87.128 231.148 87.64 230.124 88.664C229.356 88.664 228.78 88.92 228.396 89.432H227.628C227.5 89.432 227.308 89.56 227.052 89.816C226.54 89.816 225.836 89.976 224.94 90.296C224.044 90.616 223.34 90.776 222.828 90.776C222.38 90.776 221.964 90.68 221.58 90.488H220.908C220.588 90.488 220.044 90.264 219.276 89.816C218.572 89.432 218.188 89.24 218.124 89.24C218.06 89.176 217.996 89.08 217.932 88.952C217.868 88.824 217.804 88.696 217.74 88.568L217.644 88.472H217.164C214.924 85.784 213.804 83.608 213.804 81.944C213.804 81.56 213.836 81.272 213.9 81.08C213.9 81.016 213.836 80.92 213.708 80.792C213.644 80.6 213.612 80.472 213.612 80.408C213.612 79.896 213.708 79.16 213.9 78.2C214.156 77.176 214.316 76.568 214.38 76.376L214.572 75.896C214.7 75.64 214.764 75.448 214.764 75.32C214.764 75.256 214.764 75.192 214.764 75.128L214.668 74.936C214.668 74.744 214.7 74.584 214.764 74.456C214.7 73.304 215.372 71.736 216.78 69.752C218.188 67.768 218.892 66.264 218.892 65.24L218.796 64.952C218.796 64.824 218.924 64.632 219.18 64.376C219.5 64.056 219.692 63.832 219.756 63.704L220.14 63.32L220.332 63.128C220.332 62.744 220.524 62.456 220.908 62.264C221.292 62.008 221.484 61.752 221.484 61.496V61.304C221.42 61.24 221.42 61.176 221.484 61.112C221.484 60.984 221.58 60.76 221.772 60.44C222.028 60.12 222.188 59.96 222.252 59.96C222.508 59.704 222.636 59.544 222.636 59.48L222.54 59.192C222.54 59.064 222.732 58.808 223.116 58.424L223.692 57.848C223.628 57.656 224.46 56.344 226.188 53.912C227.98 51.48 228.972 50.232 229.164 50.168C229.164 50.104 229.164 50.04 229.164 49.976L229.068 49.88C229.068 49.624 229.292 49.24 229.74 48.728C230.188 48.152 230.668 47.576 231.18 47C231.692 46.36 232.012 45.944 232.14 45.752C232.14 45.304 232.396 44.92 232.908 44.6C233.228 44.024 233.74 43.288 234.444 42.392C235.212 41.432 235.82 40.856 236.268 40.664V40.28C236.268 39.896 237.132 38.872 238.86 37.208C240.652 35.48 241.644 34.264 241.836 33.56L242.316 32.984C242.38 32.984 242.892 32.472 243.852 31.448C244.812 30.424 245.356 29.816 245.484 29.624C245.484 29.56 246.06 28.92 247.212 27.704C248.428 26.488 249.676 25.24 250.956 23.96C252.3 22.68 253.1 21.976 253.356 21.848C253.484 21.72 253.804 21.528 254.316 21.272C254.892 20.952 255.34 20.664 255.66 20.408C256.044 20.152 256.332 19.896 256.524 19.64C256.652 19.512 257.196 19.16 258.156 18.584C259.116 18.008 259.628 17.72 259.692 17.72C259.756 17.72 259.82 17.752 259.884 17.816C259.948 17.88 260.012 17.912 260.076 17.912ZM269.1 17.048C269.42 17.048 269.58 16.952 269.58 16.76C269.58 16.632 269.516 16.568 269.388 16.568C269.196 16.568 269.1 16.728 269.1 17.048ZM262.956 17.144C262.956 17.208 262.988 17.24 263.052 17.24L263.34 17.048L263.244 16.952H263.148C263.02 16.952 262.956 17.016 262.956 17.144ZM266.028 18.296C265.836 18.36 265.26 18.616 264.3 19.064C263.404 19.512 262.86 19.736 262.668 19.736H262.092C261.708 19.736 261.1 20.056 260.268 20.696C259.5 21.336 258.892 21.656 258.444 21.656C257.932 22.168 257.644 22.424 257.58 22.424C257.452 22.424 257.26 22.392 257.004 22.328C256.812 22.2 256.684 22.136 256.62 22.136C256.492 22.136 256.428 22.168 256.428 22.232C256.428 22.296 256.492 22.36 256.62 22.424C256.812 22.488 256.908 22.552 256.908 22.616C256.908 22.808 256.332 23.192 255.18 23.768C254.092 24.344 253.548 24.664 253.548 24.728V25.4C253.1 25.656 252.332 26.36 251.244 27.512C250.22 28.664 249.452 29.272 248.94 29.336C248.94 30.232 248.716 30.68 248.268 30.68C248.204 30.68 248.108 30.68 247.98 30.68C247.916 30.616 247.852 30.584 247.788 30.584C247.66 30.584 247.532 30.712 247.404 30.968C247.34 31.16 247.276 31.256 247.212 31.256C246.956 31.256 246.732 31.16 246.54 30.968C246.476 31.032 246.444 31.192 246.444 31.448L246.156 31.736V32.216C245.9 32.472 245.676 32.6 245.484 32.6C245.42 32.856 245.164 33.08 244.716 33.272C244.332 33.464 244.14 33.816 244.14 34.328C244.14 34.52 244.044 34.616 243.852 34.616C243.788 34.616 243.692 34.584 243.564 34.52C243.5 34.456 243.436 34.424 243.372 34.424C243.052 34.424 242.892 34.584 242.892 34.904C242.956 34.968 242.988 35.064 242.988 35.192C242.988 35.32 243.02 35.384 243.084 35.384L242.796 35.576V35.96H242.412C242.284 36.088 241.868 36.664 241.164 37.688C240.524 38.712 239.948 39.224 239.436 39.224C239.308 39.288 239.148 39.416 238.956 39.608C238.764 39.8 238.604 39.928 238.476 39.992V40.472C238.476 40.664 238.188 40.984 237.612 41.432C237.1 41.816 236.844 42.04 236.844 42.104L237.036 42.296C237.036 42.552 236.748 42.968 236.172 43.544C235.66 44.12 235.404 44.44 235.404 44.504C235.404 44.568 235.436 44.664 235.5 44.792C235.5 44.984 235.212 45.208 234.636 45.464C234.124 45.72 233.868 45.912 233.868 46.04C233.868 46.104 233.9 46.2 233.964 46.328C233.964 46.584 233.644 46.936 233.004 47.384C233.004 47.576 232.908 47.736 232.716 47.864C232.588 47.928 232.524 47.992 232.524 48.056V48.536C232.268 48.664 231.788 49.304 231.084 50.456C230.38 51.544 229.964 52.088 229.836 52.088C229.9 52.344 229.772 52.664 229.452 53.048C229.196 53.368 228.908 53.592 228.588 53.72C228.524 53.848 228.396 54.008 228.204 54.2C228.076 54.328 227.948 54.456 227.82 54.584L227.532 54.776C227.532 54.904 227.564 55.032 227.628 55.16C227.692 55.224 227.724 55.288 227.724 55.352H227.244V55.832C227.244 56.024 227.052 56.12 226.668 56.12C226.668 56.184 226.7 56.28 226.764 56.408C226.828 56.472 226.86 56.536 226.86 56.6C226.86 56.728 226.508 57.304 225.804 58.328C225.164 59.288 224.716 59.864 224.46 60.056C224.46 60.44 224.14 60.984 223.5 61.688C222.924 62.328 222.636 62.776 222.636 63.032C222.636 63.096 222.572 63.128 222.444 63.128C222.38 63.128 222.284 63.096 222.156 63.032C222.028 62.968 221.9 62.936 221.772 62.936C221.772 63 221.804 63.096 221.868 63.224C221.996 63.352 222.06 63.48 222.06 63.608C222.06 63.8 221.932 64.088 221.676 64.472C221.42 64.792 221.292 65.048 221.292 65.24C221.292 65.304 221.356 65.528 221.484 65.912C221.484 66.04 221.26 66.392 220.812 66.968C220.364 67.48 220.14 67.864 220.14 68.12C220.14 68.184 220.204 68.28 220.332 68.408C223.532 65.72 225.324 64.376 225.708 64.376H225.9C225.964 64.44 226.028 64.472 226.092 64.472C226.22 64.472 226.764 64.12 227.724 63.416C228.684 62.712 229.708 61.944 230.796 61.112C231.884 60.28 232.556 59.8 232.812 59.672C232.94 59.544 233.196 59.256 233.58 58.808C234.028 58.296 234.444 57.88 234.828 57.56C235.276 57.24 235.628 57.08 235.884 57.08C235.948 57.08 236.044 57.08 236.172 57.08L236.364 57.176C236.428 57.176 236.492 57.144 236.556 57.08C236.492 57.08 236.46 57.048 236.46 56.984L236.268 56.888C236.268 56.76 236.396 56.6 236.652 56.408C236.972 56.152 237.164 55.96 237.228 55.832L237.9 55.544C238.348 55.352 238.764 55.16 239.148 54.968L239.628 54.68C239.628 54.616 239.596 54.52 239.532 54.392V54.296C239.532 54.232 240.204 53.624 241.548 52.472C242.892 51.32 244.332 50.104 245.868 48.824C247.404 47.544 248.268 46.808 248.46 46.616C248.652 46.488 249.068 46.2 249.708 45.752C250.412 45.24 250.86 44.888 251.052 44.696C251.052 44.632 251.052 44.536 251.052 44.408L250.956 44.312C250.956 44.248 251.756 43.48 253.356 42.008C255.02 40.472 255.948 39.704 256.14 39.704C256.14 39.64 256.108 39.608 256.044 39.608L255.948 39.416C255.948 39.352 256.588 38.744 257.868 37.592C259.148 36.376 259.852 35.544 259.98 35.096C260.044 34.904 260.268 34.648 260.652 34.328C261.036 33.944 261.324 33.72 261.516 33.656C262.54 32.184 263.276 31.384 263.724 31.256C263.724 31.128 263.692 31.032 263.628 30.968C263.692 30.84 263.756 30.776 263.82 30.776H264.204C264.332 30.776 264.684 30.296 265.26 29.336C265.9 28.312 266.572 27.256 267.276 26.168C267.98 25.08 268.46 24.472 268.716 24.344V23.864H268.908C269.036 23.8 269.1 23.704 269.1 23.576V22.808C269.1 22.744 269.196 22.648 269.388 22.52C269.644 22.392 269.772 22.296 269.772 22.232C269.772 22.168 269.74 22.072 269.676 21.944C269.676 21.752 269.676 21.624 269.676 21.56C269.676 21.496 269.772 21.336 269.964 21.08C270.22 20.824 270.348 20.632 270.348 20.504C270.348 20.44 270.316 20.312 270.252 20.12C270.188 19.928 270.156 19.8 270.156 19.736C270.156 19.608 270.156 19.48 270.156 19.352C270.22 19.16 270.252 19.032 270.252 18.968C270.252 18.392 269.612 18.104 268.332 18.104C268.076 18.104 267.724 18.136 267.276 18.2C266.828 18.264 266.508 18.296 266.316 18.296H266.028ZM258.636 18.872C258.636 18.936 258.732 18.968 258.924 18.968C259.052 18.968 259.116 18.936 259.116 18.872C259.116 18.744 259.02 18.68 258.828 18.68C258.7 18.68 258.636 18.744 258.636 18.872ZM250.668 24.824V24.728V24.824ZM253.068 24.92C253.004 24.92 252.972 24.984 252.972 25.112H253.164L253.068 24.92ZM249.612 27.512V27.416V27.512ZM266.892 28.088H266.988L266.892 27.992V28.088ZM247.884 28.952L248.076 28.76C248.076 28.568 247.884 28.472 247.5 28.472C247.5 28.792 247.628 28.952 247.884 28.952ZM263.052 33.56V33.464V33.56ZM241.26 35.384V35.288V35.384ZM255.276 41.048C255.276 41.112 255.34 41.144 255.468 41.144C255.66 41.144 255.756 41.08 255.756 40.952C255.756 40.888 255.692 40.856 255.564 40.856C255.372 40.856 255.276 40.92 255.276 41.048ZM233.58 45.944H233.676L233.58 45.848V45.944ZM250.764 46.424C250.764 46.296 250.7 46.232 250.572 46.232C250.572 46.36 250.636 46.424 250.764 46.424ZM232.62 46.616L232.812 46.808L233.004 46.616L232.812 46.52C232.748 46.52 232.684 46.552 232.62 46.616ZM227.532 53.144V52.856L227.436 52.76L227.532 53.144ZM227.724 53.912V54.008L227.82 53.912L227.724 53.72V53.912ZM226.188 57.08C226.188 56.888 226.028 56.792 225.708 56.792V56.888C225.708 57.016 225.868 57.08 226.188 57.08ZM236.076 59.192C236.076 59.32 236.108 59.384 236.172 59.384C236.236 59.384 236.3 59.352 236.364 59.288C236.3 59.288 236.204 59.256 236.076 59.192ZM223.596 60.152C223.404 60.152 223.308 60.216 223.308 60.344C223.308 60.472 223.404 60.536 223.596 60.536C223.724 60.536 223.788 60.472 223.788 60.344C223.788 60.216 223.724 60.152 223.596 60.152ZM222.252 61.592C222.124 61.592 222.06 61.624 222.06 61.688C222.06 61.752 222.124 61.784 222.252 61.784H222.444L222.252 61.592ZM221.004 64.568H221.1V64.472L221.004 64.568ZM259.404 64.952C259.404 65.144 259.532 65.24 259.788 65.24C259.852 65.24 259.916 65.208 259.98 65.144C259.98 64.952 259.852 64.856 259.596 64.856C259.468 64.856 259.404 64.888 259.404 64.952ZM221.772 67.832L222.06 68.024L222.156 68.12C222.348 68.12 222.508 68.056 222.636 67.928C222.636 67.736 222.476 67.64 222.156 67.64C222.028 67.64 221.9 67.704 221.772 67.832ZM223.212 67.832V67.736V67.832ZM224.556 67.832V67.736V67.832ZM275.436 68.312V68.216H275.244L275.436 68.312ZM281.292 68.216H281.196H281.292ZM219.276 68.696V68.6V68.696ZM274.668 68.888V68.792V68.888ZM267.66 70.808H267.756L267.66 70.712V70.808ZM259.5 76.952C258.924 76.824 257.356 77.976 254.796 80.408C252.236 82.776 250.988 84.28 251.052 84.92C250.924 84.984 250.7 85.208 250.38 85.592C250.06 86.04 249.9 86.36 249.9 86.552L249.804 87.608C249.548 87.608 249.42 87.704 249.42 87.896C249.484 88.088 249.42 88.28 249.228 88.472C249.1 88.728 249.036 88.952 249.036 89.144C249.036 90.488 249.228 91.16 249.612 91.16H250.38C250.764 91.16 251.308 90.904 252.012 90.392C252.78 89.944 253.228 89.528 253.356 89.144L254.508 87.992C255.212 87.928 256.108 86.712 257.196 84.344C258.348 82.04 259.116 80.184 259.5 78.776C260.012 77.752 260.268 77.016 260.268 76.568C260.268 76.44 260.204 76.376 260.076 76.376C259.884 76.376 259.692 76.568 259.5 76.952ZM261.708 76.568C261.708 76.76 261.836 76.856 262.092 76.856C262.156 76.856 262.22 76.824 262.284 76.76C262.284 76.504 262.156 76.376 261.9 76.376C261.772 76.44 261.708 76.504 261.708 76.568ZM215.82 79.736C215.82 79.864 215.98 79.928 216.3 79.928C216.3 79.608 216.204 79.448 216.012 79.448C215.884 79.448 215.82 79.544 215.82 79.736Z" fill="#323232"/>
</svg>
