<svg width="10" height="11" viewBox="0 0 10 11" fill="none" xmlns="http://www.w3.org/2000/svg">
<path fill-rule="evenodd" clip-rule="evenodd" d="M9.13911 5.36307C9.12518 5.3776 9.11221 5.40701 9.10022 5.45129C8.6508 5.63388 8.25938 5.5653 7.92598 5.24555C7.89423 5.2151 7.88532 5.19261 7.89925 5.17808C7.84579 5.04314 7.81112 4.96805 7.79525 4.95283L7.9926 4.55637C7.96279 4.55567 7.92504 4.54736 7.87935 4.53144L7.83172 4.48576C7.79997 4.45531 7.79803 4.42555 7.82589 4.3965C7.85376 4.36744 7.88957 4.34599 7.93331 4.33216C7.99293 4.33356 8.03667 4.31973 8.06454 4.29067C8.12027 4.23256 8.14134 4.09936 8.12774 3.89107C8.12808 3.66826 8.13424 3.53471 8.14623 3.49043C8.22983 3.40326 8.32073 3.08601 8.41894 2.53869C8.53108 1.97683 8.53158 1.64262 8.42044 1.53603C8.41025 1.52625 8.36068 1.52474 8.27173 1.53151C8.27403 1.53832 8.27608 1.54513 8.27788 1.55194C8.29759 1.62648 8.2895 1.72999 8.25363 1.86249C8.23358 2.01017 8.21952 2.13577 8.21144 2.23929L8.30063 2.24138L8.34813 2.28693C8.3798 2.3173 8.35395 2.37596 8.27057 2.4629C8.18331 2.49049 8.01866 2.58293 7.7766 2.74023C7.73685 2.81338 7.70502 2.89412 7.6811 2.98245C7.65718 3.07078 7.58963 3.17291 7.47846 3.28883C7.42288 3.34679 7.33158 3.42613 7.20457 3.52687C7.07757 3.6276 6.98627 3.70695 6.93069 3.76491C6.84731 3.85185 6.75197 3.98295 6.64467 4.15822C6.55321 4.34868 6.46579 4.48738 6.38241 4.57431C6.35461 4.60329 6.30501 4.63917 6.23359 4.68195L6.15021 4.76889L6.10852 4.81236C6.20773 4.7406 6.18188 4.79926 6.03095 4.98832C5.9912 5.06147 5.8999 5.14081 5.75706 5.22636C5.61422 5.31191 5.51501 5.38366 5.45942 5.44162C5.37604 5.52856 5.33629 5.60171 5.34017 5.66106L4.29792 6.7478C4.27013 6.77678 4.20663 6.82715 4.10741 6.89891L3.27362 7.7683C3.13078 7.85385 3.01767 7.94009 2.93429 8.02703C2.82312 8.14295 2.6722 8.33202 2.48152 8.59423C2.33447 8.84264 2.20536 9.02481 2.09419 9.14073C1.92743 9.31461 1.68133 9.52367 1.3559 9.76791C1.05826 9.98317 0.869853 10.0528 0.790682 9.97691C0.74318 9.93135 0.697782 9.80436 0.654488 9.59594C0.627028 9.4027 0.57565 9.29779 0.500355 9.28121C0.508439 9.17769 0.55417 9.08247 0.63755 8.99553L0.804308 8.82165C0.875728 8.77887 0.925335 8.743 0.953128 8.71402C1.00871 8.65606 1.05638 8.59051 1.09614 8.51736C1.13589 8.44421 1.16966 8.39315 1.19745 8.36417C1.28083 8.27723 1.44161 8.12544 1.67979 7.90878C1.9338 7.70732 2.1025 7.56311 2.18588 7.47617C2.21367 7.44719 2.26134 7.38164 2.32889 7.27951L2.49564 7.10563C2.55123 7.04768 2.67824 6.94694 2.87666 6.80343C3.09093 6.67511 3.23975 6.56748 3.32312 6.48054L3.57326 6.21972C3.60106 6.19074 3.61899 6.12449 3.62708 6.02098C3.67879 5.90367 3.73244 5.81603 3.78802 5.75807L4.10941 5.56559L4.23448 5.43518C4.31786 5.34824 4.43695 5.23991 4.59175 5.1102C4.74655 4.98049 4.86564 4.87216 4.94902 4.78522C5.0324 4.69828 5.11384 4.58166 5.19335 4.43537C5.27285 4.28908 5.34039 4.18696 5.39598 4.129C5.45157 4.07104 5.52897 4.00618 5.62818 3.93443C5.77102 3.84888 5.85634 3.79162 5.88413 3.76264C6.27323 3.35692 6.60692 2.89805 6.88518 2.38603C6.92493 2.31289 6.91912 2.22386 6.86774 2.11895C6.8493 2.07239 6.84687 2.0262 6.86045 1.98039C6.30733 2.18526 5.50222 2.37007 4.44513 2.53482C4.40139 2.54865 4.31488 2.59119 4.18559 2.66243C4.07023 2.71915 3.98275 2.74682 3.92313 2.74542C3.89332 2.74472 3.72239 2.74815 3.41036 2.7557C3.09833 2.76325 2.79423 2.77842 2.49808 2.8012C2.21585 2.80945 2.0668 2.80596 2.05093 2.79073C2.03505 2.77551 2.02517 2.73814 2.02128 2.67863C2.03522 2.6641 2.02631 2.64161 1.99455 2.61116C1.9628 2.58071 1.88034 2.57135 1.74717 2.58309C1.62792 2.5803 1.54449 2.55606 1.49686 2.51038C1.21109 2.23631 1.14483 2.01937 1.2981 1.85955C1.36777 1.78691 1.70265 1.78732 2.30273 1.86078C2.93263 1.93494 3.28435 1.96546 3.35791 1.95232L3.84394 1.87457C3.87375 1.87527 3.91944 1.89119 3.981 1.92234C4.07237 1.95419 4.13896 1.94832 4.18076 1.90473C4.14901 1.87428 4.15403 1.83726 4.19583 1.79368C4.26744 1.75079 4.37778 1.73109 4.52683 1.73458C4.70568 1.73876 4.83189 1.73429 4.90545 1.72116C5.2852 1.61121 5.82406 1.43071 6.52202 1.17966C7.24978 0.929304 7.68333 0.731485 7.82267 0.5862L8.07005 0.614272C8.21911 0.61776 8.37917 0.562087 8.55026 0.447253C8.73723 0.347647 8.9122 0.292323 9.07519 0.281282C9.2521 0.255714 9.44376 0.3419 9.65015 0.53984C9.69778 0.585519 9.73536 0.705236 9.76289 0.898991C9.82024 1.09344 9.85085 1.22042 9.85474 1.27993C9.53715 2.34204 9.36619 3.02878 9.34188 3.34016C9.33183 3.41419 9.29974 3.60655 9.24562 3.91723C9.2213 4.22861 9.20898 4.49571 9.20864 4.71852C9.22224 4.9268 9.27861 5.10638 9.37776 5.25725L9.38067 5.30188L9.33887 5.34546C9.21963 5.34267 9.15304 5.34854 9.13911 5.36307ZM3.58389 2.3364L3.58972 2.42567C3.61953 2.42637 3.6414 2.41945 3.65534 2.40492L3.58389 2.3364Z" fill="#B64B4B"/>
</svg>
