<svg width="16" height="17" viewBox="0 0 16 17" fill="none" xmlns="http://www.w3.org/2000/svg">
<path d="M8.88641 15.8563C8.80107 15.8136 8.73707 15.7923 8.69441 15.7923C8.65174 15.7923 8.54507 15.8776 8.37441 16.0483C8.33174 16.0483 8.28907 16.0483 8.24641 16.0483L8.18241 15.9843C8.09707 15.643 7.90507 15.323 7.60641 15.0243C7.26507 14.7256 6.83841 14.3843 6.32641 14.0003C5.77174 13.659 5.43041 13.4456 5.30241 13.3603C4.79041 12.9763 3.48907 12.2936 1.39841 11.3123C1.31307 11.227 1.16374 11.0136 0.950407 10.6723C0.694406 10.3736 0.566406 10.1603 0.566406 10.0323C0.566406 9.47764 0.71574 9.09364 1.01441 8.8803C1.27041 8.66697 1.61174 8.4963 2.03841 8.3683C2.46507 8.28297 2.78507 8.13364 2.99841 7.9203L3.31841 7.5363C3.74507 7.5363 4.68374 7.19497 6.13441 6.5123C7.54241 5.8723 8.60907 5.3603 9.33441 4.9763C9.46241 4.89097 9.65441 4.7203 9.91041 4.4643C10.1237 4.25097 10.3157 4.12297 10.4864 4.0803C10.6144 4.0803 10.6784 4.12297 10.6784 4.2083C10.8064 4.2083 10.9131 4.12297 10.9984 3.9523C11.0411 3.8243 11.0837 3.73897 11.1264 3.6963L11.9584 3.1203C12.0864 3.03497 12.5557 2.50164 13.3664 1.5203C14.1344 0.581638 14.6251 0.112305 14.8384 0.112305C15.3077 0.112305 15.5424 0.496305 15.5424 1.2643C15.5424 1.3923 15.4571 1.54164 15.2864 1.7123C15.0731 1.88297 14.9664 2.01097 14.9664 2.0963C14.9664 2.18164 14.9877 2.2243 15.0304 2.2243C15.1157 2.30964 15.1584 2.37364 15.1584 2.41631C15.1584 2.45897 14.9451 2.6723 14.5184 3.0563C14.0491 3.44031 13.5797 3.84564 13.1104 4.27231C12.6411 4.69897 12.3851 4.93364 12.3424 4.97631C12.2571 5.06164 12.0864 5.14697 11.8304 5.2323C11.5317 5.31764 11.3397 5.38164 11.2544 5.4243C8.99307 7.00297 7.26507 7.9843 6.07041 8.3683L5.30241 8.8803H4.91841C4.87574 8.8803 4.70507 8.98697 4.40641 9.2003C4.06507 9.4563 3.89441 9.60564 3.89441 9.6483C3.89441 9.94697 4.40641 10.395 5.43041 10.9923C6.41174 11.5896 7.03041 11.8883 7.28641 11.8883C7.37174 11.931 7.58507 12.1016 7.92641 12.4003C8.22507 12.699 8.45974 12.8483 8.63041 12.8483C8.71574 12.8483 8.80107 12.8056 8.88641 12.7203C8.97174 12.6776 9.05707 12.6563 9.14241 12.6563C9.22774 12.6563 9.27041 12.699 9.27041 12.7843C9.27041 12.827 9.27041 12.8696 9.27041 12.9123C9.22774 12.9976 9.18507 13.0616 9.14241 13.1043L10.0384 13.3603C10.0384 13.403 10.1024 13.5523 10.2304 13.8083C10.2731 13.8083 10.2944 13.851 10.2944 13.9363C10.2944 14.8323 9.82507 15.4723 8.88641 15.8563ZM12.3424 4.0803L12.2144 3.9523V4.1443C12.2571 4.1443 12.2997 4.12297 12.3424 4.0803Z" fill="#B64B4B"/>
</svg>
